M48
; DRILL file {KiCad 8.0.3} date 2024-07-14T16:13:24+0300
; FORMAT={-:-/ absolute / inch / decimal}
; #@! TF.CreationDate,2024-07-14T16:13:24+03:00
; #@! TF.GenerationSoftware,Kicad,Pcbnew,8.0.3
; #@! TF.FileFunction,Plated,1,4,PTH
FMAT,2
INCH
; #@! TA.AperFunction,Plated,PTH,ViaDrill
T1C0.0118
%
G90
G05
T1
X5.3937Y-2.4213
X5.4331Y-2.8346
X5.4331Y-2.9724
X5.4331Y-3.0906
X5.4331Y-3.2126
X5.4331Y-3.3307
X5.4331Y-3.4528
X5.4685Y-2.7126
X5.4882Y-3.2677
X5.4921Y-3.0315
X5.4921Y-3.5039
X5.5276Y-2.7441
X5.6102Y-2.815
X5.6181Y-2.4803
X5.6575Y-2.7559
X5.7402Y-2.8346
X5.7677Y-2.7126
X5.7756Y-2.8346
X5.811Y-2.8346
X5.9173Y-2.4803
X5.937Y-2.7441
X6.0157Y-2.4803
X6.0906Y-2.7953
X6.122Y-2.4197
X6.1654Y-2.7126
X6.2244Y-2.7953
X6.2402Y-3.1496
X6.2441Y-3.3858
X6.2992Y-2.9724
X6.2992Y-3.0906
X6.2992Y-3.2126
X6.2992Y-3.3307
X6.2992Y-3.4567
X6.3504Y-2.4252
X6.3504Y-2.7953
M30
