%TF.GenerationSoftware,KiCad,Pcbnew,8.0.3*%
%TF.CreationDate,2024-07-14T16:13:23+03:00*%
%TF.ProjectId,TFT_Adapter,5446545f-4164-4617-9074-65722e6b6963,rev?*%
%TF.SameCoordinates,Original*%
%TF.FileFunction,Legend,Top*%
%TF.FilePolarity,Positive*%
%FSLAX46Y46*%
G04 Gerber Fmt 4.6, Leading zero omitted, Abs format (unit mm)*
G04 Created by KiCad (PCBNEW 8.0.3) date 2024-07-14 16:13:23*
%MOMM*%
%LPD*%
G01*
G04 APERTURE LIST*
%ADD10C,0.100000*%
%ADD11C,0.250000*%
G04 APERTURE END LIST*
D10*
X157208646Y-89421371D02*
X157208646Y-88821371D01*
X157208646Y-88821371D02*
X157351503Y-88821371D01*
X157351503Y-88821371D02*
X157437217Y-88849942D01*
X157437217Y-88849942D02*
X157494360Y-88907085D01*
X157494360Y-88907085D02*
X157522931Y-88964228D01*
X157522931Y-88964228D02*
X157551503Y-89078514D01*
X157551503Y-89078514D02*
X157551503Y-89164228D01*
X157551503Y-89164228D02*
X157522931Y-89278514D01*
X157522931Y-89278514D02*
X157494360Y-89335657D01*
X157494360Y-89335657D02*
X157437217Y-89392800D01*
X157437217Y-89392800D02*
X157351503Y-89421371D01*
X157351503Y-89421371D02*
X157208646Y-89421371D01*
X158065789Y-89021371D02*
X158065789Y-89421371D01*
X157922931Y-88792800D02*
X157780074Y-89221371D01*
X157780074Y-89221371D02*
X158151503Y-89221371D01*
X157208646Y-86421371D02*
X157208646Y-85821371D01*
X157208646Y-85821371D02*
X157351503Y-85821371D01*
X157351503Y-85821371D02*
X157437217Y-85849942D01*
X157437217Y-85849942D02*
X157494360Y-85907085D01*
X157494360Y-85907085D02*
X157522931Y-85964228D01*
X157522931Y-85964228D02*
X157551503Y-86078514D01*
X157551503Y-86078514D02*
X157551503Y-86164228D01*
X157551503Y-86164228D02*
X157522931Y-86278514D01*
X157522931Y-86278514D02*
X157494360Y-86335657D01*
X157494360Y-86335657D02*
X157437217Y-86392800D01*
X157437217Y-86392800D02*
X157351503Y-86421371D01*
X157351503Y-86421371D02*
X157208646Y-86421371D01*
X157751503Y-85821371D02*
X158122931Y-85821371D01*
X158122931Y-85821371D02*
X157922931Y-86049942D01*
X157922931Y-86049942D02*
X158008646Y-86049942D01*
X158008646Y-86049942D02*
X158065789Y-86078514D01*
X158065789Y-86078514D02*
X158094360Y-86107085D01*
X158094360Y-86107085D02*
X158122931Y-86164228D01*
X158122931Y-86164228D02*
X158122931Y-86307085D01*
X158122931Y-86307085D02*
X158094360Y-86364228D01*
X158094360Y-86364228D02*
X158065789Y-86392800D01*
X158065789Y-86392800D02*
X158008646Y-86421371D01*
X158008646Y-86421371D02*
X157837217Y-86421371D01*
X157837217Y-86421371D02*
X157780074Y-86392800D01*
X157780074Y-86392800D02*
X157751503Y-86364228D01*
X157208646Y-83421371D02*
X157208646Y-82821371D01*
X157208646Y-82821371D02*
X157351503Y-82821371D01*
X157351503Y-82821371D02*
X157437217Y-82849942D01*
X157437217Y-82849942D02*
X157494360Y-82907085D01*
X157494360Y-82907085D02*
X157522931Y-82964228D01*
X157522931Y-82964228D02*
X157551503Y-83078514D01*
X157551503Y-83078514D02*
X157551503Y-83164228D01*
X157551503Y-83164228D02*
X157522931Y-83278514D01*
X157522931Y-83278514D02*
X157494360Y-83335657D01*
X157494360Y-83335657D02*
X157437217Y-83392800D01*
X157437217Y-83392800D02*
X157351503Y-83421371D01*
X157351503Y-83421371D02*
X157208646Y-83421371D01*
X157780074Y-82878514D02*
X157808646Y-82849942D01*
X157808646Y-82849942D02*
X157865789Y-82821371D01*
X157865789Y-82821371D02*
X158008646Y-82821371D01*
X158008646Y-82821371D02*
X158065789Y-82849942D01*
X158065789Y-82849942D02*
X158094360Y-82878514D01*
X158094360Y-82878514D02*
X158122931Y-82935657D01*
X158122931Y-82935657D02*
X158122931Y-82992800D01*
X158122931Y-82992800D02*
X158094360Y-83078514D01*
X158094360Y-83078514D02*
X157751503Y-83421371D01*
X157751503Y-83421371D02*
X158122931Y-83421371D01*
X157208646Y-80421371D02*
X157208646Y-79821371D01*
X157208646Y-79821371D02*
X157351503Y-79821371D01*
X157351503Y-79821371D02*
X157437217Y-79849942D01*
X157437217Y-79849942D02*
X157494360Y-79907085D01*
X157494360Y-79907085D02*
X157522931Y-79964228D01*
X157522931Y-79964228D02*
X157551503Y-80078514D01*
X157551503Y-80078514D02*
X157551503Y-80164228D01*
X157551503Y-80164228D02*
X157522931Y-80278514D01*
X157522931Y-80278514D02*
X157494360Y-80335657D01*
X157494360Y-80335657D02*
X157437217Y-80392800D01*
X157437217Y-80392800D02*
X157351503Y-80421371D01*
X157351503Y-80421371D02*
X157208646Y-80421371D01*
X158122931Y-80421371D02*
X157780074Y-80421371D01*
X157951503Y-80421371D02*
X157951503Y-79821371D01*
X157951503Y-79821371D02*
X157894360Y-79907085D01*
X157894360Y-79907085D02*
X157837217Y-79964228D01*
X157837217Y-79964228D02*
X157780074Y-79992800D01*
X157208646Y-77421371D02*
X157208646Y-76821371D01*
X157208646Y-76821371D02*
X157351503Y-76821371D01*
X157351503Y-76821371D02*
X157437217Y-76849942D01*
X157437217Y-76849942D02*
X157494360Y-76907085D01*
X157494360Y-76907085D02*
X157522931Y-76964228D01*
X157522931Y-76964228D02*
X157551503Y-77078514D01*
X157551503Y-77078514D02*
X157551503Y-77164228D01*
X157551503Y-77164228D02*
X157522931Y-77278514D01*
X157522931Y-77278514D02*
X157494360Y-77335657D01*
X157494360Y-77335657D02*
X157437217Y-77392800D01*
X157437217Y-77392800D02*
X157351503Y-77421371D01*
X157351503Y-77421371D02*
X157208646Y-77421371D01*
X157922931Y-76821371D02*
X157980074Y-76821371D01*
X157980074Y-76821371D02*
X158037217Y-76849942D01*
X158037217Y-76849942D02*
X158065789Y-76878514D01*
X158065789Y-76878514D02*
X158094360Y-76935657D01*
X158094360Y-76935657D02*
X158122931Y-77049942D01*
X158122931Y-77049942D02*
X158122931Y-77192800D01*
X158122931Y-77192800D02*
X158094360Y-77307085D01*
X158094360Y-77307085D02*
X158065789Y-77364228D01*
X158065789Y-77364228D02*
X158037217Y-77392800D01*
X158037217Y-77392800D02*
X157980074Y-77421371D01*
X157980074Y-77421371D02*
X157922931Y-77421371D01*
X157922931Y-77421371D02*
X157865789Y-77392800D01*
X157865789Y-77392800D02*
X157837217Y-77364228D01*
X157837217Y-77364228D02*
X157808646Y-77307085D01*
X157808646Y-77307085D02*
X157780074Y-77192800D01*
X157780074Y-77192800D02*
X157780074Y-77049942D01*
X157780074Y-77049942D02*
X157808646Y-76935657D01*
X157808646Y-76935657D02*
X157837217Y-76878514D01*
X157837217Y-76878514D02*
X157865789Y-76849942D01*
X157865789Y-76849942D02*
X157922931Y-76821371D01*
X157208646Y-74421371D02*
X157208646Y-73821371D01*
X157208646Y-73821371D02*
X157351503Y-73821371D01*
X157351503Y-73821371D02*
X157437217Y-73849942D01*
X157437217Y-73849942D02*
X157494360Y-73907085D01*
X157494360Y-73907085D02*
X157522931Y-73964228D01*
X157522931Y-73964228D02*
X157551503Y-74078514D01*
X157551503Y-74078514D02*
X157551503Y-74164228D01*
X157551503Y-74164228D02*
X157522931Y-74278514D01*
X157522931Y-74278514D02*
X157494360Y-74335657D01*
X157494360Y-74335657D02*
X157437217Y-74392800D01*
X157437217Y-74392800D02*
X157351503Y-74421371D01*
X157351503Y-74421371D02*
X157208646Y-74421371D01*
X158151503Y-74364228D02*
X158122931Y-74392800D01*
X158122931Y-74392800D02*
X158037217Y-74421371D01*
X158037217Y-74421371D02*
X157980074Y-74421371D01*
X157980074Y-74421371D02*
X157894360Y-74392800D01*
X157894360Y-74392800D02*
X157837217Y-74335657D01*
X157837217Y-74335657D02*
X157808646Y-74278514D01*
X157808646Y-74278514D02*
X157780074Y-74164228D01*
X157780074Y-74164228D02*
X157780074Y-74078514D01*
X157780074Y-74078514D02*
X157808646Y-73964228D01*
X157808646Y-73964228D02*
X157837217Y-73907085D01*
X157837217Y-73907085D02*
X157894360Y-73849942D01*
X157894360Y-73849942D02*
X157980074Y-73821371D01*
X157980074Y-73821371D02*
X158037217Y-73821371D01*
X158037217Y-73821371D02*
X158122931Y-73849942D01*
X158122931Y-73849942D02*
X158151503Y-73878514D01*
X139651503Y-88821371D02*
X139794360Y-89421371D01*
X139794360Y-89421371D02*
X139908646Y-88992800D01*
X139908646Y-88992800D02*
X140022931Y-89421371D01*
X140022931Y-89421371D02*
X140165789Y-88821371D01*
X140737217Y-89421371D02*
X140537217Y-89135657D01*
X140394360Y-89421371D02*
X140394360Y-88821371D01*
X140394360Y-88821371D02*
X140622931Y-88821371D01*
X140622931Y-88821371D02*
X140680074Y-88849942D01*
X140680074Y-88849942D02*
X140708645Y-88878514D01*
X140708645Y-88878514D02*
X140737217Y-88935657D01*
X140737217Y-88935657D02*
X140737217Y-89021371D01*
X140737217Y-89021371D02*
X140708645Y-89078514D01*
X140708645Y-89078514D02*
X140680074Y-89107085D01*
X140680074Y-89107085D02*
X140622931Y-89135657D01*
X140622931Y-89135657D02*
X140394360Y-89135657D01*
X140937217Y-88821371D02*
X141337217Y-89421371D01*
X141337217Y-88821371D02*
X140937217Y-89421371D01*
X139708646Y-86421371D02*
X139708646Y-85821371D01*
X139708646Y-85821371D02*
X139851503Y-85821371D01*
X139851503Y-85821371D02*
X139937217Y-85849942D01*
X139937217Y-85849942D02*
X139994360Y-85907085D01*
X139994360Y-85907085D02*
X140022931Y-85964228D01*
X140022931Y-85964228D02*
X140051503Y-86078514D01*
X140051503Y-86078514D02*
X140051503Y-86164228D01*
X140051503Y-86164228D02*
X140022931Y-86278514D01*
X140022931Y-86278514D02*
X139994360Y-86335657D01*
X139994360Y-86335657D02*
X139937217Y-86392800D01*
X139937217Y-86392800D02*
X139851503Y-86421371D01*
X139851503Y-86421371D02*
X139708646Y-86421371D01*
X140594360Y-85821371D02*
X140308646Y-85821371D01*
X140308646Y-85821371D02*
X140280074Y-86107085D01*
X140280074Y-86107085D02*
X140308646Y-86078514D01*
X140308646Y-86078514D02*
X140365789Y-86049942D01*
X140365789Y-86049942D02*
X140508646Y-86049942D01*
X140508646Y-86049942D02*
X140565789Y-86078514D01*
X140565789Y-86078514D02*
X140594360Y-86107085D01*
X140594360Y-86107085D02*
X140622931Y-86164228D01*
X140622931Y-86164228D02*
X140622931Y-86307085D01*
X140622931Y-86307085D02*
X140594360Y-86364228D01*
X140594360Y-86364228D02*
X140565789Y-86392800D01*
X140565789Y-86392800D02*
X140508646Y-86421371D01*
X140508646Y-86421371D02*
X140365789Y-86421371D01*
X140365789Y-86421371D02*
X140308646Y-86392800D01*
X140308646Y-86392800D02*
X140280074Y-86364228D01*
X139708646Y-83421371D02*
X139708646Y-82821371D01*
X139708646Y-82821371D02*
X139851503Y-82821371D01*
X139851503Y-82821371D02*
X139937217Y-82849942D01*
X139937217Y-82849942D02*
X139994360Y-82907085D01*
X139994360Y-82907085D02*
X140022931Y-82964228D01*
X140022931Y-82964228D02*
X140051503Y-83078514D01*
X140051503Y-83078514D02*
X140051503Y-83164228D01*
X140051503Y-83164228D02*
X140022931Y-83278514D01*
X140022931Y-83278514D02*
X139994360Y-83335657D01*
X139994360Y-83335657D02*
X139937217Y-83392800D01*
X139937217Y-83392800D02*
X139851503Y-83421371D01*
X139851503Y-83421371D02*
X139708646Y-83421371D01*
X140565789Y-82821371D02*
X140451503Y-82821371D01*
X140451503Y-82821371D02*
X140394360Y-82849942D01*
X140394360Y-82849942D02*
X140365789Y-82878514D01*
X140365789Y-82878514D02*
X140308646Y-82964228D01*
X140308646Y-82964228D02*
X140280074Y-83078514D01*
X140280074Y-83078514D02*
X140280074Y-83307085D01*
X140280074Y-83307085D02*
X140308646Y-83364228D01*
X140308646Y-83364228D02*
X140337217Y-83392800D01*
X140337217Y-83392800D02*
X140394360Y-83421371D01*
X140394360Y-83421371D02*
X140508646Y-83421371D01*
X140508646Y-83421371D02*
X140565789Y-83392800D01*
X140565789Y-83392800D02*
X140594360Y-83364228D01*
X140594360Y-83364228D02*
X140622931Y-83307085D01*
X140622931Y-83307085D02*
X140622931Y-83164228D01*
X140622931Y-83164228D02*
X140594360Y-83107085D01*
X140594360Y-83107085D02*
X140565789Y-83078514D01*
X140565789Y-83078514D02*
X140508646Y-83049942D01*
X140508646Y-83049942D02*
X140394360Y-83049942D01*
X140394360Y-83049942D02*
X140337217Y-83078514D01*
X140337217Y-83078514D02*
X140308646Y-83107085D01*
X140308646Y-83107085D02*
X140280074Y-83164228D01*
X139708646Y-80421371D02*
X139708646Y-79821371D01*
X139708646Y-79821371D02*
X139851503Y-79821371D01*
X139851503Y-79821371D02*
X139937217Y-79849942D01*
X139937217Y-79849942D02*
X139994360Y-79907085D01*
X139994360Y-79907085D02*
X140022931Y-79964228D01*
X140022931Y-79964228D02*
X140051503Y-80078514D01*
X140051503Y-80078514D02*
X140051503Y-80164228D01*
X140051503Y-80164228D02*
X140022931Y-80278514D01*
X140022931Y-80278514D02*
X139994360Y-80335657D01*
X139994360Y-80335657D02*
X139937217Y-80392800D01*
X139937217Y-80392800D02*
X139851503Y-80421371D01*
X139851503Y-80421371D02*
X139708646Y-80421371D01*
X140251503Y-79821371D02*
X140651503Y-79821371D01*
X140651503Y-79821371D02*
X140394360Y-80421371D01*
X139622931Y-76821371D02*
X139822931Y-77421371D01*
X139822931Y-77421371D02*
X140022931Y-76821371D01*
X140565789Y-77364228D02*
X140537217Y-77392800D01*
X140537217Y-77392800D02*
X140451503Y-77421371D01*
X140451503Y-77421371D02*
X140394360Y-77421371D01*
X140394360Y-77421371D02*
X140308646Y-77392800D01*
X140308646Y-77392800D02*
X140251503Y-77335657D01*
X140251503Y-77335657D02*
X140222932Y-77278514D01*
X140222932Y-77278514D02*
X140194360Y-77164228D01*
X140194360Y-77164228D02*
X140194360Y-77078514D01*
X140194360Y-77078514D02*
X140222932Y-76964228D01*
X140222932Y-76964228D02*
X140251503Y-76907085D01*
X140251503Y-76907085D02*
X140308646Y-76849942D01*
X140308646Y-76849942D02*
X140394360Y-76821371D01*
X140394360Y-76821371D02*
X140451503Y-76821371D01*
X140451503Y-76821371D02*
X140537217Y-76849942D01*
X140537217Y-76849942D02*
X140565789Y-76878514D01*
X141165789Y-77364228D02*
X141137217Y-77392800D01*
X141137217Y-77392800D02*
X141051503Y-77421371D01*
X141051503Y-77421371D02*
X140994360Y-77421371D01*
X140994360Y-77421371D02*
X140908646Y-77392800D01*
X140908646Y-77392800D02*
X140851503Y-77335657D01*
X140851503Y-77335657D02*
X140822932Y-77278514D01*
X140822932Y-77278514D02*
X140794360Y-77164228D01*
X140794360Y-77164228D02*
X140794360Y-77078514D01*
X140794360Y-77078514D02*
X140822932Y-76964228D01*
X140822932Y-76964228D02*
X140851503Y-76907085D01*
X140851503Y-76907085D02*
X140908646Y-76849942D01*
X140908646Y-76849942D02*
X140994360Y-76821371D01*
X140994360Y-76821371D02*
X141051503Y-76821371D01*
X141051503Y-76821371D02*
X141137217Y-76849942D01*
X141137217Y-76849942D02*
X141165789Y-76878514D01*
X140022931Y-73849942D02*
X139965789Y-73821371D01*
X139965789Y-73821371D02*
X139880074Y-73821371D01*
X139880074Y-73821371D02*
X139794360Y-73849942D01*
X139794360Y-73849942D02*
X139737217Y-73907085D01*
X139737217Y-73907085D02*
X139708646Y-73964228D01*
X139708646Y-73964228D02*
X139680074Y-74078514D01*
X139680074Y-74078514D02*
X139680074Y-74164228D01*
X139680074Y-74164228D02*
X139708646Y-74278514D01*
X139708646Y-74278514D02*
X139737217Y-74335657D01*
X139737217Y-74335657D02*
X139794360Y-74392800D01*
X139794360Y-74392800D02*
X139880074Y-74421371D01*
X139880074Y-74421371D02*
X139937217Y-74421371D01*
X139937217Y-74421371D02*
X140022931Y-74392800D01*
X140022931Y-74392800D02*
X140051503Y-74364228D01*
X140051503Y-74364228D02*
X140051503Y-74164228D01*
X140051503Y-74164228D02*
X139937217Y-74164228D01*
X140308646Y-74421371D02*
X140308646Y-73821371D01*
X140308646Y-73821371D02*
X140651503Y-74421371D01*
X140651503Y-74421371D02*
X140651503Y-73821371D01*
X140937217Y-74421371D02*
X140937217Y-73821371D01*
X140937217Y-73821371D02*
X141080074Y-73821371D01*
X141080074Y-73821371D02*
X141165788Y-73849942D01*
X141165788Y-73849942D02*
X141222931Y-73907085D01*
X141222931Y-73907085D02*
X141251502Y-73964228D01*
X141251502Y-73964228D02*
X141280074Y-74078514D01*
X141280074Y-74078514D02*
X141280074Y-74164228D01*
X141280074Y-74164228D02*
X141251502Y-74278514D01*
X141251502Y-74278514D02*
X141222931Y-74335657D01*
X141222931Y-74335657D02*
X141165788Y-74392800D01*
X141165788Y-74392800D02*
X141080074Y-74421371D01*
X141080074Y-74421371D02*
X140937217Y-74421371D01*
X148238095Y-79957419D02*
X148238095Y-78957419D01*
X148238095Y-79433609D02*
X148809523Y-79433609D01*
X148809523Y-79957419D02*
X148809523Y-78957419D01*
X149190476Y-78957419D02*
X149809523Y-78957419D01*
X149809523Y-78957419D02*
X149476190Y-79338371D01*
X149476190Y-79338371D02*
X149619047Y-79338371D01*
X149619047Y-79338371D02*
X149714285Y-79385990D01*
X149714285Y-79385990D02*
X149761904Y-79433609D01*
X149761904Y-79433609D02*
X149809523Y-79528847D01*
X149809523Y-79528847D02*
X149809523Y-79766942D01*
X149809523Y-79766942D02*
X149761904Y-79862180D01*
X149761904Y-79862180D02*
X149714285Y-79909800D01*
X149714285Y-79909800D02*
X149619047Y-79957419D01*
X149619047Y-79957419D02*
X149333333Y-79957419D01*
X149333333Y-79957419D02*
X149238095Y-79909800D01*
X149238095Y-79909800D02*
X149190476Y-79862180D01*
X136666666Y-68957419D02*
X136666666Y-69671704D01*
X136666666Y-69671704D02*
X136619047Y-69814561D01*
X136619047Y-69814561D02*
X136523809Y-69909800D01*
X136523809Y-69909800D02*
X136380952Y-69957419D01*
X136380952Y-69957419D02*
X136285714Y-69957419D01*
X137666666Y-69957419D02*
X137095238Y-69957419D01*
X137380952Y-69957419D02*
X137380952Y-68957419D01*
X137380952Y-68957419D02*
X137285714Y-69100276D01*
X137285714Y-69100276D02*
X137190476Y-69195514D01*
X137190476Y-69195514D02*
X137095238Y-69243133D01*
%TO.C,J1*%
X137500000Y-61872000D02*
X137500000Y-67072000D01*
X137500000Y-61872000D02*
X138000000Y-61872000D01*
X137500000Y-67072000D02*
X138000000Y-67072000D01*
X159900000Y-61872000D02*
X160500000Y-61872000D01*
X160500000Y-61872000D02*
X160500000Y-67072000D01*
X160500000Y-67072000D02*
X159900000Y-67072000D01*
D11*
X137825000Y-67672000D02*
G75*
G02*
X137575000Y-67672000I-125000J0D01*
G01*
X137575000Y-67672000D02*
G75*
G02*
X137825000Y-67672000I125000J0D01*
G01*
%TD*%
M02*
