%TF.GenerationSoftware,KiCad,Pcbnew,8.0.3*%
%TF.CreationDate,2024-07-14T16:13:23+03:00*%
%TF.ProjectId,TFT_Adapter,5446545f-4164-4617-9074-65722e6b6963,rev?*%
%TF.SameCoordinates,Original*%
%TF.FileFunction,Soldermask,Top*%
%TF.FilePolarity,Negative*%
%FSLAX46Y46*%
G04 Gerber Fmt 4.6, Leading zero omitted, Abs format (unit mm)*
G04 Created by KiCad (PCBNEW 8.0.3) date 2024-07-14 16:13:23*
%MOMM*%
%LPD*%
G01*
G04 APERTURE LIST*
G04 Aperture macros list*
%AMRoundRect*
0 Rectangle with rounded corners*
0 $1 Rounding radius*
0 $2 $3 $4 $5 $6 $7 $8 $9 X,Y pos of 4 corners*
0 Add a 4 corners polygon primitive as box body*
4,1,4,$2,$3,$4,$5,$6,$7,$8,$9,$2,$3,0*
0 Add four circle primitives for the rounded corners*
1,1,$1+$1,$2,$3*
1,1,$1+$1,$4,$5*
1,1,$1+$1,$6,$7*
1,1,$1+$1,$8,$9*
0 Add four rect primitives between the rounded corners*
20,1,$1+$1,$2,$3,$4,$5,0*
20,1,$1+$1,$4,$5,$6,$7,0*
20,1,$1+$1,$6,$7,$8,$9,0*
20,1,$1+$1,$8,$9,$2,$3,0*%
G04 Aperture macros list end*
%ADD10C,2.200000*%
%ADD11RoundRect,0.250000X-0.750000X-0.250000X0.750000X-0.250000X0.750000X0.250000X-0.750000X0.250000X0*%
%ADD12C,1.000000*%
%ADD13RoundRect,0.255000X-0.255000X-0.635000X0.255000X-0.635000X0.255000X0.635000X-0.255000X0.635000X0*%
G04 APERTURE END LIST*
D10*
%TO.C,H2*%
X160390000Y-98690000D03*
%TD*%
%TO.C,H1*%
X137610000Y-98690000D03*
%TD*%
D11*
%TO.C,PAD12*%
X160000000Y-74000000D03*
%TD*%
%TO.C,PAD11*%
X160000000Y-77000000D03*
%TD*%
%TO.C,PAD10*%
X160000000Y-80000000D03*
%TD*%
%TO.C,PAD9*%
X160000000Y-83000000D03*
%TD*%
%TO.C,PAD8*%
X160000000Y-86000000D03*
%TD*%
%TO.C,PAD7*%
X160000000Y-89000000D03*
%TD*%
%TO.C,PAD6*%
X138000000Y-89000000D03*
%TD*%
%TO.C,PAD5*%
X138000000Y-86000000D03*
%TD*%
%TO.C,PAD4*%
X138000000Y-83000000D03*
%TD*%
%TO.C,PAD3*%
X138000000Y-80000000D03*
%TD*%
%TO.C,PAD2*%
X138000000Y-77000000D03*
%TD*%
%TO.C,PAD1*%
X138000000Y-74000000D03*
%TD*%
D12*
%TO.C,J1*%
X138840000Y-63202000D03*
X138840000Y-65742000D03*
X140110000Y-64472000D03*
X141380000Y-63202000D03*
X141380000Y-65742000D03*
X143920000Y-63202000D03*
X143920000Y-65742000D03*
X146460000Y-63202000D03*
X146460000Y-65742000D03*
X149000000Y-63202000D03*
X149000000Y-65742000D03*
X151540000Y-63202000D03*
X151540000Y-65742000D03*
X154080000Y-63202000D03*
X154080000Y-65742000D03*
X156620000Y-63202000D03*
X156620000Y-65742000D03*
X157890000Y-64472000D03*
X159160000Y-63202000D03*
X159160000Y-65742000D03*
D13*
X138840000Y-67382000D03*
X138840000Y-61562000D03*
X141380000Y-67382000D03*
X141380000Y-61562000D03*
X143920000Y-67382000D03*
X143920000Y-61562000D03*
X146460000Y-67382000D03*
X146460000Y-61562000D03*
X149000000Y-67382000D03*
X149000000Y-61562000D03*
X151540000Y-67382000D03*
X151540000Y-61562000D03*
X154080000Y-67382000D03*
X154080000Y-61562000D03*
X156620000Y-67382000D03*
X156620000Y-61562000D03*
X159160000Y-67382000D03*
X159160000Y-61562000D03*
%TD*%
M02*
