%TF.GenerationSoftware,KiCad,Pcbnew,8.0.3*%
%TF.CreationDate,2024-07-14T16:13:25+03:00*%
%TF.ProjectId,TFT_Adapter,5446545f-4164-4617-9074-65722e6b6963,rev?*%
%TF.SameCoordinates,Original*%
%TF.FileFunction,Drillmap*%
%TF.FilePolarity,Positive*%
%FSLAX45Y45*%
G04 Gerber Fmt 4.5, Leading zero omitted, Abs format (unit mm)*
G04 Created by KiCad (PCBNEW 8.0.3) date 2024-07-14 16:13:25*
%MOMM*%
%LPD*%
G01*
G04 APERTURE LIST*
%ADD10C,0.050000*%
%ADD11C,0.200000*%
%ADD12C,0.102000*%
%ADD13C,0.180000*%
%ADD14C,0.220000*%
%ADD15C,1.200000*%
G04 APERTURE END LIST*
D10*
X13500000Y-5900000D02*
X16300000Y-5900000D01*
X16300000Y-10100000D01*
X13500000Y-10100000D01*
X13500000Y-5900000D01*
D11*
D12*
X13833000Y-6269200D02*
X13935000Y-6371200D01*
X13935000Y-6269200D02*
X13833000Y-6371200D01*
X13833000Y-6523200D02*
X13935000Y-6625200D01*
X13935000Y-6523200D02*
X13833000Y-6625200D01*
X14087000Y-6269200D02*
X14189000Y-6371200D01*
X14189000Y-6269200D02*
X14087000Y-6371200D01*
X14087000Y-6523200D02*
X14189000Y-6625200D01*
X14189000Y-6523200D02*
X14087000Y-6625200D01*
X14341000Y-6269200D02*
X14443000Y-6371200D01*
X14443000Y-6269200D02*
X14341000Y-6371200D01*
X14341000Y-6523200D02*
X14443000Y-6625200D01*
X14443000Y-6523200D02*
X14341000Y-6625200D01*
X14595000Y-6269200D02*
X14697000Y-6371200D01*
X14697000Y-6269200D02*
X14595000Y-6371200D01*
X14595000Y-6523200D02*
X14697000Y-6625200D01*
X14697000Y-6523200D02*
X14595000Y-6625200D01*
X14849000Y-6269200D02*
X14951000Y-6371200D01*
X14951000Y-6269200D02*
X14849000Y-6371200D01*
X14849000Y-6523200D02*
X14951000Y-6625200D01*
X14951000Y-6523200D02*
X14849000Y-6625200D01*
X15103000Y-6269200D02*
X15205000Y-6371200D01*
X15205000Y-6269200D02*
X15103000Y-6371200D01*
X15103000Y-6523200D02*
X15205000Y-6625200D01*
X15205000Y-6523200D02*
X15103000Y-6625200D01*
X15357000Y-6269200D02*
X15459000Y-6371200D01*
X15459000Y-6269200D02*
X15357000Y-6371200D01*
X15357000Y-6523200D02*
X15459000Y-6625200D01*
X15459000Y-6523200D02*
X15357000Y-6625200D01*
X15611000Y-6269200D02*
X15713000Y-6371200D01*
X15713000Y-6269200D02*
X15611000Y-6371200D01*
X15611000Y-6523200D02*
X15713000Y-6625200D01*
X15713000Y-6523200D02*
X15611000Y-6625200D01*
X15865000Y-6269200D02*
X15967000Y-6371200D01*
X15967000Y-6269200D02*
X15865000Y-6371200D01*
X15865000Y-6523200D02*
X15967000Y-6625200D01*
X15967000Y-6523200D02*
X15865000Y-6625200D01*
D13*
X14101000Y-6447200D02*
G75*
G02*
X13921000Y-6447200I-90000J0D01*
G01*
X13921000Y-6447200D02*
G75*
G02*
X14101000Y-6447200I90000J0D01*
G01*
X15879000Y-6447200D02*
G75*
G02*
X15699000Y-6447200I-90000J0D01*
G01*
X15699000Y-6447200D02*
G75*
G02*
X15879000Y-6447200I90000J0D01*
G01*
D14*
X13761000Y-9759000D02*
X13761000Y-9979000D01*
X13651000Y-9869000D02*
X13871000Y-9869000D01*
X16039000Y-9759000D02*
X16039000Y-9979000D01*
X15929000Y-9869000D02*
X16149000Y-9869000D01*
D15*
X15324268Y-8424268D02*
X15324268Y-7575732D01*
X14475732Y-7575732D01*
X14475732Y-8424268D01*
X15324268Y-8424268D01*
D11*
X13758277Y-10413984D02*
X13758277Y-10213984D01*
X13758277Y-10213984D02*
X13805896Y-10213984D01*
X13805896Y-10213984D02*
X13834467Y-10223508D01*
X13834467Y-10223508D02*
X13853515Y-10242555D01*
X13853515Y-10242555D02*
X13863039Y-10261603D01*
X13863039Y-10261603D02*
X13872562Y-10299698D01*
X13872562Y-10299698D02*
X13872562Y-10328270D01*
X13872562Y-10328270D02*
X13863039Y-10366365D01*
X13863039Y-10366365D02*
X13853515Y-10385412D01*
X13853515Y-10385412D02*
X13834467Y-10404460D01*
X13834467Y-10404460D02*
X13805896Y-10413984D01*
X13805896Y-10413984D02*
X13758277Y-10413984D01*
X13958277Y-10413984D02*
X13958277Y-10280650D01*
X13958277Y-10318746D02*
X13967801Y-10299698D01*
X13967801Y-10299698D02*
X13977324Y-10290174D01*
X13977324Y-10290174D02*
X13996372Y-10280650D01*
X13996372Y-10280650D02*
X14015420Y-10280650D01*
X14082086Y-10413984D02*
X14082086Y-10280650D01*
X14082086Y-10213984D02*
X14072562Y-10223508D01*
X14072562Y-10223508D02*
X14082086Y-10233031D01*
X14082086Y-10233031D02*
X14091610Y-10223508D01*
X14091610Y-10223508D02*
X14082086Y-10213984D01*
X14082086Y-10213984D02*
X14082086Y-10233031D01*
X14205896Y-10413984D02*
X14186848Y-10404460D01*
X14186848Y-10404460D02*
X14177324Y-10385412D01*
X14177324Y-10385412D02*
X14177324Y-10213984D01*
X14310658Y-10413984D02*
X14291610Y-10404460D01*
X14291610Y-10404460D02*
X14282086Y-10385412D01*
X14282086Y-10385412D02*
X14282086Y-10213984D01*
X14539229Y-10413984D02*
X14539229Y-10213984D01*
X14539229Y-10213984D02*
X14605896Y-10356841D01*
X14605896Y-10356841D02*
X14672562Y-10213984D01*
X14672562Y-10213984D02*
X14672562Y-10413984D01*
X14853515Y-10413984D02*
X14853515Y-10309222D01*
X14853515Y-10309222D02*
X14843991Y-10290174D01*
X14843991Y-10290174D02*
X14824943Y-10280650D01*
X14824943Y-10280650D02*
X14786848Y-10280650D01*
X14786848Y-10280650D02*
X14767801Y-10290174D01*
X14853515Y-10404460D02*
X14834467Y-10413984D01*
X14834467Y-10413984D02*
X14786848Y-10413984D01*
X14786848Y-10413984D02*
X14767801Y-10404460D01*
X14767801Y-10404460D02*
X14758277Y-10385412D01*
X14758277Y-10385412D02*
X14758277Y-10366365D01*
X14758277Y-10366365D02*
X14767801Y-10347317D01*
X14767801Y-10347317D02*
X14786848Y-10337793D01*
X14786848Y-10337793D02*
X14834467Y-10337793D01*
X14834467Y-10337793D02*
X14853515Y-10328270D01*
X14948753Y-10280650D02*
X14948753Y-10480650D01*
X14948753Y-10290174D02*
X14967801Y-10280650D01*
X14967801Y-10280650D02*
X15005896Y-10280650D01*
X15005896Y-10280650D02*
X15024943Y-10290174D01*
X15024943Y-10290174D02*
X15034467Y-10299698D01*
X15034467Y-10299698D02*
X15043991Y-10318746D01*
X15043991Y-10318746D02*
X15043991Y-10375889D01*
X15043991Y-10375889D02*
X15034467Y-10394936D01*
X15034467Y-10394936D02*
X15024943Y-10404460D01*
X15024943Y-10404460D02*
X15005896Y-10413984D01*
X15005896Y-10413984D02*
X14967801Y-10413984D01*
X14967801Y-10413984D02*
X14948753Y-10404460D01*
X15129705Y-10394936D02*
X15139229Y-10404460D01*
X15139229Y-10404460D02*
X15129705Y-10413984D01*
X15129705Y-10413984D02*
X15120182Y-10404460D01*
X15120182Y-10404460D02*
X15129705Y-10394936D01*
X15129705Y-10394936D02*
X15129705Y-10413984D01*
X15129705Y-10290174D02*
X15139229Y-10299698D01*
X15139229Y-10299698D02*
X15129705Y-10309222D01*
X15129705Y-10309222D02*
X15120182Y-10299698D01*
X15120182Y-10299698D02*
X15129705Y-10290174D01*
X15129705Y-10290174D02*
X15129705Y-10309222D01*
D12*
X13395500Y-10691500D02*
X13497500Y-10793500D01*
X13497500Y-10691500D02*
X13395500Y-10793500D01*
D11*
X13863039Y-10833984D02*
X13748753Y-10833984D01*
X13805896Y-10833984D02*
X13805896Y-10633984D01*
X13805896Y-10633984D02*
X13786848Y-10662555D01*
X13786848Y-10662555D02*
X13767801Y-10681603D01*
X13767801Y-10681603D02*
X13748753Y-10691127D01*
X13948753Y-10814936D02*
X13958277Y-10824460D01*
X13958277Y-10824460D02*
X13948753Y-10833984D01*
X13948753Y-10833984D02*
X13939229Y-10824460D01*
X13939229Y-10824460D02*
X13948753Y-10814936D01*
X13948753Y-10814936D02*
X13948753Y-10833984D01*
X14082086Y-10633984D02*
X14101134Y-10633984D01*
X14101134Y-10633984D02*
X14120182Y-10643508D01*
X14120182Y-10643508D02*
X14129705Y-10653031D01*
X14129705Y-10653031D02*
X14139229Y-10672079D01*
X14139229Y-10672079D02*
X14148753Y-10710174D01*
X14148753Y-10710174D02*
X14148753Y-10757793D01*
X14148753Y-10757793D02*
X14139229Y-10795889D01*
X14139229Y-10795889D02*
X14129705Y-10814936D01*
X14129705Y-10814936D02*
X14120182Y-10824460D01*
X14120182Y-10824460D02*
X14101134Y-10833984D01*
X14101134Y-10833984D02*
X14082086Y-10833984D01*
X14082086Y-10833984D02*
X14063039Y-10824460D01*
X14063039Y-10824460D02*
X14053515Y-10814936D01*
X14053515Y-10814936D02*
X14043991Y-10795889D01*
X14043991Y-10795889D02*
X14034467Y-10757793D01*
X14034467Y-10757793D02*
X14034467Y-10710174D01*
X14034467Y-10710174D02*
X14043991Y-10672079D01*
X14043991Y-10672079D02*
X14053515Y-10653031D01*
X14053515Y-10653031D02*
X14063039Y-10643508D01*
X14063039Y-10643508D02*
X14082086Y-10633984D01*
X14224943Y-10653031D02*
X14234467Y-10643508D01*
X14234467Y-10643508D02*
X14253515Y-10633984D01*
X14253515Y-10633984D02*
X14301134Y-10633984D01*
X14301134Y-10633984D02*
X14320182Y-10643508D01*
X14320182Y-10643508D02*
X14329705Y-10653031D01*
X14329705Y-10653031D02*
X14339229Y-10672079D01*
X14339229Y-10672079D02*
X14339229Y-10691127D01*
X14339229Y-10691127D02*
X14329705Y-10719698D01*
X14329705Y-10719698D02*
X14215420Y-10833984D01*
X14215420Y-10833984D02*
X14339229Y-10833984D01*
X14463039Y-10633984D02*
X14482086Y-10633984D01*
X14482086Y-10633984D02*
X14501134Y-10643508D01*
X14501134Y-10643508D02*
X14510658Y-10653031D01*
X14510658Y-10653031D02*
X14520182Y-10672079D01*
X14520182Y-10672079D02*
X14529705Y-10710174D01*
X14529705Y-10710174D02*
X14529705Y-10757793D01*
X14529705Y-10757793D02*
X14520182Y-10795889D01*
X14520182Y-10795889D02*
X14510658Y-10814936D01*
X14510658Y-10814936D02*
X14501134Y-10824460D01*
X14501134Y-10824460D02*
X14482086Y-10833984D01*
X14482086Y-10833984D02*
X14463039Y-10833984D01*
X14463039Y-10833984D02*
X14443991Y-10824460D01*
X14443991Y-10824460D02*
X14434467Y-10814936D01*
X14434467Y-10814936D02*
X14424943Y-10795889D01*
X14424943Y-10795889D02*
X14415420Y-10757793D01*
X14415420Y-10757793D02*
X14415420Y-10710174D01*
X14415420Y-10710174D02*
X14424943Y-10672079D01*
X14424943Y-10672079D02*
X14434467Y-10653031D01*
X14434467Y-10653031D02*
X14443991Y-10643508D01*
X14443991Y-10643508D02*
X14463039Y-10633984D01*
X14615420Y-10833984D02*
X14615420Y-10700650D01*
X14615420Y-10719698D02*
X14624943Y-10710174D01*
X14624943Y-10710174D02*
X14643991Y-10700650D01*
X14643991Y-10700650D02*
X14672563Y-10700650D01*
X14672563Y-10700650D02*
X14691610Y-10710174D01*
X14691610Y-10710174D02*
X14701134Y-10729222D01*
X14701134Y-10729222D02*
X14701134Y-10833984D01*
X14701134Y-10729222D02*
X14710658Y-10710174D01*
X14710658Y-10710174D02*
X14729705Y-10700650D01*
X14729705Y-10700650D02*
X14758277Y-10700650D01*
X14758277Y-10700650D02*
X14777324Y-10710174D01*
X14777324Y-10710174D02*
X14786848Y-10729222D01*
X14786848Y-10729222D02*
X14786848Y-10833984D01*
X14882086Y-10833984D02*
X14882086Y-10700650D01*
X14882086Y-10719698D02*
X14891610Y-10710174D01*
X14891610Y-10710174D02*
X14910658Y-10700650D01*
X14910658Y-10700650D02*
X14939229Y-10700650D01*
X14939229Y-10700650D02*
X14958277Y-10710174D01*
X14958277Y-10710174D02*
X14967801Y-10729222D01*
X14967801Y-10729222D02*
X14967801Y-10833984D01*
X14967801Y-10729222D02*
X14977324Y-10710174D01*
X14977324Y-10710174D02*
X14996372Y-10700650D01*
X14996372Y-10700650D02*
X15024943Y-10700650D01*
X15024943Y-10700650D02*
X15043991Y-10710174D01*
X15043991Y-10710174D02*
X15053515Y-10729222D01*
X15053515Y-10729222D02*
X15053515Y-10833984D01*
X15443991Y-10624460D02*
X15272563Y-10881603D01*
X15701134Y-10633984D02*
X15720182Y-10633984D01*
X15720182Y-10633984D02*
X15739229Y-10643508D01*
X15739229Y-10643508D02*
X15748753Y-10653031D01*
X15748753Y-10653031D02*
X15758277Y-10672079D01*
X15758277Y-10672079D02*
X15767801Y-10710174D01*
X15767801Y-10710174D02*
X15767801Y-10757793D01*
X15767801Y-10757793D02*
X15758277Y-10795889D01*
X15758277Y-10795889D02*
X15748753Y-10814936D01*
X15748753Y-10814936D02*
X15739229Y-10824460D01*
X15739229Y-10824460D02*
X15720182Y-10833984D01*
X15720182Y-10833984D02*
X15701134Y-10833984D01*
X15701134Y-10833984D02*
X15682086Y-10824460D01*
X15682086Y-10824460D02*
X15672563Y-10814936D01*
X15672563Y-10814936D02*
X15663039Y-10795889D01*
X15663039Y-10795889D02*
X15653515Y-10757793D01*
X15653515Y-10757793D02*
X15653515Y-10710174D01*
X15653515Y-10710174D02*
X15663039Y-10672079D01*
X15663039Y-10672079D02*
X15672563Y-10653031D01*
X15672563Y-10653031D02*
X15682086Y-10643508D01*
X15682086Y-10643508D02*
X15701134Y-10633984D01*
X15853515Y-10814936D02*
X15863039Y-10824460D01*
X15863039Y-10824460D02*
X15853515Y-10833984D01*
X15853515Y-10833984D02*
X15843991Y-10824460D01*
X15843991Y-10824460D02*
X15853515Y-10814936D01*
X15853515Y-10814936D02*
X15853515Y-10833984D01*
X15986848Y-10633984D02*
X16005896Y-10633984D01*
X16005896Y-10633984D02*
X16024944Y-10643508D01*
X16024944Y-10643508D02*
X16034467Y-10653031D01*
X16034467Y-10653031D02*
X16043991Y-10672079D01*
X16043991Y-10672079D02*
X16053515Y-10710174D01*
X16053515Y-10710174D02*
X16053515Y-10757793D01*
X16053515Y-10757793D02*
X16043991Y-10795889D01*
X16043991Y-10795889D02*
X16034467Y-10814936D01*
X16034467Y-10814936D02*
X16024944Y-10824460D01*
X16024944Y-10824460D02*
X16005896Y-10833984D01*
X16005896Y-10833984D02*
X15986848Y-10833984D01*
X15986848Y-10833984D02*
X15967801Y-10824460D01*
X15967801Y-10824460D02*
X15958277Y-10814936D01*
X15958277Y-10814936D02*
X15948753Y-10795889D01*
X15948753Y-10795889D02*
X15939229Y-10757793D01*
X15939229Y-10757793D02*
X15939229Y-10710174D01*
X15939229Y-10710174D02*
X15948753Y-10672079D01*
X15948753Y-10672079D02*
X15958277Y-10653031D01*
X15958277Y-10653031D02*
X15967801Y-10643508D01*
X15967801Y-10643508D02*
X15986848Y-10633984D01*
X16224944Y-10700650D02*
X16224944Y-10833984D01*
X16177325Y-10624460D02*
X16129706Y-10767317D01*
X16129706Y-10767317D02*
X16253515Y-10767317D01*
X16367801Y-10633984D02*
X16386848Y-10633984D01*
X16386848Y-10633984D02*
X16405896Y-10643508D01*
X16405896Y-10643508D02*
X16415420Y-10653031D01*
X16415420Y-10653031D02*
X16424944Y-10672079D01*
X16424944Y-10672079D02*
X16434467Y-10710174D01*
X16434467Y-10710174D02*
X16434467Y-10757793D01*
X16434467Y-10757793D02*
X16424944Y-10795889D01*
X16424944Y-10795889D02*
X16415420Y-10814936D01*
X16415420Y-10814936D02*
X16405896Y-10824460D01*
X16405896Y-10824460D02*
X16386848Y-10833984D01*
X16386848Y-10833984D02*
X16367801Y-10833984D01*
X16367801Y-10833984D02*
X16348753Y-10824460D01*
X16348753Y-10824460D02*
X16339229Y-10814936D01*
X16339229Y-10814936D02*
X16329706Y-10795889D01*
X16329706Y-10795889D02*
X16320182Y-10757793D01*
X16320182Y-10757793D02*
X16320182Y-10710174D01*
X16320182Y-10710174D02*
X16329706Y-10672079D01*
X16329706Y-10672079D02*
X16339229Y-10653031D01*
X16339229Y-10653031D02*
X16348753Y-10643508D01*
X16348753Y-10643508D02*
X16367801Y-10633984D01*
X16510658Y-10653031D02*
X16520182Y-10643508D01*
X16520182Y-10643508D02*
X16539229Y-10633984D01*
X16539229Y-10633984D02*
X16586848Y-10633984D01*
X16586848Y-10633984D02*
X16605896Y-10643508D01*
X16605896Y-10643508D02*
X16615420Y-10653031D01*
X16615420Y-10653031D02*
X16624944Y-10672079D01*
X16624944Y-10672079D02*
X16624944Y-10691127D01*
X16624944Y-10691127D02*
X16615420Y-10719698D01*
X16615420Y-10719698D02*
X16501134Y-10833984D01*
X16501134Y-10833984D02*
X16624944Y-10833984D01*
X16701134Y-10633984D02*
X16701134Y-10672079D01*
X16777325Y-10633984D02*
X16777325Y-10672079D01*
X17072563Y-10910174D02*
X17063039Y-10900650D01*
X17063039Y-10900650D02*
X17043991Y-10872079D01*
X17043991Y-10872079D02*
X17034468Y-10853031D01*
X17034468Y-10853031D02*
X17024944Y-10824460D01*
X17024944Y-10824460D02*
X17015420Y-10776841D01*
X17015420Y-10776841D02*
X17015420Y-10738746D01*
X17015420Y-10738746D02*
X17024944Y-10691127D01*
X17024944Y-10691127D02*
X17034468Y-10662555D01*
X17034468Y-10662555D02*
X17043991Y-10643508D01*
X17043991Y-10643508D02*
X17063039Y-10614936D01*
X17063039Y-10614936D02*
X17072563Y-10605412D01*
X17253515Y-10833984D02*
X17139230Y-10833984D01*
X17196372Y-10833984D02*
X17196372Y-10633984D01*
X17196372Y-10633984D02*
X17177325Y-10662555D01*
X17177325Y-10662555D02*
X17158277Y-10681603D01*
X17158277Y-10681603D02*
X17139230Y-10691127D01*
X17367801Y-10719698D02*
X17348753Y-10710174D01*
X17348753Y-10710174D02*
X17339230Y-10700650D01*
X17339230Y-10700650D02*
X17329706Y-10681603D01*
X17329706Y-10681603D02*
X17329706Y-10672079D01*
X17329706Y-10672079D02*
X17339230Y-10653031D01*
X17339230Y-10653031D02*
X17348753Y-10643508D01*
X17348753Y-10643508D02*
X17367801Y-10633984D01*
X17367801Y-10633984D02*
X17405896Y-10633984D01*
X17405896Y-10633984D02*
X17424944Y-10643508D01*
X17424944Y-10643508D02*
X17434468Y-10653031D01*
X17434468Y-10653031D02*
X17443991Y-10672079D01*
X17443991Y-10672079D02*
X17443991Y-10681603D01*
X17443991Y-10681603D02*
X17434468Y-10700650D01*
X17434468Y-10700650D02*
X17424944Y-10710174D01*
X17424944Y-10710174D02*
X17405896Y-10719698D01*
X17405896Y-10719698D02*
X17367801Y-10719698D01*
X17367801Y-10719698D02*
X17348753Y-10729222D01*
X17348753Y-10729222D02*
X17339230Y-10738746D01*
X17339230Y-10738746D02*
X17329706Y-10757793D01*
X17329706Y-10757793D02*
X17329706Y-10795889D01*
X17329706Y-10795889D02*
X17339230Y-10814936D01*
X17339230Y-10814936D02*
X17348753Y-10824460D01*
X17348753Y-10824460D02*
X17367801Y-10833984D01*
X17367801Y-10833984D02*
X17405896Y-10833984D01*
X17405896Y-10833984D02*
X17424944Y-10824460D01*
X17424944Y-10824460D02*
X17434468Y-10814936D01*
X17434468Y-10814936D02*
X17443991Y-10795889D01*
X17443991Y-10795889D02*
X17443991Y-10757793D01*
X17443991Y-10757793D02*
X17434468Y-10738746D01*
X17434468Y-10738746D02*
X17424944Y-10729222D01*
X17424944Y-10729222D02*
X17405896Y-10719698D01*
X17682087Y-10833984D02*
X17682087Y-10633984D01*
X17767801Y-10833984D02*
X17767801Y-10729222D01*
X17767801Y-10729222D02*
X17758277Y-10710174D01*
X17758277Y-10710174D02*
X17739230Y-10700650D01*
X17739230Y-10700650D02*
X17710658Y-10700650D01*
X17710658Y-10700650D02*
X17691611Y-10710174D01*
X17691611Y-10710174D02*
X17682087Y-10719698D01*
X17891611Y-10833984D02*
X17872563Y-10824460D01*
X17872563Y-10824460D02*
X17863039Y-10814936D01*
X17863039Y-10814936D02*
X17853515Y-10795889D01*
X17853515Y-10795889D02*
X17853515Y-10738746D01*
X17853515Y-10738746D02*
X17863039Y-10719698D01*
X17863039Y-10719698D02*
X17872563Y-10710174D01*
X17872563Y-10710174D02*
X17891611Y-10700650D01*
X17891611Y-10700650D02*
X17920182Y-10700650D01*
X17920182Y-10700650D02*
X17939230Y-10710174D01*
X17939230Y-10710174D02*
X17948753Y-10719698D01*
X17948753Y-10719698D02*
X17958277Y-10738746D01*
X17958277Y-10738746D02*
X17958277Y-10795889D01*
X17958277Y-10795889D02*
X17948753Y-10814936D01*
X17948753Y-10814936D02*
X17939230Y-10824460D01*
X17939230Y-10824460D02*
X17920182Y-10833984D01*
X17920182Y-10833984D02*
X17891611Y-10833984D01*
X18072563Y-10833984D02*
X18053515Y-10824460D01*
X18053515Y-10824460D02*
X18043992Y-10805412D01*
X18043992Y-10805412D02*
X18043992Y-10633984D01*
X18224944Y-10824460D02*
X18205896Y-10833984D01*
X18205896Y-10833984D02*
X18167801Y-10833984D01*
X18167801Y-10833984D02*
X18148753Y-10824460D01*
X18148753Y-10824460D02*
X18139230Y-10805412D01*
X18139230Y-10805412D02*
X18139230Y-10729222D01*
X18139230Y-10729222D02*
X18148753Y-10710174D01*
X18148753Y-10710174D02*
X18167801Y-10700650D01*
X18167801Y-10700650D02*
X18205896Y-10700650D01*
X18205896Y-10700650D02*
X18224944Y-10710174D01*
X18224944Y-10710174D02*
X18234468Y-10729222D01*
X18234468Y-10729222D02*
X18234468Y-10748270D01*
X18234468Y-10748270D02*
X18139230Y-10767317D01*
X18310658Y-10824460D02*
X18329706Y-10833984D01*
X18329706Y-10833984D02*
X18367801Y-10833984D01*
X18367801Y-10833984D02*
X18386849Y-10824460D01*
X18386849Y-10824460D02*
X18396373Y-10805412D01*
X18396373Y-10805412D02*
X18396373Y-10795889D01*
X18396373Y-10795889D02*
X18386849Y-10776841D01*
X18386849Y-10776841D02*
X18367801Y-10767317D01*
X18367801Y-10767317D02*
X18339230Y-10767317D01*
X18339230Y-10767317D02*
X18320182Y-10757793D01*
X18320182Y-10757793D02*
X18310658Y-10738746D01*
X18310658Y-10738746D02*
X18310658Y-10729222D01*
X18310658Y-10729222D02*
X18320182Y-10710174D01*
X18320182Y-10710174D02*
X18339230Y-10700650D01*
X18339230Y-10700650D02*
X18367801Y-10700650D01*
X18367801Y-10700650D02*
X18386849Y-10710174D01*
X18463039Y-10910174D02*
X18472563Y-10900650D01*
X18472563Y-10900650D02*
X18491611Y-10872079D01*
X18491611Y-10872079D02*
X18501134Y-10853031D01*
X18501134Y-10853031D02*
X18510658Y-10824460D01*
X18510658Y-10824460D02*
X18520182Y-10776841D01*
X18520182Y-10776841D02*
X18520182Y-10738746D01*
X18520182Y-10738746D02*
X18510658Y-10691127D01*
X18510658Y-10691127D02*
X18501134Y-10662555D01*
X18501134Y-10662555D02*
X18491611Y-10643508D01*
X18491611Y-10643508D02*
X18472563Y-10614936D01*
X18472563Y-10614936D02*
X18463039Y-10605412D01*
X18824944Y-10910174D02*
X18815420Y-10900650D01*
X18815420Y-10900650D02*
X18796373Y-10872079D01*
X18796373Y-10872079D02*
X18786849Y-10853031D01*
X18786849Y-10853031D02*
X18777325Y-10824460D01*
X18777325Y-10824460D02*
X18767801Y-10776841D01*
X18767801Y-10776841D02*
X18767801Y-10738746D01*
X18767801Y-10738746D02*
X18777325Y-10691127D01*
X18777325Y-10691127D02*
X18786849Y-10662555D01*
X18786849Y-10662555D02*
X18796373Y-10643508D01*
X18796373Y-10643508D02*
X18815420Y-10614936D01*
X18815420Y-10614936D02*
X18824944Y-10605412D01*
X18901134Y-10700650D02*
X18901134Y-10833984D01*
X18901134Y-10719698D02*
X18910658Y-10710174D01*
X18910658Y-10710174D02*
X18929706Y-10700650D01*
X18929706Y-10700650D02*
X18958277Y-10700650D01*
X18958277Y-10700650D02*
X18977325Y-10710174D01*
X18977325Y-10710174D02*
X18986849Y-10729222D01*
X18986849Y-10729222D02*
X18986849Y-10833984D01*
X19110658Y-10833984D02*
X19091611Y-10824460D01*
X19091611Y-10824460D02*
X19082087Y-10814936D01*
X19082087Y-10814936D02*
X19072563Y-10795889D01*
X19072563Y-10795889D02*
X19072563Y-10738746D01*
X19072563Y-10738746D02*
X19082087Y-10719698D01*
X19082087Y-10719698D02*
X19091611Y-10710174D01*
X19091611Y-10710174D02*
X19110658Y-10700650D01*
X19110658Y-10700650D02*
X19139230Y-10700650D01*
X19139230Y-10700650D02*
X19158277Y-10710174D01*
X19158277Y-10710174D02*
X19167801Y-10719698D01*
X19167801Y-10719698D02*
X19177325Y-10738746D01*
X19177325Y-10738746D02*
X19177325Y-10795889D01*
X19177325Y-10795889D02*
X19167801Y-10814936D01*
X19167801Y-10814936D02*
X19158277Y-10824460D01*
X19158277Y-10824460D02*
X19139230Y-10833984D01*
X19139230Y-10833984D02*
X19110658Y-10833984D01*
X19234468Y-10700650D02*
X19310658Y-10700650D01*
X19263039Y-10633984D02*
X19263039Y-10805412D01*
X19263039Y-10805412D02*
X19272563Y-10824460D01*
X19272563Y-10824460D02*
X19291611Y-10833984D01*
X19291611Y-10833984D02*
X19310658Y-10833984D01*
X19529706Y-10700650D02*
X19529706Y-10900650D01*
X19529706Y-10710174D02*
X19548754Y-10700650D01*
X19548754Y-10700650D02*
X19586849Y-10700650D01*
X19586849Y-10700650D02*
X19605896Y-10710174D01*
X19605896Y-10710174D02*
X19615420Y-10719698D01*
X19615420Y-10719698D02*
X19624944Y-10738746D01*
X19624944Y-10738746D02*
X19624944Y-10795889D01*
X19624944Y-10795889D02*
X19615420Y-10814936D01*
X19615420Y-10814936D02*
X19605896Y-10824460D01*
X19605896Y-10824460D02*
X19586849Y-10833984D01*
X19586849Y-10833984D02*
X19548754Y-10833984D01*
X19548754Y-10833984D02*
X19529706Y-10824460D01*
X19739230Y-10833984D02*
X19720182Y-10824460D01*
X19720182Y-10824460D02*
X19710658Y-10805412D01*
X19710658Y-10805412D02*
X19710658Y-10633984D01*
X19901135Y-10833984D02*
X19901135Y-10729222D01*
X19901135Y-10729222D02*
X19891611Y-10710174D01*
X19891611Y-10710174D02*
X19872563Y-10700650D01*
X19872563Y-10700650D02*
X19834468Y-10700650D01*
X19834468Y-10700650D02*
X19815420Y-10710174D01*
X19901135Y-10824460D02*
X19882087Y-10833984D01*
X19882087Y-10833984D02*
X19834468Y-10833984D01*
X19834468Y-10833984D02*
X19815420Y-10824460D01*
X19815420Y-10824460D02*
X19805896Y-10805412D01*
X19805896Y-10805412D02*
X19805896Y-10786365D01*
X19805896Y-10786365D02*
X19815420Y-10767317D01*
X19815420Y-10767317D02*
X19834468Y-10757793D01*
X19834468Y-10757793D02*
X19882087Y-10757793D01*
X19882087Y-10757793D02*
X19901135Y-10748270D01*
X19967801Y-10700650D02*
X20043992Y-10700650D01*
X19996373Y-10633984D02*
X19996373Y-10805412D01*
X19996373Y-10805412D02*
X20005896Y-10824460D01*
X20005896Y-10824460D02*
X20024944Y-10833984D01*
X20024944Y-10833984D02*
X20043992Y-10833984D01*
X20186849Y-10824460D02*
X20167801Y-10833984D01*
X20167801Y-10833984D02*
X20129706Y-10833984D01*
X20129706Y-10833984D02*
X20110658Y-10824460D01*
X20110658Y-10824460D02*
X20101135Y-10805412D01*
X20101135Y-10805412D02*
X20101135Y-10729222D01*
X20101135Y-10729222D02*
X20110658Y-10710174D01*
X20110658Y-10710174D02*
X20129706Y-10700650D01*
X20129706Y-10700650D02*
X20167801Y-10700650D01*
X20167801Y-10700650D02*
X20186849Y-10710174D01*
X20186849Y-10710174D02*
X20196373Y-10729222D01*
X20196373Y-10729222D02*
X20196373Y-10748270D01*
X20196373Y-10748270D02*
X20101135Y-10767317D01*
X20367801Y-10833984D02*
X20367801Y-10633984D01*
X20367801Y-10824460D02*
X20348754Y-10833984D01*
X20348754Y-10833984D02*
X20310658Y-10833984D01*
X20310658Y-10833984D02*
X20291611Y-10824460D01*
X20291611Y-10824460D02*
X20282087Y-10814936D01*
X20282087Y-10814936D02*
X20272563Y-10795889D01*
X20272563Y-10795889D02*
X20272563Y-10738746D01*
X20272563Y-10738746D02*
X20282087Y-10719698D01*
X20282087Y-10719698D02*
X20291611Y-10710174D01*
X20291611Y-10710174D02*
X20310658Y-10700650D01*
X20310658Y-10700650D02*
X20348754Y-10700650D01*
X20348754Y-10700650D02*
X20367801Y-10710174D01*
X20443992Y-10910174D02*
X20453516Y-10900650D01*
X20453516Y-10900650D02*
X20472563Y-10872079D01*
X20472563Y-10872079D02*
X20482087Y-10853031D01*
X20482087Y-10853031D02*
X20491611Y-10824460D01*
X20491611Y-10824460D02*
X20501135Y-10776841D01*
X20501135Y-10776841D02*
X20501135Y-10738746D01*
X20501135Y-10738746D02*
X20491611Y-10691127D01*
X20491611Y-10691127D02*
X20482087Y-10662555D01*
X20482087Y-10662555D02*
X20472563Y-10643508D01*
X20472563Y-10643508D02*
X20453516Y-10614936D01*
X20453516Y-10614936D02*
X20443992Y-10605412D01*
D13*
X13497500Y-11006500D02*
G75*
G02*
X13317500Y-11006500I-90000J0D01*
G01*
X13317500Y-11006500D02*
G75*
G02*
X13497500Y-11006500I90000J0D01*
G01*
D11*
X13863039Y-11097984D02*
X13748753Y-11097984D01*
X13805896Y-11097984D02*
X13805896Y-10897984D01*
X13805896Y-10897984D02*
X13786848Y-10926555D01*
X13786848Y-10926555D02*
X13767801Y-10945603D01*
X13767801Y-10945603D02*
X13748753Y-10955127D01*
X13948753Y-11078936D02*
X13958277Y-11088460D01*
X13958277Y-11088460D02*
X13948753Y-11097984D01*
X13948753Y-11097984D02*
X13939229Y-11088460D01*
X13939229Y-11088460D02*
X13948753Y-11078936D01*
X13948753Y-11078936D02*
X13948753Y-11097984D01*
X14072562Y-10983698D02*
X14053515Y-10974174D01*
X14053515Y-10974174D02*
X14043991Y-10964650D01*
X14043991Y-10964650D02*
X14034467Y-10945603D01*
X14034467Y-10945603D02*
X14034467Y-10936079D01*
X14034467Y-10936079D02*
X14043991Y-10917031D01*
X14043991Y-10917031D02*
X14053515Y-10907508D01*
X14053515Y-10907508D02*
X14072562Y-10897984D01*
X14072562Y-10897984D02*
X14110658Y-10897984D01*
X14110658Y-10897984D02*
X14129705Y-10907508D01*
X14129705Y-10907508D02*
X14139229Y-10917031D01*
X14139229Y-10917031D02*
X14148753Y-10936079D01*
X14148753Y-10936079D02*
X14148753Y-10945603D01*
X14148753Y-10945603D02*
X14139229Y-10964650D01*
X14139229Y-10964650D02*
X14129705Y-10974174D01*
X14129705Y-10974174D02*
X14110658Y-10983698D01*
X14110658Y-10983698D02*
X14072562Y-10983698D01*
X14072562Y-10983698D02*
X14053515Y-10993222D01*
X14053515Y-10993222D02*
X14043991Y-11002746D01*
X14043991Y-11002746D02*
X14034467Y-11021793D01*
X14034467Y-11021793D02*
X14034467Y-11059889D01*
X14034467Y-11059889D02*
X14043991Y-11078936D01*
X14043991Y-11078936D02*
X14053515Y-11088460D01*
X14053515Y-11088460D02*
X14072562Y-11097984D01*
X14072562Y-11097984D02*
X14110658Y-11097984D01*
X14110658Y-11097984D02*
X14129705Y-11088460D01*
X14129705Y-11088460D02*
X14139229Y-11078936D01*
X14139229Y-11078936D02*
X14148753Y-11059889D01*
X14148753Y-11059889D02*
X14148753Y-11021793D01*
X14148753Y-11021793D02*
X14139229Y-11002746D01*
X14139229Y-11002746D02*
X14129705Y-10993222D01*
X14129705Y-10993222D02*
X14110658Y-10983698D01*
X14272562Y-10897984D02*
X14291610Y-10897984D01*
X14291610Y-10897984D02*
X14310658Y-10907508D01*
X14310658Y-10907508D02*
X14320182Y-10917031D01*
X14320182Y-10917031D02*
X14329705Y-10936079D01*
X14329705Y-10936079D02*
X14339229Y-10974174D01*
X14339229Y-10974174D02*
X14339229Y-11021793D01*
X14339229Y-11021793D02*
X14329705Y-11059889D01*
X14329705Y-11059889D02*
X14320182Y-11078936D01*
X14320182Y-11078936D02*
X14310658Y-11088460D01*
X14310658Y-11088460D02*
X14291610Y-11097984D01*
X14291610Y-11097984D02*
X14272562Y-11097984D01*
X14272562Y-11097984D02*
X14253515Y-11088460D01*
X14253515Y-11088460D02*
X14243991Y-11078936D01*
X14243991Y-11078936D02*
X14234467Y-11059889D01*
X14234467Y-11059889D02*
X14224943Y-11021793D01*
X14224943Y-11021793D02*
X14224943Y-10974174D01*
X14224943Y-10974174D02*
X14234467Y-10936079D01*
X14234467Y-10936079D02*
X14243991Y-10917031D01*
X14243991Y-10917031D02*
X14253515Y-10907508D01*
X14253515Y-10907508D02*
X14272562Y-10897984D01*
X14463039Y-10897984D02*
X14482086Y-10897984D01*
X14482086Y-10897984D02*
X14501134Y-10907508D01*
X14501134Y-10907508D02*
X14510658Y-10917031D01*
X14510658Y-10917031D02*
X14520182Y-10936079D01*
X14520182Y-10936079D02*
X14529705Y-10974174D01*
X14529705Y-10974174D02*
X14529705Y-11021793D01*
X14529705Y-11021793D02*
X14520182Y-11059889D01*
X14520182Y-11059889D02*
X14510658Y-11078936D01*
X14510658Y-11078936D02*
X14501134Y-11088460D01*
X14501134Y-11088460D02*
X14482086Y-11097984D01*
X14482086Y-11097984D02*
X14463039Y-11097984D01*
X14463039Y-11097984D02*
X14443991Y-11088460D01*
X14443991Y-11088460D02*
X14434467Y-11078936D01*
X14434467Y-11078936D02*
X14424943Y-11059889D01*
X14424943Y-11059889D02*
X14415420Y-11021793D01*
X14415420Y-11021793D02*
X14415420Y-10974174D01*
X14415420Y-10974174D02*
X14424943Y-10936079D01*
X14424943Y-10936079D02*
X14434467Y-10917031D01*
X14434467Y-10917031D02*
X14443991Y-10907508D01*
X14443991Y-10907508D02*
X14463039Y-10897984D01*
X14615420Y-11097984D02*
X14615420Y-10964650D01*
X14615420Y-10983698D02*
X14624943Y-10974174D01*
X14624943Y-10974174D02*
X14643991Y-10964650D01*
X14643991Y-10964650D02*
X14672563Y-10964650D01*
X14672563Y-10964650D02*
X14691610Y-10974174D01*
X14691610Y-10974174D02*
X14701134Y-10993222D01*
X14701134Y-10993222D02*
X14701134Y-11097984D01*
X14701134Y-10993222D02*
X14710658Y-10974174D01*
X14710658Y-10974174D02*
X14729705Y-10964650D01*
X14729705Y-10964650D02*
X14758277Y-10964650D01*
X14758277Y-10964650D02*
X14777324Y-10974174D01*
X14777324Y-10974174D02*
X14786848Y-10993222D01*
X14786848Y-10993222D02*
X14786848Y-11097984D01*
X14882086Y-11097984D02*
X14882086Y-10964650D01*
X14882086Y-10983698D02*
X14891610Y-10974174D01*
X14891610Y-10974174D02*
X14910658Y-10964650D01*
X14910658Y-10964650D02*
X14939229Y-10964650D01*
X14939229Y-10964650D02*
X14958277Y-10974174D01*
X14958277Y-10974174D02*
X14967801Y-10993222D01*
X14967801Y-10993222D02*
X14967801Y-11097984D01*
X14967801Y-10993222D02*
X14977324Y-10974174D01*
X14977324Y-10974174D02*
X14996372Y-10964650D01*
X14996372Y-10964650D02*
X15024943Y-10964650D01*
X15024943Y-10964650D02*
X15043991Y-10974174D01*
X15043991Y-10974174D02*
X15053515Y-10993222D01*
X15053515Y-10993222D02*
X15053515Y-11097984D01*
X15443991Y-10888460D02*
X15272563Y-11145603D01*
X15701134Y-10897984D02*
X15720182Y-10897984D01*
X15720182Y-10897984D02*
X15739229Y-10907508D01*
X15739229Y-10907508D02*
X15748753Y-10917031D01*
X15748753Y-10917031D02*
X15758277Y-10936079D01*
X15758277Y-10936079D02*
X15767801Y-10974174D01*
X15767801Y-10974174D02*
X15767801Y-11021793D01*
X15767801Y-11021793D02*
X15758277Y-11059889D01*
X15758277Y-11059889D02*
X15748753Y-11078936D01*
X15748753Y-11078936D02*
X15739229Y-11088460D01*
X15739229Y-11088460D02*
X15720182Y-11097984D01*
X15720182Y-11097984D02*
X15701134Y-11097984D01*
X15701134Y-11097984D02*
X15682086Y-11088460D01*
X15682086Y-11088460D02*
X15672563Y-11078936D01*
X15672563Y-11078936D02*
X15663039Y-11059889D01*
X15663039Y-11059889D02*
X15653515Y-11021793D01*
X15653515Y-11021793D02*
X15653515Y-10974174D01*
X15653515Y-10974174D02*
X15663039Y-10936079D01*
X15663039Y-10936079D02*
X15672563Y-10917031D01*
X15672563Y-10917031D02*
X15682086Y-10907508D01*
X15682086Y-10907508D02*
X15701134Y-10897984D01*
X15853515Y-11078936D02*
X15863039Y-11088460D01*
X15863039Y-11088460D02*
X15853515Y-11097984D01*
X15853515Y-11097984D02*
X15843991Y-11088460D01*
X15843991Y-11088460D02*
X15853515Y-11078936D01*
X15853515Y-11078936D02*
X15853515Y-11097984D01*
X15986848Y-10897984D02*
X16005896Y-10897984D01*
X16005896Y-10897984D02*
X16024944Y-10907508D01*
X16024944Y-10907508D02*
X16034467Y-10917031D01*
X16034467Y-10917031D02*
X16043991Y-10936079D01*
X16043991Y-10936079D02*
X16053515Y-10974174D01*
X16053515Y-10974174D02*
X16053515Y-11021793D01*
X16053515Y-11021793D02*
X16043991Y-11059889D01*
X16043991Y-11059889D02*
X16034467Y-11078936D01*
X16034467Y-11078936D02*
X16024944Y-11088460D01*
X16024944Y-11088460D02*
X16005896Y-11097984D01*
X16005896Y-11097984D02*
X15986848Y-11097984D01*
X15986848Y-11097984D02*
X15967801Y-11088460D01*
X15967801Y-11088460D02*
X15958277Y-11078936D01*
X15958277Y-11078936D02*
X15948753Y-11059889D01*
X15948753Y-11059889D02*
X15939229Y-11021793D01*
X15939229Y-11021793D02*
X15939229Y-10974174D01*
X15939229Y-10974174D02*
X15948753Y-10936079D01*
X15948753Y-10936079D02*
X15958277Y-10917031D01*
X15958277Y-10917031D02*
X15967801Y-10907508D01*
X15967801Y-10907508D02*
X15986848Y-10897984D01*
X16120182Y-10897984D02*
X16253515Y-10897984D01*
X16253515Y-10897984D02*
X16167801Y-11097984D01*
X16367801Y-10897984D02*
X16386848Y-10897984D01*
X16386848Y-10897984D02*
X16405896Y-10907508D01*
X16405896Y-10907508D02*
X16415420Y-10917031D01*
X16415420Y-10917031D02*
X16424944Y-10936079D01*
X16424944Y-10936079D02*
X16434467Y-10974174D01*
X16434467Y-10974174D02*
X16434467Y-11021793D01*
X16434467Y-11021793D02*
X16424944Y-11059889D01*
X16424944Y-11059889D02*
X16415420Y-11078936D01*
X16415420Y-11078936D02*
X16405896Y-11088460D01*
X16405896Y-11088460D02*
X16386848Y-11097984D01*
X16386848Y-11097984D02*
X16367801Y-11097984D01*
X16367801Y-11097984D02*
X16348753Y-11088460D01*
X16348753Y-11088460D02*
X16339229Y-11078936D01*
X16339229Y-11078936D02*
X16329706Y-11059889D01*
X16329706Y-11059889D02*
X16320182Y-11021793D01*
X16320182Y-11021793D02*
X16320182Y-10974174D01*
X16320182Y-10974174D02*
X16329706Y-10936079D01*
X16329706Y-10936079D02*
X16339229Y-10917031D01*
X16339229Y-10917031D02*
X16348753Y-10907508D01*
X16348753Y-10907508D02*
X16367801Y-10897984D01*
X16529706Y-11097984D02*
X16567801Y-11097984D01*
X16567801Y-11097984D02*
X16586848Y-11088460D01*
X16586848Y-11088460D02*
X16596372Y-11078936D01*
X16596372Y-11078936D02*
X16615420Y-11050365D01*
X16615420Y-11050365D02*
X16624944Y-11012270D01*
X16624944Y-11012270D02*
X16624944Y-10936079D01*
X16624944Y-10936079D02*
X16615420Y-10917031D01*
X16615420Y-10917031D02*
X16605896Y-10907508D01*
X16605896Y-10907508D02*
X16586848Y-10897984D01*
X16586848Y-10897984D02*
X16548753Y-10897984D01*
X16548753Y-10897984D02*
X16529706Y-10907508D01*
X16529706Y-10907508D02*
X16520182Y-10917031D01*
X16520182Y-10917031D02*
X16510658Y-10936079D01*
X16510658Y-10936079D02*
X16510658Y-10983698D01*
X16510658Y-10983698D02*
X16520182Y-11002746D01*
X16520182Y-11002746D02*
X16529706Y-11012270D01*
X16529706Y-11012270D02*
X16548753Y-11021793D01*
X16548753Y-11021793D02*
X16586848Y-11021793D01*
X16586848Y-11021793D02*
X16605896Y-11012270D01*
X16605896Y-11012270D02*
X16615420Y-11002746D01*
X16615420Y-11002746D02*
X16624944Y-10983698D01*
X16701134Y-10897984D02*
X16701134Y-10936079D01*
X16777325Y-10897984D02*
X16777325Y-10936079D01*
X17072563Y-11174174D02*
X17063039Y-11164650D01*
X17063039Y-11164650D02*
X17043991Y-11136079D01*
X17043991Y-11136079D02*
X17034468Y-11117031D01*
X17034468Y-11117031D02*
X17024944Y-11088460D01*
X17024944Y-11088460D02*
X17015420Y-11040841D01*
X17015420Y-11040841D02*
X17015420Y-11002746D01*
X17015420Y-11002746D02*
X17024944Y-10955127D01*
X17024944Y-10955127D02*
X17034468Y-10926555D01*
X17034468Y-10926555D02*
X17043991Y-10907508D01*
X17043991Y-10907508D02*
X17063039Y-10878936D01*
X17063039Y-10878936D02*
X17072563Y-10869412D01*
X17139230Y-10917031D02*
X17148753Y-10907508D01*
X17148753Y-10907508D02*
X17167801Y-10897984D01*
X17167801Y-10897984D02*
X17215420Y-10897984D01*
X17215420Y-10897984D02*
X17234468Y-10907508D01*
X17234468Y-10907508D02*
X17243991Y-10917031D01*
X17243991Y-10917031D02*
X17253515Y-10936079D01*
X17253515Y-10936079D02*
X17253515Y-10955127D01*
X17253515Y-10955127D02*
X17243991Y-10983698D01*
X17243991Y-10983698D02*
X17129706Y-11097984D01*
X17129706Y-11097984D02*
X17253515Y-11097984D01*
X17491611Y-11097984D02*
X17491611Y-10897984D01*
X17577325Y-11097984D02*
X17577325Y-10993222D01*
X17577325Y-10993222D02*
X17567801Y-10974174D01*
X17567801Y-10974174D02*
X17548753Y-10964650D01*
X17548753Y-10964650D02*
X17520182Y-10964650D01*
X17520182Y-10964650D02*
X17501134Y-10974174D01*
X17501134Y-10974174D02*
X17491611Y-10983698D01*
X17701134Y-11097984D02*
X17682087Y-11088460D01*
X17682087Y-11088460D02*
X17672563Y-11078936D01*
X17672563Y-11078936D02*
X17663039Y-11059889D01*
X17663039Y-11059889D02*
X17663039Y-11002746D01*
X17663039Y-11002746D02*
X17672563Y-10983698D01*
X17672563Y-10983698D02*
X17682087Y-10974174D01*
X17682087Y-10974174D02*
X17701134Y-10964650D01*
X17701134Y-10964650D02*
X17729706Y-10964650D01*
X17729706Y-10964650D02*
X17748753Y-10974174D01*
X17748753Y-10974174D02*
X17758277Y-10983698D01*
X17758277Y-10983698D02*
X17767801Y-11002746D01*
X17767801Y-11002746D02*
X17767801Y-11059889D01*
X17767801Y-11059889D02*
X17758277Y-11078936D01*
X17758277Y-11078936D02*
X17748753Y-11088460D01*
X17748753Y-11088460D02*
X17729706Y-11097984D01*
X17729706Y-11097984D02*
X17701134Y-11097984D01*
X17882087Y-11097984D02*
X17863039Y-11088460D01*
X17863039Y-11088460D02*
X17853515Y-11069412D01*
X17853515Y-11069412D02*
X17853515Y-10897984D01*
X18034468Y-11088460D02*
X18015420Y-11097984D01*
X18015420Y-11097984D02*
X17977325Y-11097984D01*
X17977325Y-11097984D02*
X17958277Y-11088460D01*
X17958277Y-11088460D02*
X17948753Y-11069412D01*
X17948753Y-11069412D02*
X17948753Y-10993222D01*
X17948753Y-10993222D02*
X17958277Y-10974174D01*
X17958277Y-10974174D02*
X17977325Y-10964650D01*
X17977325Y-10964650D02*
X18015420Y-10964650D01*
X18015420Y-10964650D02*
X18034468Y-10974174D01*
X18034468Y-10974174D02*
X18043992Y-10993222D01*
X18043992Y-10993222D02*
X18043992Y-11012270D01*
X18043992Y-11012270D02*
X17948753Y-11031317D01*
X18120182Y-11088460D02*
X18139230Y-11097984D01*
X18139230Y-11097984D02*
X18177325Y-11097984D01*
X18177325Y-11097984D02*
X18196373Y-11088460D01*
X18196373Y-11088460D02*
X18205896Y-11069412D01*
X18205896Y-11069412D02*
X18205896Y-11059889D01*
X18205896Y-11059889D02*
X18196373Y-11040841D01*
X18196373Y-11040841D02*
X18177325Y-11031317D01*
X18177325Y-11031317D02*
X18148753Y-11031317D01*
X18148753Y-11031317D02*
X18129706Y-11021793D01*
X18129706Y-11021793D02*
X18120182Y-11002746D01*
X18120182Y-11002746D02*
X18120182Y-10993222D01*
X18120182Y-10993222D02*
X18129706Y-10974174D01*
X18129706Y-10974174D02*
X18148753Y-10964650D01*
X18148753Y-10964650D02*
X18177325Y-10964650D01*
X18177325Y-10964650D02*
X18196373Y-10974174D01*
X18272563Y-11174174D02*
X18282087Y-11164650D01*
X18282087Y-11164650D02*
X18301134Y-11136079D01*
X18301134Y-11136079D02*
X18310658Y-11117031D01*
X18310658Y-11117031D02*
X18320182Y-11088460D01*
X18320182Y-11088460D02*
X18329706Y-11040841D01*
X18329706Y-11040841D02*
X18329706Y-11002746D01*
X18329706Y-11002746D02*
X18320182Y-10955127D01*
X18320182Y-10955127D02*
X18310658Y-10926555D01*
X18310658Y-10926555D02*
X18301134Y-10907508D01*
X18301134Y-10907508D02*
X18282087Y-10878936D01*
X18282087Y-10878936D02*
X18272563Y-10869412D01*
X18634468Y-11174174D02*
X18624944Y-11164650D01*
X18624944Y-11164650D02*
X18605896Y-11136079D01*
X18605896Y-11136079D02*
X18596373Y-11117031D01*
X18596373Y-11117031D02*
X18586849Y-11088460D01*
X18586849Y-11088460D02*
X18577325Y-11040841D01*
X18577325Y-11040841D02*
X18577325Y-11002746D01*
X18577325Y-11002746D02*
X18586849Y-10955127D01*
X18586849Y-10955127D02*
X18596373Y-10926555D01*
X18596373Y-10926555D02*
X18605896Y-10907508D01*
X18605896Y-10907508D02*
X18624944Y-10878936D01*
X18624944Y-10878936D02*
X18634468Y-10869412D01*
X18710658Y-10964650D02*
X18710658Y-11097984D01*
X18710658Y-10983698D02*
X18720182Y-10974174D01*
X18720182Y-10974174D02*
X18739230Y-10964650D01*
X18739230Y-10964650D02*
X18767801Y-10964650D01*
X18767801Y-10964650D02*
X18786849Y-10974174D01*
X18786849Y-10974174D02*
X18796373Y-10993222D01*
X18796373Y-10993222D02*
X18796373Y-11097984D01*
X18920182Y-11097984D02*
X18901134Y-11088460D01*
X18901134Y-11088460D02*
X18891611Y-11078936D01*
X18891611Y-11078936D02*
X18882087Y-11059889D01*
X18882087Y-11059889D02*
X18882087Y-11002746D01*
X18882087Y-11002746D02*
X18891611Y-10983698D01*
X18891611Y-10983698D02*
X18901134Y-10974174D01*
X18901134Y-10974174D02*
X18920182Y-10964650D01*
X18920182Y-10964650D02*
X18948754Y-10964650D01*
X18948754Y-10964650D02*
X18967801Y-10974174D01*
X18967801Y-10974174D02*
X18977325Y-10983698D01*
X18977325Y-10983698D02*
X18986849Y-11002746D01*
X18986849Y-11002746D02*
X18986849Y-11059889D01*
X18986849Y-11059889D02*
X18977325Y-11078936D01*
X18977325Y-11078936D02*
X18967801Y-11088460D01*
X18967801Y-11088460D02*
X18948754Y-11097984D01*
X18948754Y-11097984D02*
X18920182Y-11097984D01*
X19043992Y-10964650D02*
X19120182Y-10964650D01*
X19072563Y-10897984D02*
X19072563Y-11069412D01*
X19072563Y-11069412D02*
X19082087Y-11088460D01*
X19082087Y-11088460D02*
X19101134Y-11097984D01*
X19101134Y-11097984D02*
X19120182Y-11097984D01*
X19339230Y-10964650D02*
X19339230Y-11164650D01*
X19339230Y-10974174D02*
X19358277Y-10964650D01*
X19358277Y-10964650D02*
X19396373Y-10964650D01*
X19396373Y-10964650D02*
X19415420Y-10974174D01*
X19415420Y-10974174D02*
X19424944Y-10983698D01*
X19424944Y-10983698D02*
X19434468Y-11002746D01*
X19434468Y-11002746D02*
X19434468Y-11059889D01*
X19434468Y-11059889D02*
X19424944Y-11078936D01*
X19424944Y-11078936D02*
X19415420Y-11088460D01*
X19415420Y-11088460D02*
X19396373Y-11097984D01*
X19396373Y-11097984D02*
X19358277Y-11097984D01*
X19358277Y-11097984D02*
X19339230Y-11088460D01*
X19548754Y-11097984D02*
X19529706Y-11088460D01*
X19529706Y-11088460D02*
X19520182Y-11069412D01*
X19520182Y-11069412D02*
X19520182Y-10897984D01*
X19710658Y-11097984D02*
X19710658Y-10993222D01*
X19710658Y-10993222D02*
X19701135Y-10974174D01*
X19701135Y-10974174D02*
X19682087Y-10964650D01*
X19682087Y-10964650D02*
X19643992Y-10964650D01*
X19643992Y-10964650D02*
X19624944Y-10974174D01*
X19710658Y-11088460D02*
X19691611Y-11097984D01*
X19691611Y-11097984D02*
X19643992Y-11097984D01*
X19643992Y-11097984D02*
X19624944Y-11088460D01*
X19624944Y-11088460D02*
X19615420Y-11069412D01*
X19615420Y-11069412D02*
X19615420Y-11050365D01*
X19615420Y-11050365D02*
X19624944Y-11031317D01*
X19624944Y-11031317D02*
X19643992Y-11021793D01*
X19643992Y-11021793D02*
X19691611Y-11021793D01*
X19691611Y-11021793D02*
X19710658Y-11012270D01*
X19777325Y-10964650D02*
X19853515Y-10964650D01*
X19805896Y-10897984D02*
X19805896Y-11069412D01*
X19805896Y-11069412D02*
X19815420Y-11088460D01*
X19815420Y-11088460D02*
X19834468Y-11097984D01*
X19834468Y-11097984D02*
X19853515Y-11097984D01*
X19996373Y-11088460D02*
X19977325Y-11097984D01*
X19977325Y-11097984D02*
X19939230Y-11097984D01*
X19939230Y-11097984D02*
X19920182Y-11088460D01*
X19920182Y-11088460D02*
X19910658Y-11069412D01*
X19910658Y-11069412D02*
X19910658Y-10993222D01*
X19910658Y-10993222D02*
X19920182Y-10974174D01*
X19920182Y-10974174D02*
X19939230Y-10964650D01*
X19939230Y-10964650D02*
X19977325Y-10964650D01*
X19977325Y-10964650D02*
X19996373Y-10974174D01*
X19996373Y-10974174D02*
X20005896Y-10993222D01*
X20005896Y-10993222D02*
X20005896Y-11012270D01*
X20005896Y-11012270D02*
X19910658Y-11031317D01*
X20177325Y-11097984D02*
X20177325Y-10897984D01*
X20177325Y-11088460D02*
X20158277Y-11097984D01*
X20158277Y-11097984D02*
X20120182Y-11097984D01*
X20120182Y-11097984D02*
X20101135Y-11088460D01*
X20101135Y-11088460D02*
X20091611Y-11078936D01*
X20091611Y-11078936D02*
X20082087Y-11059889D01*
X20082087Y-11059889D02*
X20082087Y-11002746D01*
X20082087Y-11002746D02*
X20091611Y-10983698D01*
X20091611Y-10983698D02*
X20101135Y-10974174D01*
X20101135Y-10974174D02*
X20120182Y-10964650D01*
X20120182Y-10964650D02*
X20158277Y-10964650D01*
X20158277Y-10964650D02*
X20177325Y-10974174D01*
X20253516Y-11174174D02*
X20263039Y-11164650D01*
X20263039Y-11164650D02*
X20282087Y-11136079D01*
X20282087Y-11136079D02*
X20291611Y-11117031D01*
X20291611Y-11117031D02*
X20301135Y-11088460D01*
X20301135Y-11088460D02*
X20310658Y-11040841D01*
X20310658Y-11040841D02*
X20310658Y-11002746D01*
X20310658Y-11002746D02*
X20301135Y-10955127D01*
X20301135Y-10955127D02*
X20291611Y-10926555D01*
X20291611Y-10926555D02*
X20282087Y-10907508D01*
X20282087Y-10907508D02*
X20263039Y-10878936D01*
X20263039Y-10878936D02*
X20253516Y-10869412D01*
X13397500Y-11206500D02*
X13397500Y-11406500D01*
X13297500Y-11306500D02*
X13497500Y-11306500D01*
X13748753Y-11217031D02*
X13758277Y-11207508D01*
X13758277Y-11207508D02*
X13777324Y-11197984D01*
X13777324Y-11197984D02*
X13824943Y-11197984D01*
X13824943Y-11197984D02*
X13843991Y-11207508D01*
X13843991Y-11207508D02*
X13853515Y-11217031D01*
X13853515Y-11217031D02*
X13863039Y-11236079D01*
X13863039Y-11236079D02*
X13863039Y-11255127D01*
X13863039Y-11255127D02*
X13853515Y-11283698D01*
X13853515Y-11283698D02*
X13739229Y-11397984D01*
X13739229Y-11397984D02*
X13863039Y-11397984D01*
X13948753Y-11378936D02*
X13958277Y-11388460D01*
X13958277Y-11388460D02*
X13948753Y-11397984D01*
X13948753Y-11397984D02*
X13939229Y-11388460D01*
X13939229Y-11388460D02*
X13948753Y-11378936D01*
X13948753Y-11378936D02*
X13948753Y-11397984D01*
X14034467Y-11217031D02*
X14043991Y-11207508D01*
X14043991Y-11207508D02*
X14063039Y-11197984D01*
X14063039Y-11197984D02*
X14110658Y-11197984D01*
X14110658Y-11197984D02*
X14129705Y-11207508D01*
X14129705Y-11207508D02*
X14139229Y-11217031D01*
X14139229Y-11217031D02*
X14148753Y-11236079D01*
X14148753Y-11236079D02*
X14148753Y-11255127D01*
X14148753Y-11255127D02*
X14139229Y-11283698D01*
X14139229Y-11283698D02*
X14024943Y-11397984D01*
X14024943Y-11397984D02*
X14148753Y-11397984D01*
X14272562Y-11197984D02*
X14291610Y-11197984D01*
X14291610Y-11197984D02*
X14310658Y-11207508D01*
X14310658Y-11207508D02*
X14320182Y-11217031D01*
X14320182Y-11217031D02*
X14329705Y-11236079D01*
X14329705Y-11236079D02*
X14339229Y-11274174D01*
X14339229Y-11274174D02*
X14339229Y-11321793D01*
X14339229Y-11321793D02*
X14329705Y-11359888D01*
X14329705Y-11359888D02*
X14320182Y-11378936D01*
X14320182Y-11378936D02*
X14310658Y-11388460D01*
X14310658Y-11388460D02*
X14291610Y-11397984D01*
X14291610Y-11397984D02*
X14272562Y-11397984D01*
X14272562Y-11397984D02*
X14253515Y-11388460D01*
X14253515Y-11388460D02*
X14243991Y-11378936D01*
X14243991Y-11378936D02*
X14234467Y-11359888D01*
X14234467Y-11359888D02*
X14224943Y-11321793D01*
X14224943Y-11321793D02*
X14224943Y-11274174D01*
X14224943Y-11274174D02*
X14234467Y-11236079D01*
X14234467Y-11236079D02*
X14243991Y-11217031D01*
X14243991Y-11217031D02*
X14253515Y-11207508D01*
X14253515Y-11207508D02*
X14272562Y-11197984D01*
X14463039Y-11197984D02*
X14482086Y-11197984D01*
X14482086Y-11197984D02*
X14501134Y-11207508D01*
X14501134Y-11207508D02*
X14510658Y-11217031D01*
X14510658Y-11217031D02*
X14520182Y-11236079D01*
X14520182Y-11236079D02*
X14529705Y-11274174D01*
X14529705Y-11274174D02*
X14529705Y-11321793D01*
X14529705Y-11321793D02*
X14520182Y-11359888D01*
X14520182Y-11359888D02*
X14510658Y-11378936D01*
X14510658Y-11378936D02*
X14501134Y-11388460D01*
X14501134Y-11388460D02*
X14482086Y-11397984D01*
X14482086Y-11397984D02*
X14463039Y-11397984D01*
X14463039Y-11397984D02*
X14443991Y-11388460D01*
X14443991Y-11388460D02*
X14434467Y-11378936D01*
X14434467Y-11378936D02*
X14424943Y-11359888D01*
X14424943Y-11359888D02*
X14415420Y-11321793D01*
X14415420Y-11321793D02*
X14415420Y-11274174D01*
X14415420Y-11274174D02*
X14424943Y-11236079D01*
X14424943Y-11236079D02*
X14434467Y-11217031D01*
X14434467Y-11217031D02*
X14443991Y-11207508D01*
X14443991Y-11207508D02*
X14463039Y-11197984D01*
X14615420Y-11397984D02*
X14615420Y-11264650D01*
X14615420Y-11283698D02*
X14624943Y-11274174D01*
X14624943Y-11274174D02*
X14643991Y-11264650D01*
X14643991Y-11264650D02*
X14672563Y-11264650D01*
X14672563Y-11264650D02*
X14691610Y-11274174D01*
X14691610Y-11274174D02*
X14701134Y-11293222D01*
X14701134Y-11293222D02*
X14701134Y-11397984D01*
X14701134Y-11293222D02*
X14710658Y-11274174D01*
X14710658Y-11274174D02*
X14729705Y-11264650D01*
X14729705Y-11264650D02*
X14758277Y-11264650D01*
X14758277Y-11264650D02*
X14777324Y-11274174D01*
X14777324Y-11274174D02*
X14786848Y-11293222D01*
X14786848Y-11293222D02*
X14786848Y-11397984D01*
X14882086Y-11397984D02*
X14882086Y-11264650D01*
X14882086Y-11283698D02*
X14891610Y-11274174D01*
X14891610Y-11274174D02*
X14910658Y-11264650D01*
X14910658Y-11264650D02*
X14939229Y-11264650D01*
X14939229Y-11264650D02*
X14958277Y-11274174D01*
X14958277Y-11274174D02*
X14967801Y-11293222D01*
X14967801Y-11293222D02*
X14967801Y-11397984D01*
X14967801Y-11293222D02*
X14977324Y-11274174D01*
X14977324Y-11274174D02*
X14996372Y-11264650D01*
X14996372Y-11264650D02*
X15024943Y-11264650D01*
X15024943Y-11264650D02*
X15043991Y-11274174D01*
X15043991Y-11274174D02*
X15053515Y-11293222D01*
X15053515Y-11293222D02*
X15053515Y-11397984D01*
X15443991Y-11188460D02*
X15272563Y-11445603D01*
X15701134Y-11197984D02*
X15720182Y-11197984D01*
X15720182Y-11197984D02*
X15739229Y-11207508D01*
X15739229Y-11207508D02*
X15748753Y-11217031D01*
X15748753Y-11217031D02*
X15758277Y-11236079D01*
X15758277Y-11236079D02*
X15767801Y-11274174D01*
X15767801Y-11274174D02*
X15767801Y-11321793D01*
X15767801Y-11321793D02*
X15758277Y-11359888D01*
X15758277Y-11359888D02*
X15748753Y-11378936D01*
X15748753Y-11378936D02*
X15739229Y-11388460D01*
X15739229Y-11388460D02*
X15720182Y-11397984D01*
X15720182Y-11397984D02*
X15701134Y-11397984D01*
X15701134Y-11397984D02*
X15682086Y-11388460D01*
X15682086Y-11388460D02*
X15672563Y-11378936D01*
X15672563Y-11378936D02*
X15663039Y-11359888D01*
X15663039Y-11359888D02*
X15653515Y-11321793D01*
X15653515Y-11321793D02*
X15653515Y-11274174D01*
X15653515Y-11274174D02*
X15663039Y-11236079D01*
X15663039Y-11236079D02*
X15672563Y-11217031D01*
X15672563Y-11217031D02*
X15682086Y-11207508D01*
X15682086Y-11207508D02*
X15701134Y-11197984D01*
X15853515Y-11378936D02*
X15863039Y-11388460D01*
X15863039Y-11388460D02*
X15853515Y-11397984D01*
X15853515Y-11397984D02*
X15843991Y-11388460D01*
X15843991Y-11388460D02*
X15853515Y-11378936D01*
X15853515Y-11378936D02*
X15853515Y-11397984D01*
X15986848Y-11197984D02*
X16005896Y-11197984D01*
X16005896Y-11197984D02*
X16024944Y-11207508D01*
X16024944Y-11207508D02*
X16034467Y-11217031D01*
X16034467Y-11217031D02*
X16043991Y-11236079D01*
X16043991Y-11236079D02*
X16053515Y-11274174D01*
X16053515Y-11274174D02*
X16053515Y-11321793D01*
X16053515Y-11321793D02*
X16043991Y-11359888D01*
X16043991Y-11359888D02*
X16034467Y-11378936D01*
X16034467Y-11378936D02*
X16024944Y-11388460D01*
X16024944Y-11388460D02*
X16005896Y-11397984D01*
X16005896Y-11397984D02*
X15986848Y-11397984D01*
X15986848Y-11397984D02*
X15967801Y-11388460D01*
X15967801Y-11388460D02*
X15958277Y-11378936D01*
X15958277Y-11378936D02*
X15948753Y-11359888D01*
X15948753Y-11359888D02*
X15939229Y-11321793D01*
X15939229Y-11321793D02*
X15939229Y-11274174D01*
X15939229Y-11274174D02*
X15948753Y-11236079D01*
X15948753Y-11236079D02*
X15958277Y-11217031D01*
X15958277Y-11217031D02*
X15967801Y-11207508D01*
X15967801Y-11207508D02*
X15986848Y-11197984D01*
X16167801Y-11283698D02*
X16148753Y-11274174D01*
X16148753Y-11274174D02*
X16139229Y-11264650D01*
X16139229Y-11264650D02*
X16129706Y-11245603D01*
X16129706Y-11245603D02*
X16129706Y-11236079D01*
X16129706Y-11236079D02*
X16139229Y-11217031D01*
X16139229Y-11217031D02*
X16148753Y-11207508D01*
X16148753Y-11207508D02*
X16167801Y-11197984D01*
X16167801Y-11197984D02*
X16205896Y-11197984D01*
X16205896Y-11197984D02*
X16224944Y-11207508D01*
X16224944Y-11207508D02*
X16234467Y-11217031D01*
X16234467Y-11217031D02*
X16243991Y-11236079D01*
X16243991Y-11236079D02*
X16243991Y-11245603D01*
X16243991Y-11245603D02*
X16234467Y-11264650D01*
X16234467Y-11264650D02*
X16224944Y-11274174D01*
X16224944Y-11274174D02*
X16205896Y-11283698D01*
X16205896Y-11283698D02*
X16167801Y-11283698D01*
X16167801Y-11283698D02*
X16148753Y-11293222D01*
X16148753Y-11293222D02*
X16139229Y-11302746D01*
X16139229Y-11302746D02*
X16129706Y-11321793D01*
X16129706Y-11321793D02*
X16129706Y-11359888D01*
X16129706Y-11359888D02*
X16139229Y-11378936D01*
X16139229Y-11378936D02*
X16148753Y-11388460D01*
X16148753Y-11388460D02*
X16167801Y-11397984D01*
X16167801Y-11397984D02*
X16205896Y-11397984D01*
X16205896Y-11397984D02*
X16224944Y-11388460D01*
X16224944Y-11388460D02*
X16234467Y-11378936D01*
X16234467Y-11378936D02*
X16243991Y-11359888D01*
X16243991Y-11359888D02*
X16243991Y-11321793D01*
X16243991Y-11321793D02*
X16234467Y-11302746D01*
X16234467Y-11302746D02*
X16224944Y-11293222D01*
X16224944Y-11293222D02*
X16205896Y-11283698D01*
X16415420Y-11197984D02*
X16377325Y-11197984D01*
X16377325Y-11197984D02*
X16358277Y-11207508D01*
X16358277Y-11207508D02*
X16348753Y-11217031D01*
X16348753Y-11217031D02*
X16329706Y-11245603D01*
X16329706Y-11245603D02*
X16320182Y-11283698D01*
X16320182Y-11283698D02*
X16320182Y-11359888D01*
X16320182Y-11359888D02*
X16329706Y-11378936D01*
X16329706Y-11378936D02*
X16339229Y-11388460D01*
X16339229Y-11388460D02*
X16358277Y-11397984D01*
X16358277Y-11397984D02*
X16396372Y-11397984D01*
X16396372Y-11397984D02*
X16415420Y-11388460D01*
X16415420Y-11388460D02*
X16424944Y-11378936D01*
X16424944Y-11378936D02*
X16434467Y-11359888D01*
X16434467Y-11359888D02*
X16434467Y-11312269D01*
X16434467Y-11312269D02*
X16424944Y-11293222D01*
X16424944Y-11293222D02*
X16415420Y-11283698D01*
X16415420Y-11283698D02*
X16396372Y-11274174D01*
X16396372Y-11274174D02*
X16358277Y-11274174D01*
X16358277Y-11274174D02*
X16339229Y-11283698D01*
X16339229Y-11283698D02*
X16329706Y-11293222D01*
X16329706Y-11293222D02*
X16320182Y-11312269D01*
X16605896Y-11197984D02*
X16567801Y-11197984D01*
X16567801Y-11197984D02*
X16548753Y-11207508D01*
X16548753Y-11207508D02*
X16539229Y-11217031D01*
X16539229Y-11217031D02*
X16520182Y-11245603D01*
X16520182Y-11245603D02*
X16510658Y-11283698D01*
X16510658Y-11283698D02*
X16510658Y-11359888D01*
X16510658Y-11359888D02*
X16520182Y-11378936D01*
X16520182Y-11378936D02*
X16529706Y-11388460D01*
X16529706Y-11388460D02*
X16548753Y-11397984D01*
X16548753Y-11397984D02*
X16586848Y-11397984D01*
X16586848Y-11397984D02*
X16605896Y-11388460D01*
X16605896Y-11388460D02*
X16615420Y-11378936D01*
X16615420Y-11378936D02*
X16624944Y-11359888D01*
X16624944Y-11359888D02*
X16624944Y-11312269D01*
X16624944Y-11312269D02*
X16615420Y-11293222D01*
X16615420Y-11293222D02*
X16605896Y-11283698D01*
X16605896Y-11283698D02*
X16586848Y-11274174D01*
X16586848Y-11274174D02*
X16548753Y-11274174D01*
X16548753Y-11274174D02*
X16529706Y-11283698D01*
X16529706Y-11283698D02*
X16520182Y-11293222D01*
X16520182Y-11293222D02*
X16510658Y-11312269D01*
X16701134Y-11197984D02*
X16701134Y-11236079D01*
X16777325Y-11197984D02*
X16777325Y-11236079D01*
X17072563Y-11474174D02*
X17063039Y-11464650D01*
X17063039Y-11464650D02*
X17043991Y-11436079D01*
X17043991Y-11436079D02*
X17034468Y-11417031D01*
X17034468Y-11417031D02*
X17024944Y-11388460D01*
X17024944Y-11388460D02*
X17015420Y-11340841D01*
X17015420Y-11340841D02*
X17015420Y-11302746D01*
X17015420Y-11302746D02*
X17024944Y-11255127D01*
X17024944Y-11255127D02*
X17034468Y-11226555D01*
X17034468Y-11226555D02*
X17043991Y-11207508D01*
X17043991Y-11207508D02*
X17063039Y-11178936D01*
X17063039Y-11178936D02*
X17072563Y-11169412D01*
X17139230Y-11217031D02*
X17148753Y-11207508D01*
X17148753Y-11207508D02*
X17167801Y-11197984D01*
X17167801Y-11197984D02*
X17215420Y-11197984D01*
X17215420Y-11197984D02*
X17234468Y-11207508D01*
X17234468Y-11207508D02*
X17243991Y-11217031D01*
X17243991Y-11217031D02*
X17253515Y-11236079D01*
X17253515Y-11236079D02*
X17253515Y-11255127D01*
X17253515Y-11255127D02*
X17243991Y-11283698D01*
X17243991Y-11283698D02*
X17129706Y-11397984D01*
X17129706Y-11397984D02*
X17253515Y-11397984D01*
X17491611Y-11397984D02*
X17491611Y-11197984D01*
X17577325Y-11397984D02*
X17577325Y-11293222D01*
X17577325Y-11293222D02*
X17567801Y-11274174D01*
X17567801Y-11274174D02*
X17548753Y-11264650D01*
X17548753Y-11264650D02*
X17520182Y-11264650D01*
X17520182Y-11264650D02*
X17501134Y-11274174D01*
X17501134Y-11274174D02*
X17491611Y-11283698D01*
X17701134Y-11397984D02*
X17682087Y-11388460D01*
X17682087Y-11388460D02*
X17672563Y-11378936D01*
X17672563Y-11378936D02*
X17663039Y-11359888D01*
X17663039Y-11359888D02*
X17663039Y-11302746D01*
X17663039Y-11302746D02*
X17672563Y-11283698D01*
X17672563Y-11283698D02*
X17682087Y-11274174D01*
X17682087Y-11274174D02*
X17701134Y-11264650D01*
X17701134Y-11264650D02*
X17729706Y-11264650D01*
X17729706Y-11264650D02*
X17748753Y-11274174D01*
X17748753Y-11274174D02*
X17758277Y-11283698D01*
X17758277Y-11283698D02*
X17767801Y-11302746D01*
X17767801Y-11302746D02*
X17767801Y-11359888D01*
X17767801Y-11359888D02*
X17758277Y-11378936D01*
X17758277Y-11378936D02*
X17748753Y-11388460D01*
X17748753Y-11388460D02*
X17729706Y-11397984D01*
X17729706Y-11397984D02*
X17701134Y-11397984D01*
X17882087Y-11397984D02*
X17863039Y-11388460D01*
X17863039Y-11388460D02*
X17853515Y-11369412D01*
X17853515Y-11369412D02*
X17853515Y-11197984D01*
X18034468Y-11388460D02*
X18015420Y-11397984D01*
X18015420Y-11397984D02*
X17977325Y-11397984D01*
X17977325Y-11397984D02*
X17958277Y-11388460D01*
X17958277Y-11388460D02*
X17948753Y-11369412D01*
X17948753Y-11369412D02*
X17948753Y-11293222D01*
X17948753Y-11293222D02*
X17958277Y-11274174D01*
X17958277Y-11274174D02*
X17977325Y-11264650D01*
X17977325Y-11264650D02*
X18015420Y-11264650D01*
X18015420Y-11264650D02*
X18034468Y-11274174D01*
X18034468Y-11274174D02*
X18043992Y-11293222D01*
X18043992Y-11293222D02*
X18043992Y-11312269D01*
X18043992Y-11312269D02*
X17948753Y-11331317D01*
X18120182Y-11388460D02*
X18139230Y-11397984D01*
X18139230Y-11397984D02*
X18177325Y-11397984D01*
X18177325Y-11397984D02*
X18196373Y-11388460D01*
X18196373Y-11388460D02*
X18205896Y-11369412D01*
X18205896Y-11369412D02*
X18205896Y-11359888D01*
X18205896Y-11359888D02*
X18196373Y-11340841D01*
X18196373Y-11340841D02*
X18177325Y-11331317D01*
X18177325Y-11331317D02*
X18148753Y-11331317D01*
X18148753Y-11331317D02*
X18129706Y-11321793D01*
X18129706Y-11321793D02*
X18120182Y-11302746D01*
X18120182Y-11302746D02*
X18120182Y-11293222D01*
X18120182Y-11293222D02*
X18129706Y-11274174D01*
X18129706Y-11274174D02*
X18148753Y-11264650D01*
X18148753Y-11264650D02*
X18177325Y-11264650D01*
X18177325Y-11264650D02*
X18196373Y-11274174D01*
X18272563Y-11474174D02*
X18282087Y-11464650D01*
X18282087Y-11464650D02*
X18301134Y-11436079D01*
X18301134Y-11436079D02*
X18310658Y-11417031D01*
X18310658Y-11417031D02*
X18320182Y-11388460D01*
X18320182Y-11388460D02*
X18329706Y-11340841D01*
X18329706Y-11340841D02*
X18329706Y-11302746D01*
X18329706Y-11302746D02*
X18320182Y-11255127D01*
X18320182Y-11255127D02*
X18310658Y-11226555D01*
X18310658Y-11226555D02*
X18301134Y-11207508D01*
X18301134Y-11207508D02*
X18282087Y-11178936D01*
X18282087Y-11178936D02*
X18272563Y-11169412D01*
X18634468Y-11474174D02*
X18624944Y-11464650D01*
X18624944Y-11464650D02*
X18605896Y-11436079D01*
X18605896Y-11436079D02*
X18596373Y-11417031D01*
X18596373Y-11417031D02*
X18586849Y-11388460D01*
X18586849Y-11388460D02*
X18577325Y-11340841D01*
X18577325Y-11340841D02*
X18577325Y-11302746D01*
X18577325Y-11302746D02*
X18586849Y-11255127D01*
X18586849Y-11255127D02*
X18596373Y-11226555D01*
X18596373Y-11226555D02*
X18605896Y-11207508D01*
X18605896Y-11207508D02*
X18624944Y-11178936D01*
X18624944Y-11178936D02*
X18634468Y-11169412D01*
X18710658Y-11264650D02*
X18710658Y-11397984D01*
X18710658Y-11283698D02*
X18720182Y-11274174D01*
X18720182Y-11274174D02*
X18739230Y-11264650D01*
X18739230Y-11264650D02*
X18767801Y-11264650D01*
X18767801Y-11264650D02*
X18786849Y-11274174D01*
X18786849Y-11274174D02*
X18796373Y-11293222D01*
X18796373Y-11293222D02*
X18796373Y-11397984D01*
X18920182Y-11397984D02*
X18901134Y-11388460D01*
X18901134Y-11388460D02*
X18891611Y-11378936D01*
X18891611Y-11378936D02*
X18882087Y-11359888D01*
X18882087Y-11359888D02*
X18882087Y-11302746D01*
X18882087Y-11302746D02*
X18891611Y-11283698D01*
X18891611Y-11283698D02*
X18901134Y-11274174D01*
X18901134Y-11274174D02*
X18920182Y-11264650D01*
X18920182Y-11264650D02*
X18948754Y-11264650D01*
X18948754Y-11264650D02*
X18967801Y-11274174D01*
X18967801Y-11274174D02*
X18977325Y-11283698D01*
X18977325Y-11283698D02*
X18986849Y-11302746D01*
X18986849Y-11302746D02*
X18986849Y-11359888D01*
X18986849Y-11359888D02*
X18977325Y-11378936D01*
X18977325Y-11378936D02*
X18967801Y-11388460D01*
X18967801Y-11388460D02*
X18948754Y-11397984D01*
X18948754Y-11397984D02*
X18920182Y-11397984D01*
X19043992Y-11264650D02*
X19120182Y-11264650D01*
X19072563Y-11197984D02*
X19072563Y-11369412D01*
X19072563Y-11369412D02*
X19082087Y-11388460D01*
X19082087Y-11388460D02*
X19101134Y-11397984D01*
X19101134Y-11397984D02*
X19120182Y-11397984D01*
X19339230Y-11264650D02*
X19339230Y-11464650D01*
X19339230Y-11274174D02*
X19358277Y-11264650D01*
X19358277Y-11264650D02*
X19396373Y-11264650D01*
X19396373Y-11264650D02*
X19415420Y-11274174D01*
X19415420Y-11274174D02*
X19424944Y-11283698D01*
X19424944Y-11283698D02*
X19434468Y-11302746D01*
X19434468Y-11302746D02*
X19434468Y-11359888D01*
X19434468Y-11359888D02*
X19424944Y-11378936D01*
X19424944Y-11378936D02*
X19415420Y-11388460D01*
X19415420Y-11388460D02*
X19396373Y-11397984D01*
X19396373Y-11397984D02*
X19358277Y-11397984D01*
X19358277Y-11397984D02*
X19339230Y-11388460D01*
X19548754Y-11397984D02*
X19529706Y-11388460D01*
X19529706Y-11388460D02*
X19520182Y-11369412D01*
X19520182Y-11369412D02*
X19520182Y-11197984D01*
X19710658Y-11397984D02*
X19710658Y-11293222D01*
X19710658Y-11293222D02*
X19701135Y-11274174D01*
X19701135Y-11274174D02*
X19682087Y-11264650D01*
X19682087Y-11264650D02*
X19643992Y-11264650D01*
X19643992Y-11264650D02*
X19624944Y-11274174D01*
X19710658Y-11388460D02*
X19691611Y-11397984D01*
X19691611Y-11397984D02*
X19643992Y-11397984D01*
X19643992Y-11397984D02*
X19624944Y-11388460D01*
X19624944Y-11388460D02*
X19615420Y-11369412D01*
X19615420Y-11369412D02*
X19615420Y-11350365D01*
X19615420Y-11350365D02*
X19624944Y-11331317D01*
X19624944Y-11331317D02*
X19643992Y-11321793D01*
X19643992Y-11321793D02*
X19691611Y-11321793D01*
X19691611Y-11321793D02*
X19710658Y-11312269D01*
X19777325Y-11264650D02*
X19853515Y-11264650D01*
X19805896Y-11197984D02*
X19805896Y-11369412D01*
X19805896Y-11369412D02*
X19815420Y-11388460D01*
X19815420Y-11388460D02*
X19834468Y-11397984D01*
X19834468Y-11397984D02*
X19853515Y-11397984D01*
X19996373Y-11388460D02*
X19977325Y-11397984D01*
X19977325Y-11397984D02*
X19939230Y-11397984D01*
X19939230Y-11397984D02*
X19920182Y-11388460D01*
X19920182Y-11388460D02*
X19910658Y-11369412D01*
X19910658Y-11369412D02*
X19910658Y-11293222D01*
X19910658Y-11293222D02*
X19920182Y-11274174D01*
X19920182Y-11274174D02*
X19939230Y-11264650D01*
X19939230Y-11264650D02*
X19977325Y-11264650D01*
X19977325Y-11264650D02*
X19996373Y-11274174D01*
X19996373Y-11274174D02*
X20005896Y-11293222D01*
X20005896Y-11293222D02*
X20005896Y-11312269D01*
X20005896Y-11312269D02*
X19910658Y-11331317D01*
X20177325Y-11397984D02*
X20177325Y-11197984D01*
X20177325Y-11388460D02*
X20158277Y-11397984D01*
X20158277Y-11397984D02*
X20120182Y-11397984D01*
X20120182Y-11397984D02*
X20101135Y-11388460D01*
X20101135Y-11388460D02*
X20091611Y-11378936D01*
X20091611Y-11378936D02*
X20082087Y-11359888D01*
X20082087Y-11359888D02*
X20082087Y-11302746D01*
X20082087Y-11302746D02*
X20091611Y-11283698D01*
X20091611Y-11283698D02*
X20101135Y-11274174D01*
X20101135Y-11274174D02*
X20120182Y-11264650D01*
X20120182Y-11264650D02*
X20158277Y-11264650D01*
X20158277Y-11264650D02*
X20177325Y-11274174D01*
X20253516Y-11474174D02*
X20263039Y-11464650D01*
X20263039Y-11464650D02*
X20282087Y-11436079D01*
X20282087Y-11436079D02*
X20291611Y-11417031D01*
X20291611Y-11417031D02*
X20301135Y-11388460D01*
X20301135Y-11388460D02*
X20310658Y-11340841D01*
X20310658Y-11340841D02*
X20310658Y-11302746D01*
X20310658Y-11302746D02*
X20301135Y-11255127D01*
X20301135Y-11255127D02*
X20291611Y-11226555D01*
X20291611Y-11226555D02*
X20282087Y-11207508D01*
X20282087Y-11207508D02*
X20263039Y-11178936D01*
X20263039Y-11178936D02*
X20253516Y-11169412D01*
X13468211Y-11697211D02*
X13468211Y-11555789D01*
X13326789Y-11555789D01*
X13326789Y-11697211D01*
X13468211Y-11697211D01*
X13863039Y-11717984D02*
X13748753Y-11717984D01*
X13805896Y-11717984D02*
X13805896Y-11517984D01*
X13805896Y-11517984D02*
X13786848Y-11546555D01*
X13786848Y-11546555D02*
X13767801Y-11565603D01*
X13767801Y-11565603D02*
X13748753Y-11575127D01*
X13939229Y-11537031D02*
X13948753Y-11527508D01*
X13948753Y-11527508D02*
X13967801Y-11517984D01*
X13967801Y-11517984D02*
X14015420Y-11517984D01*
X14015420Y-11517984D02*
X14034467Y-11527508D01*
X14034467Y-11527508D02*
X14043991Y-11537031D01*
X14043991Y-11537031D02*
X14053515Y-11556079D01*
X14053515Y-11556079D02*
X14053515Y-11575127D01*
X14053515Y-11575127D02*
X14043991Y-11603698D01*
X14043991Y-11603698D02*
X13929705Y-11717984D01*
X13929705Y-11717984D02*
X14053515Y-11717984D01*
X14139229Y-11698936D02*
X14148753Y-11708460D01*
X14148753Y-11708460D02*
X14139229Y-11717984D01*
X14139229Y-11717984D02*
X14129705Y-11708460D01*
X14129705Y-11708460D02*
X14139229Y-11698936D01*
X14139229Y-11698936D02*
X14139229Y-11717984D01*
X14272562Y-11517984D02*
X14291610Y-11517984D01*
X14291610Y-11517984D02*
X14310658Y-11527508D01*
X14310658Y-11527508D02*
X14320182Y-11537031D01*
X14320182Y-11537031D02*
X14329705Y-11556079D01*
X14329705Y-11556079D02*
X14339229Y-11594174D01*
X14339229Y-11594174D02*
X14339229Y-11641793D01*
X14339229Y-11641793D02*
X14329705Y-11679888D01*
X14329705Y-11679888D02*
X14320182Y-11698936D01*
X14320182Y-11698936D02*
X14310658Y-11708460D01*
X14310658Y-11708460D02*
X14291610Y-11717984D01*
X14291610Y-11717984D02*
X14272562Y-11717984D01*
X14272562Y-11717984D02*
X14253515Y-11708460D01*
X14253515Y-11708460D02*
X14243991Y-11698936D01*
X14243991Y-11698936D02*
X14234467Y-11679888D01*
X14234467Y-11679888D02*
X14224943Y-11641793D01*
X14224943Y-11641793D02*
X14224943Y-11594174D01*
X14224943Y-11594174D02*
X14234467Y-11556079D01*
X14234467Y-11556079D02*
X14243991Y-11537031D01*
X14243991Y-11537031D02*
X14253515Y-11527508D01*
X14253515Y-11527508D02*
X14272562Y-11517984D01*
X14463039Y-11517984D02*
X14482086Y-11517984D01*
X14482086Y-11517984D02*
X14501134Y-11527508D01*
X14501134Y-11527508D02*
X14510658Y-11537031D01*
X14510658Y-11537031D02*
X14520182Y-11556079D01*
X14520182Y-11556079D02*
X14529705Y-11594174D01*
X14529705Y-11594174D02*
X14529705Y-11641793D01*
X14529705Y-11641793D02*
X14520182Y-11679888D01*
X14520182Y-11679888D02*
X14510658Y-11698936D01*
X14510658Y-11698936D02*
X14501134Y-11708460D01*
X14501134Y-11708460D02*
X14482086Y-11717984D01*
X14482086Y-11717984D02*
X14463039Y-11717984D01*
X14463039Y-11717984D02*
X14443991Y-11708460D01*
X14443991Y-11708460D02*
X14434467Y-11698936D01*
X14434467Y-11698936D02*
X14424943Y-11679888D01*
X14424943Y-11679888D02*
X14415420Y-11641793D01*
X14415420Y-11641793D02*
X14415420Y-11594174D01*
X14415420Y-11594174D02*
X14424943Y-11556079D01*
X14424943Y-11556079D02*
X14434467Y-11537031D01*
X14434467Y-11537031D02*
X14443991Y-11527508D01*
X14443991Y-11527508D02*
X14463039Y-11517984D01*
X14653515Y-11517984D02*
X14672563Y-11517984D01*
X14672563Y-11517984D02*
X14691610Y-11527508D01*
X14691610Y-11527508D02*
X14701134Y-11537031D01*
X14701134Y-11537031D02*
X14710658Y-11556079D01*
X14710658Y-11556079D02*
X14720182Y-11594174D01*
X14720182Y-11594174D02*
X14720182Y-11641793D01*
X14720182Y-11641793D02*
X14710658Y-11679888D01*
X14710658Y-11679888D02*
X14701134Y-11698936D01*
X14701134Y-11698936D02*
X14691610Y-11708460D01*
X14691610Y-11708460D02*
X14672563Y-11717984D01*
X14672563Y-11717984D02*
X14653515Y-11717984D01*
X14653515Y-11717984D02*
X14634467Y-11708460D01*
X14634467Y-11708460D02*
X14624943Y-11698936D01*
X14624943Y-11698936D02*
X14615420Y-11679888D01*
X14615420Y-11679888D02*
X14605896Y-11641793D01*
X14605896Y-11641793D02*
X14605896Y-11594174D01*
X14605896Y-11594174D02*
X14615420Y-11556079D01*
X14615420Y-11556079D02*
X14624943Y-11537031D01*
X14624943Y-11537031D02*
X14634467Y-11527508D01*
X14634467Y-11527508D02*
X14653515Y-11517984D01*
X14805896Y-11717984D02*
X14805896Y-11584650D01*
X14805896Y-11603698D02*
X14815420Y-11594174D01*
X14815420Y-11594174D02*
X14834467Y-11584650D01*
X14834467Y-11584650D02*
X14863039Y-11584650D01*
X14863039Y-11584650D02*
X14882086Y-11594174D01*
X14882086Y-11594174D02*
X14891610Y-11613222D01*
X14891610Y-11613222D02*
X14891610Y-11717984D01*
X14891610Y-11613222D02*
X14901134Y-11594174D01*
X14901134Y-11594174D02*
X14920182Y-11584650D01*
X14920182Y-11584650D02*
X14948753Y-11584650D01*
X14948753Y-11584650D02*
X14967801Y-11594174D01*
X14967801Y-11594174D02*
X14977324Y-11613222D01*
X14977324Y-11613222D02*
X14977324Y-11717984D01*
X15072563Y-11717984D02*
X15072563Y-11584650D01*
X15072563Y-11603698D02*
X15082086Y-11594174D01*
X15082086Y-11594174D02*
X15101134Y-11584650D01*
X15101134Y-11584650D02*
X15129705Y-11584650D01*
X15129705Y-11584650D02*
X15148753Y-11594174D01*
X15148753Y-11594174D02*
X15158277Y-11613222D01*
X15158277Y-11613222D02*
X15158277Y-11717984D01*
X15158277Y-11613222D02*
X15167801Y-11594174D01*
X15167801Y-11594174D02*
X15186848Y-11584650D01*
X15186848Y-11584650D02*
X15215420Y-11584650D01*
X15215420Y-11584650D02*
X15234467Y-11594174D01*
X15234467Y-11594174D02*
X15243991Y-11613222D01*
X15243991Y-11613222D02*
X15243991Y-11717984D01*
X15634467Y-11508460D02*
X15463039Y-11765603D01*
X15891610Y-11517984D02*
X15910658Y-11517984D01*
X15910658Y-11517984D02*
X15929706Y-11527508D01*
X15929706Y-11527508D02*
X15939229Y-11537031D01*
X15939229Y-11537031D02*
X15948753Y-11556079D01*
X15948753Y-11556079D02*
X15958277Y-11594174D01*
X15958277Y-11594174D02*
X15958277Y-11641793D01*
X15958277Y-11641793D02*
X15948753Y-11679888D01*
X15948753Y-11679888D02*
X15939229Y-11698936D01*
X15939229Y-11698936D02*
X15929706Y-11708460D01*
X15929706Y-11708460D02*
X15910658Y-11717984D01*
X15910658Y-11717984D02*
X15891610Y-11717984D01*
X15891610Y-11717984D02*
X15872563Y-11708460D01*
X15872563Y-11708460D02*
X15863039Y-11698936D01*
X15863039Y-11698936D02*
X15853515Y-11679888D01*
X15853515Y-11679888D02*
X15843991Y-11641793D01*
X15843991Y-11641793D02*
X15843991Y-11594174D01*
X15843991Y-11594174D02*
X15853515Y-11556079D01*
X15853515Y-11556079D02*
X15863039Y-11537031D01*
X15863039Y-11537031D02*
X15872563Y-11527508D01*
X15872563Y-11527508D02*
X15891610Y-11517984D01*
X16043991Y-11698936D02*
X16053515Y-11708460D01*
X16053515Y-11708460D02*
X16043991Y-11717984D01*
X16043991Y-11717984D02*
X16034467Y-11708460D01*
X16034467Y-11708460D02*
X16043991Y-11698936D01*
X16043991Y-11698936D02*
X16043991Y-11717984D01*
X16224944Y-11584650D02*
X16224944Y-11717984D01*
X16177325Y-11508460D02*
X16129706Y-11651317D01*
X16129706Y-11651317D02*
X16253515Y-11651317D01*
X16310658Y-11517984D02*
X16443991Y-11517984D01*
X16443991Y-11517984D02*
X16358277Y-11717984D01*
X16510658Y-11537031D02*
X16520182Y-11527508D01*
X16520182Y-11527508D02*
X16539229Y-11517984D01*
X16539229Y-11517984D02*
X16586848Y-11517984D01*
X16586848Y-11517984D02*
X16605896Y-11527508D01*
X16605896Y-11527508D02*
X16615420Y-11537031D01*
X16615420Y-11537031D02*
X16624944Y-11556079D01*
X16624944Y-11556079D02*
X16624944Y-11575127D01*
X16624944Y-11575127D02*
X16615420Y-11603698D01*
X16615420Y-11603698D02*
X16501134Y-11717984D01*
X16501134Y-11717984D02*
X16624944Y-11717984D01*
X16796372Y-11584650D02*
X16796372Y-11717984D01*
X16748753Y-11508460D02*
X16701134Y-11651317D01*
X16701134Y-11651317D02*
X16824944Y-11651317D01*
X16891610Y-11517984D02*
X16891610Y-11556079D01*
X16967801Y-11517984D02*
X16967801Y-11556079D01*
X17263039Y-11794174D02*
X17253515Y-11784650D01*
X17253515Y-11784650D02*
X17234468Y-11756079D01*
X17234468Y-11756079D02*
X17224944Y-11737031D01*
X17224944Y-11737031D02*
X17215420Y-11708460D01*
X17215420Y-11708460D02*
X17205896Y-11660841D01*
X17205896Y-11660841D02*
X17205896Y-11622746D01*
X17205896Y-11622746D02*
X17215420Y-11575127D01*
X17215420Y-11575127D02*
X17224944Y-11546555D01*
X17224944Y-11546555D02*
X17234468Y-11527508D01*
X17234468Y-11527508D02*
X17253515Y-11498936D01*
X17253515Y-11498936D02*
X17263039Y-11489412D01*
X17443991Y-11717984D02*
X17329706Y-11717984D01*
X17386849Y-11717984D02*
X17386849Y-11517984D01*
X17386849Y-11517984D02*
X17367801Y-11546555D01*
X17367801Y-11546555D02*
X17348753Y-11565603D01*
X17348753Y-11565603D02*
X17329706Y-11575127D01*
X17682087Y-11717984D02*
X17682087Y-11517984D01*
X17767801Y-11717984D02*
X17767801Y-11613222D01*
X17767801Y-11613222D02*
X17758277Y-11594174D01*
X17758277Y-11594174D02*
X17739230Y-11584650D01*
X17739230Y-11584650D02*
X17710658Y-11584650D01*
X17710658Y-11584650D02*
X17691611Y-11594174D01*
X17691611Y-11594174D02*
X17682087Y-11603698D01*
X17891611Y-11717984D02*
X17872563Y-11708460D01*
X17872563Y-11708460D02*
X17863039Y-11698936D01*
X17863039Y-11698936D02*
X17853515Y-11679888D01*
X17853515Y-11679888D02*
X17853515Y-11622746D01*
X17853515Y-11622746D02*
X17863039Y-11603698D01*
X17863039Y-11603698D02*
X17872563Y-11594174D01*
X17872563Y-11594174D02*
X17891611Y-11584650D01*
X17891611Y-11584650D02*
X17920182Y-11584650D01*
X17920182Y-11584650D02*
X17939230Y-11594174D01*
X17939230Y-11594174D02*
X17948753Y-11603698D01*
X17948753Y-11603698D02*
X17958277Y-11622746D01*
X17958277Y-11622746D02*
X17958277Y-11679888D01*
X17958277Y-11679888D02*
X17948753Y-11698936D01*
X17948753Y-11698936D02*
X17939230Y-11708460D01*
X17939230Y-11708460D02*
X17920182Y-11717984D01*
X17920182Y-11717984D02*
X17891611Y-11717984D01*
X18072563Y-11717984D02*
X18053515Y-11708460D01*
X18053515Y-11708460D02*
X18043992Y-11689412D01*
X18043992Y-11689412D02*
X18043992Y-11517984D01*
X18224944Y-11708460D02*
X18205896Y-11717984D01*
X18205896Y-11717984D02*
X18167801Y-11717984D01*
X18167801Y-11717984D02*
X18148753Y-11708460D01*
X18148753Y-11708460D02*
X18139230Y-11689412D01*
X18139230Y-11689412D02*
X18139230Y-11613222D01*
X18139230Y-11613222D02*
X18148753Y-11594174D01*
X18148753Y-11594174D02*
X18167801Y-11584650D01*
X18167801Y-11584650D02*
X18205896Y-11584650D01*
X18205896Y-11584650D02*
X18224944Y-11594174D01*
X18224944Y-11594174D02*
X18234468Y-11613222D01*
X18234468Y-11613222D02*
X18234468Y-11632269D01*
X18234468Y-11632269D02*
X18139230Y-11651317D01*
X18301134Y-11794174D02*
X18310658Y-11784650D01*
X18310658Y-11784650D02*
X18329706Y-11756079D01*
X18329706Y-11756079D02*
X18339230Y-11737031D01*
X18339230Y-11737031D02*
X18348753Y-11708460D01*
X18348753Y-11708460D02*
X18358277Y-11660841D01*
X18358277Y-11660841D02*
X18358277Y-11622746D01*
X18358277Y-11622746D02*
X18348753Y-11575127D01*
X18348753Y-11575127D02*
X18339230Y-11546555D01*
X18339230Y-11546555D02*
X18329706Y-11527508D01*
X18329706Y-11527508D02*
X18310658Y-11498936D01*
X18310658Y-11498936D02*
X18301134Y-11489412D01*
X18663039Y-11794174D02*
X18653515Y-11784650D01*
X18653515Y-11784650D02*
X18634468Y-11756079D01*
X18634468Y-11756079D02*
X18624944Y-11737031D01*
X18624944Y-11737031D02*
X18615420Y-11708460D01*
X18615420Y-11708460D02*
X18605896Y-11660841D01*
X18605896Y-11660841D02*
X18605896Y-11622746D01*
X18605896Y-11622746D02*
X18615420Y-11575127D01*
X18615420Y-11575127D02*
X18624944Y-11546555D01*
X18624944Y-11546555D02*
X18634468Y-11527508D01*
X18634468Y-11527508D02*
X18653515Y-11498936D01*
X18653515Y-11498936D02*
X18663039Y-11489412D01*
X18739230Y-11584650D02*
X18739230Y-11717984D01*
X18739230Y-11603698D02*
X18748753Y-11594174D01*
X18748753Y-11594174D02*
X18767801Y-11584650D01*
X18767801Y-11584650D02*
X18796373Y-11584650D01*
X18796373Y-11584650D02*
X18815420Y-11594174D01*
X18815420Y-11594174D02*
X18824944Y-11613222D01*
X18824944Y-11613222D02*
X18824944Y-11717984D01*
X18948753Y-11717984D02*
X18929706Y-11708460D01*
X18929706Y-11708460D02*
X18920182Y-11698936D01*
X18920182Y-11698936D02*
X18910658Y-11679888D01*
X18910658Y-11679888D02*
X18910658Y-11622746D01*
X18910658Y-11622746D02*
X18920182Y-11603698D01*
X18920182Y-11603698D02*
X18929706Y-11594174D01*
X18929706Y-11594174D02*
X18948753Y-11584650D01*
X18948753Y-11584650D02*
X18977325Y-11584650D01*
X18977325Y-11584650D02*
X18996373Y-11594174D01*
X18996373Y-11594174D02*
X19005896Y-11603698D01*
X19005896Y-11603698D02*
X19015420Y-11622746D01*
X19015420Y-11622746D02*
X19015420Y-11679888D01*
X19015420Y-11679888D02*
X19005896Y-11698936D01*
X19005896Y-11698936D02*
X18996373Y-11708460D01*
X18996373Y-11708460D02*
X18977325Y-11717984D01*
X18977325Y-11717984D02*
X18948753Y-11717984D01*
X19072563Y-11584650D02*
X19148753Y-11584650D01*
X19101134Y-11517984D02*
X19101134Y-11689412D01*
X19101134Y-11689412D02*
X19110658Y-11708460D01*
X19110658Y-11708460D02*
X19129706Y-11717984D01*
X19129706Y-11717984D02*
X19148753Y-11717984D01*
X19367801Y-11584650D02*
X19367801Y-11784650D01*
X19367801Y-11594174D02*
X19386849Y-11584650D01*
X19386849Y-11584650D02*
X19424944Y-11584650D01*
X19424944Y-11584650D02*
X19443992Y-11594174D01*
X19443992Y-11594174D02*
X19453515Y-11603698D01*
X19453515Y-11603698D02*
X19463039Y-11622746D01*
X19463039Y-11622746D02*
X19463039Y-11679888D01*
X19463039Y-11679888D02*
X19453515Y-11698936D01*
X19453515Y-11698936D02*
X19443992Y-11708460D01*
X19443992Y-11708460D02*
X19424944Y-11717984D01*
X19424944Y-11717984D02*
X19386849Y-11717984D01*
X19386849Y-11717984D02*
X19367801Y-11708460D01*
X19577325Y-11717984D02*
X19558277Y-11708460D01*
X19558277Y-11708460D02*
X19548754Y-11689412D01*
X19548754Y-11689412D02*
X19548754Y-11517984D01*
X19739230Y-11717984D02*
X19739230Y-11613222D01*
X19739230Y-11613222D02*
X19729706Y-11594174D01*
X19729706Y-11594174D02*
X19710658Y-11584650D01*
X19710658Y-11584650D02*
X19672563Y-11584650D01*
X19672563Y-11584650D02*
X19653515Y-11594174D01*
X19739230Y-11708460D02*
X19720182Y-11717984D01*
X19720182Y-11717984D02*
X19672563Y-11717984D01*
X19672563Y-11717984D02*
X19653515Y-11708460D01*
X19653515Y-11708460D02*
X19643992Y-11689412D01*
X19643992Y-11689412D02*
X19643992Y-11670365D01*
X19643992Y-11670365D02*
X19653515Y-11651317D01*
X19653515Y-11651317D02*
X19672563Y-11641793D01*
X19672563Y-11641793D02*
X19720182Y-11641793D01*
X19720182Y-11641793D02*
X19739230Y-11632269D01*
X19805896Y-11584650D02*
X19882087Y-11584650D01*
X19834468Y-11517984D02*
X19834468Y-11689412D01*
X19834468Y-11689412D02*
X19843992Y-11708460D01*
X19843992Y-11708460D02*
X19863039Y-11717984D01*
X19863039Y-11717984D02*
X19882087Y-11717984D01*
X20024944Y-11708460D02*
X20005896Y-11717984D01*
X20005896Y-11717984D02*
X19967801Y-11717984D01*
X19967801Y-11717984D02*
X19948754Y-11708460D01*
X19948754Y-11708460D02*
X19939230Y-11689412D01*
X19939230Y-11689412D02*
X19939230Y-11613222D01*
X19939230Y-11613222D02*
X19948754Y-11594174D01*
X19948754Y-11594174D02*
X19967801Y-11584650D01*
X19967801Y-11584650D02*
X20005896Y-11584650D01*
X20005896Y-11584650D02*
X20024944Y-11594174D01*
X20024944Y-11594174D02*
X20034468Y-11613222D01*
X20034468Y-11613222D02*
X20034468Y-11632269D01*
X20034468Y-11632269D02*
X19939230Y-11651317D01*
X20205896Y-11717984D02*
X20205896Y-11517984D01*
X20205896Y-11708460D02*
X20186849Y-11717984D01*
X20186849Y-11717984D02*
X20148754Y-11717984D01*
X20148754Y-11717984D02*
X20129706Y-11708460D01*
X20129706Y-11708460D02*
X20120182Y-11698936D01*
X20120182Y-11698936D02*
X20110658Y-11679888D01*
X20110658Y-11679888D02*
X20110658Y-11622746D01*
X20110658Y-11622746D02*
X20120182Y-11603698D01*
X20120182Y-11603698D02*
X20129706Y-11594174D01*
X20129706Y-11594174D02*
X20148754Y-11584650D01*
X20148754Y-11584650D02*
X20186849Y-11584650D01*
X20186849Y-11584650D02*
X20205896Y-11594174D01*
X20282087Y-11794174D02*
X20291611Y-11784650D01*
X20291611Y-11784650D02*
X20310658Y-11756079D01*
X20310658Y-11756079D02*
X20320182Y-11737031D01*
X20320182Y-11737031D02*
X20329706Y-11708460D01*
X20329706Y-11708460D02*
X20339230Y-11660841D01*
X20339230Y-11660841D02*
X20339230Y-11622746D01*
X20339230Y-11622746D02*
X20329706Y-11575127D01*
X20329706Y-11575127D02*
X20320182Y-11546555D01*
X20320182Y-11546555D02*
X20310658Y-11527508D01*
X20310658Y-11527508D02*
X20291611Y-11498936D01*
X20291611Y-11498936D02*
X20282087Y-11489412D01*
M02*
