%TF.GenerationSoftware,KiCad,Pcbnew,8.0.3*%
%TF.CreationDate,2024-07-14T16:13:23+03:00*%
%TF.ProjectId,TFT_Adapter,5446545f-4164-4617-9074-65722e6b6963,rev?*%
%TF.SameCoordinates,Original*%
%TF.FileFunction,Copper,L1,Top*%
%TF.FilePolarity,Positive*%
%FSLAX46Y46*%
G04 Gerber Fmt 4.6, Leading zero omitted, Abs format (unit mm)*
G04 Created by KiCad (PCBNEW 8.0.3) date 2024-07-14 16:13:23*
%MOMM*%
%LPD*%
G01*
G04 APERTURE LIST*
G04 Aperture macros list*
%AMRoundRect*
0 Rectangle with rounded corners*
0 $1 Rounding radius*
0 $2 $3 $4 $5 $6 $7 $8 $9 X,Y pos of 4 corners*
0 Add a 4 corners polygon primitive as box body*
4,1,4,$2,$3,$4,$5,$6,$7,$8,$9,$2,$3,0*
0 Add four circle primitives for the rounded corners*
1,1,$1+$1,$2,$3*
1,1,$1+$1,$4,$5*
1,1,$1+$1,$6,$7*
1,1,$1+$1,$8,$9*
0 Add four rect primitives between the rounded corners*
20,1,$1+$1,$2,$3,$4,$5,0*
20,1,$1+$1,$4,$5,$6,$7,0*
20,1,$1+$1,$6,$7,$8,$9,0*
20,1,$1+$1,$8,$9,$2,$3,0*%
G04 Aperture macros list end*
%TA.AperFunction,SMDPad,CuDef*%
%ADD10RoundRect,0.250000X-0.750000X-0.250000X0.750000X-0.250000X0.750000X0.250000X-0.750000X0.250000X0*%
%TD*%
%TA.AperFunction,SMDPad,CuDef*%
%ADD11RoundRect,0.255000X-0.255000X-0.635000X0.255000X-0.635000X0.255000X0.635000X-0.255000X0.635000X0*%
%TD*%
%TA.AperFunction,ViaPad*%
%ADD12C,0.700000*%
%TD*%
%TA.AperFunction,Conductor*%
%ADD13C,0.127000*%
%TD*%
%TA.AperFunction,Conductor*%
%ADD14C,0.254000*%
%TD*%
G04 APERTURE END LIST*
D10*
%TO.P,PAD12,1*%
%TO.N,/DC*%
X160000000Y-74000000D03*
%TD*%
%TO.P,PAD11,1*%
%TO.N,/D0*%
X160000000Y-77000000D03*
%TD*%
%TO.P,PAD10,1*%
%TO.N,/D1*%
X160000000Y-80000000D03*
%TD*%
%TO.P,PAD9,1*%
%TO.N,/D2*%
X160000000Y-83000000D03*
%TD*%
%TO.P,PAD8,1*%
%TO.N,/D3*%
X160000000Y-86000000D03*
%TD*%
%TO.P,PAD7,1*%
%TO.N,/D4*%
X160000000Y-89000000D03*
%TD*%
%TO.P,PAD6,1*%
%TO.N,/WRX*%
X138000000Y-89000000D03*
%TD*%
%TO.P,PAD5,1*%
%TO.N,/D5*%
X138000000Y-86000000D03*
%TD*%
%TO.P,PAD4,1*%
%TO.N,/D6*%
X138000000Y-83000000D03*
%TD*%
%TO.P,PAD3,1*%
%TO.N,/D7*%
X138000000Y-80000000D03*
%TD*%
%TO.P,PAD2,1*%
%TO.N,/VCC*%
X138000000Y-77000000D03*
%TD*%
%TO.P,PAD1,1*%
%TO.N,GND*%
X138000000Y-74000000D03*
%TD*%
D11*
%TO.P,J1,1,1*%
%TO.N,/VCC*%
X138840000Y-67382000D03*
%TO.P,J1,2,2*%
%TO.N,GND*%
X138840000Y-61562000D03*
%TO.P,J1,3,3*%
%TO.N,unconnected-(J1-Pad3)*%
X141380000Y-67382000D03*
%TO.P,J1,4,4*%
%TO.N,unconnected-(J1-Pad4)*%
X141380000Y-61562000D03*
%TO.P,J1,5,5*%
%TO.N,/D7*%
X143920000Y-67382000D03*
%TO.P,J1,6,6*%
%TO.N,/D6*%
X143920000Y-61562000D03*
%TO.P,J1,7,7*%
%TO.N,/VCC*%
X146460000Y-67382000D03*
%TO.P,J1,8,8*%
%TO.N,/D5*%
X146460000Y-61562000D03*
%TO.P,J1,9,9*%
%TO.N,/D4*%
X149000000Y-67382000D03*
%TO.P,J1,10,10*%
%TO.N,/D3*%
X149000000Y-61562000D03*
%TO.P,J1,11,11*%
%TO.N,/D2*%
X151540000Y-67382000D03*
%TO.P,J1,12,12*%
%TO.N,/D1*%
X151540000Y-61562000D03*
%TO.P,J1,13,13*%
%TO.N,/D0*%
X154080000Y-67382000D03*
%TO.P,J1,14,14*%
%TO.N,unconnected-(J1-Pad14)*%
X154080000Y-61562000D03*
%TO.P,J1,15,15*%
%TO.N,/VCC*%
X156620000Y-67382000D03*
%TO.P,J1,16,16*%
%TO.N,/WRX*%
X156620000Y-61562000D03*
%TO.P,J1,17,17*%
%TO.N,/DC*%
X159160000Y-67382000D03*
%TO.P,J1,18,18*%
%TO.N,GND*%
X159160000Y-61562000D03*
%TD*%
D12*
%TO.N,/WRX*%
X155500000Y-61459500D03*
X139500000Y-89000000D03*
%TO.N,GND*%
X142500000Y-71500000D03*
X138000000Y-78500000D03*
X138000000Y-81600000D03*
X138000000Y-84600000D03*
X138000000Y-87700000D03*
X160000000Y-87800000D03*
X160000000Y-84600000D03*
X160000000Y-75500000D03*
X160000000Y-78500000D03*
X160000000Y-81600000D03*
X161300000Y-61600000D03*
X161300000Y-71000000D03*
X158100000Y-71000000D03*
X150800000Y-69700000D03*
X154700000Y-71000000D03*
X147600000Y-72000000D03*
X146700000Y-72000000D03*
X145800000Y-72000000D03*
X138000000Y-75500000D03*
X138000000Y-72000000D03*
X140400000Y-69700000D03*
X143700000Y-70000000D03*
X137000000Y-61500000D03*
%TO.N,/D6*%
X142700000Y-63000000D03*
X139400000Y-83000000D03*
%TO.N,/D1*%
X152800000Y-63000000D03*
X158500000Y-80000000D03*
%TO.N,/D3*%
X150300000Y-63000000D03*
X158600000Y-86000000D03*
%TO.N,/VCC*%
X156600000Y-68900000D03*
X146500000Y-68900000D03*
X139500000Y-77000000D03*
X138900000Y-68900000D03*
%TD*%
D13*
%TO.N,/D6*%
X142700000Y-62782000D02*
X143920000Y-61562000D01*
X142700000Y-63000000D02*
X142700000Y-62782000D01*
%TO.N,/D3*%
X150300000Y-62862000D02*
X149000000Y-61562000D01*
X150300000Y-63000000D02*
X150300000Y-62862000D01*
%TO.N,/D1*%
X152800000Y-62822000D02*
X151540000Y-61562000D01*
X152800000Y-63000000D02*
X152800000Y-62822000D01*
%TO.N,/WRX*%
X155602500Y-61562000D02*
X156620000Y-61562000D01*
X155500000Y-61459500D02*
X155602500Y-61562000D01*
X138000000Y-89000000D02*
X139500000Y-89000000D01*
%TO.N,/D6*%
X138000000Y-83000000D02*
X139400000Y-83000000D01*
%TO.N,/D0*%
X154080000Y-68880000D02*
X158000000Y-72800000D01*
X154080000Y-67382000D02*
X154080000Y-68880000D01*
X158000000Y-75000000D02*
X158000000Y-72800000D01*
X160000000Y-77000000D02*
X158000000Y-75000000D01*
%TO.N,/D2*%
X157000000Y-75500000D02*
X151540000Y-70040000D01*
X157000000Y-81100000D02*
X157000000Y-75500000D01*
X158900000Y-83000000D02*
X157000000Y-81100000D01*
X151540000Y-70040000D02*
X151540000Y-67382000D01*
X160000000Y-83000000D02*
X158900000Y-83000000D01*
%TO.N,/D1*%
X160000000Y-80000000D02*
X158500000Y-80000000D01*
%TO.N,/D3*%
X160000000Y-86000000D02*
X158600000Y-86000000D01*
%TO.N,/D4*%
X155800000Y-76600000D02*
X149000000Y-69800000D01*
X155800000Y-86800000D02*
X155800000Y-76600000D01*
X158000000Y-89000000D02*
X155800000Y-86800000D01*
X160000000Y-89000000D02*
X158000000Y-89000000D01*
X149000000Y-69800000D02*
X149000000Y-67382000D01*
%TO.N,/DC*%
X159160000Y-69460000D02*
X159160000Y-67382000D01*
X160000000Y-70300000D02*
X159160000Y-69460000D01*
X160000000Y-74000000D02*
X160000000Y-70300000D01*
%TO.N,/D5*%
X145500000Y-69800000D02*
X145500000Y-62522000D01*
X145500000Y-62522000D02*
X146460000Y-61562000D01*
X142000000Y-73300000D02*
X145500000Y-69800000D01*
X142000000Y-82000000D02*
X142000000Y-73300000D01*
X138000000Y-86000000D02*
X142000000Y-82000000D01*
%TO.N,/D7*%
X140400000Y-70902000D02*
X140400000Y-71400000D01*
X143920000Y-67382000D02*
X140400000Y-70902000D01*
X140400000Y-71400000D02*
X140400000Y-71000000D01*
X140400000Y-72700000D02*
X140400000Y-71400000D01*
X140400000Y-77600000D02*
X140400000Y-72700000D01*
X138000000Y-80000000D02*
X140400000Y-77600000D01*
D14*
%TO.N,/VCC*%
X156620000Y-68880000D02*
X156600000Y-68900000D01*
X156620000Y-67382000D02*
X156620000Y-68880000D01*
X146460000Y-68860000D02*
X146500000Y-68900000D01*
X146460000Y-67382000D02*
X146460000Y-68860000D01*
X138840000Y-68840000D02*
X138900000Y-68900000D01*
X138840000Y-67382000D02*
X138840000Y-68840000D01*
X138000000Y-77000000D02*
X139500000Y-77000000D01*
%TD*%
%TA.AperFunction,Conductor*%
%TO.N,GND*%
G36*
X162541621Y-59420502D02*
G01*
X162588114Y-59474158D01*
X162599500Y-59526500D01*
X162599500Y-100473500D01*
X162579498Y-100541621D01*
X162525842Y-100588114D01*
X162473500Y-100599500D01*
X135526500Y-100599500D01*
X135458379Y-100579498D01*
X135411886Y-100525842D01*
X135400500Y-100473500D01*
X135400500Y-98593394D01*
X136382500Y-98593394D01*
X136382500Y-98786606D01*
X136412725Y-98977440D01*
X136412726Y-98977445D01*
X136472429Y-99161192D01*
X136472431Y-99161197D01*
X136472432Y-99161198D01*
X136560149Y-99333351D01*
X136673715Y-99489664D01*
X136810335Y-99626284D01*
X136881156Y-99677737D01*
X136966650Y-99739852D01*
X137138803Y-99827569D01*
X137322560Y-99887275D01*
X137513394Y-99917500D01*
X137513397Y-99917500D01*
X137706603Y-99917500D01*
X137706606Y-99917500D01*
X137897440Y-99887275D01*
X138081197Y-99827569D01*
X138253350Y-99739852D01*
X138409663Y-99626285D01*
X138546285Y-99489663D01*
X138659852Y-99333350D01*
X138747569Y-99161197D01*
X138807275Y-98977440D01*
X138837500Y-98786606D01*
X138837500Y-98593394D01*
X159162500Y-98593394D01*
X159162500Y-98786606D01*
X159192725Y-98977440D01*
X159192726Y-98977445D01*
X159252429Y-99161192D01*
X159252431Y-99161197D01*
X159252432Y-99161198D01*
X159340149Y-99333351D01*
X159453715Y-99489664D01*
X159590335Y-99626284D01*
X159661156Y-99677737D01*
X159746650Y-99739852D01*
X159918803Y-99827569D01*
X160102560Y-99887275D01*
X160293394Y-99917500D01*
X160293397Y-99917500D01*
X160486603Y-99917500D01*
X160486606Y-99917500D01*
X160677440Y-99887275D01*
X160861197Y-99827569D01*
X161033350Y-99739852D01*
X161189663Y-99626285D01*
X161326285Y-99489663D01*
X161439852Y-99333350D01*
X161527569Y-99161197D01*
X161587275Y-98977440D01*
X161617500Y-98786606D01*
X161617500Y-98593394D01*
X161587275Y-98402560D01*
X161527569Y-98218803D01*
X161439852Y-98046650D01*
X161326285Y-97890337D01*
X161326284Y-97890335D01*
X161189664Y-97753715D01*
X161033351Y-97640149D01*
X161033352Y-97640149D01*
X161033350Y-97640148D01*
X160861197Y-97552431D01*
X160861194Y-97552430D01*
X160861192Y-97552429D01*
X160677445Y-97492726D01*
X160677441Y-97492725D01*
X160677440Y-97492725D01*
X160486606Y-97462500D01*
X160293394Y-97462500D01*
X160102560Y-97492725D01*
X160102554Y-97492726D01*
X159918807Y-97552429D01*
X159918801Y-97552432D01*
X159746648Y-97640149D01*
X159590335Y-97753715D01*
X159453715Y-97890335D01*
X159340149Y-98046648D01*
X159252432Y-98218801D01*
X159252429Y-98218807D01*
X159192726Y-98402554D01*
X159192725Y-98402559D01*
X159192725Y-98402560D01*
X159162500Y-98593394D01*
X138837500Y-98593394D01*
X138807275Y-98402560D01*
X138747569Y-98218803D01*
X138659852Y-98046650D01*
X138546285Y-97890337D01*
X138546284Y-97890335D01*
X138409664Y-97753715D01*
X138253351Y-97640149D01*
X138253352Y-97640149D01*
X138253350Y-97640148D01*
X138081197Y-97552431D01*
X138081194Y-97552430D01*
X138081192Y-97552429D01*
X137897445Y-97492726D01*
X137897441Y-97492725D01*
X137897440Y-97492725D01*
X137706606Y-97462500D01*
X137513394Y-97462500D01*
X137322560Y-97492725D01*
X137322554Y-97492726D01*
X137138807Y-97552429D01*
X137138801Y-97552432D01*
X136966648Y-97640149D01*
X136810335Y-97753715D01*
X136673715Y-97890335D01*
X136560149Y-98046648D01*
X136472432Y-98218801D01*
X136472429Y-98218807D01*
X136412726Y-98402554D01*
X136412725Y-98402559D01*
X136412725Y-98402560D01*
X136382500Y-98593394D01*
X135400500Y-98593394D01*
X135400500Y-88701737D01*
X136745500Y-88701737D01*
X136745500Y-89298246D01*
X136745502Y-89298270D01*
X136751959Y-89358339D01*
X136751959Y-89358341D01*
X136802657Y-89494266D01*
X136802658Y-89494267D01*
X136889596Y-89610404D01*
X137005733Y-89697342D01*
X137141658Y-89748040D01*
X137201745Y-89754500D01*
X138798254Y-89754499D01*
X138858342Y-89748040D01*
X138994267Y-89697342D01*
X139110404Y-89610404D01*
X139118870Y-89599093D01*
X139175703Y-89556546D01*
X139246518Y-89551478D01*
X139267957Y-89558191D01*
X139302191Y-89572370D01*
X139342194Y-89588940D01*
X139500000Y-89609716D01*
X139657806Y-89588940D01*
X139750536Y-89550530D01*
X139804857Y-89528031D01*
X139931134Y-89431134D01*
X140028031Y-89304857D01*
X140050530Y-89250536D01*
X140088940Y-89157806D01*
X140109716Y-89000000D01*
X140088940Y-88842194D01*
X140066439Y-88787872D01*
X140028031Y-88695142D01*
X139931134Y-88568865D01*
X139804857Y-88471968D01*
X139657806Y-88411060D01*
X139500000Y-88390284D01*
X139342193Y-88411060D01*
X139267958Y-88441809D01*
X139197369Y-88449398D01*
X139133882Y-88417618D01*
X139118876Y-88400914D01*
X139110404Y-88389596D01*
X139110402Y-88389595D01*
X139110402Y-88389594D01*
X139052004Y-88345878D01*
X138994267Y-88302658D01*
X138994265Y-88302657D01*
X138994266Y-88302657D01*
X138858349Y-88251962D01*
X138858344Y-88251960D01*
X138858342Y-88251960D01*
X138828298Y-88248730D01*
X138798256Y-88245500D01*
X137201753Y-88245500D01*
X137201729Y-88245502D01*
X137141660Y-88251959D01*
X137141658Y-88251959D01*
X137005733Y-88302657D01*
X136889596Y-88389596D01*
X136802657Y-88505734D01*
X136751962Y-88641650D01*
X136751960Y-88641658D01*
X136745500Y-88701737D01*
X135400500Y-88701737D01*
X135400500Y-82701737D01*
X136745500Y-82701737D01*
X136745500Y-83298246D01*
X136745502Y-83298270D01*
X136751959Y-83358339D01*
X136751959Y-83358341D01*
X136802657Y-83494266D01*
X136802658Y-83494267D01*
X136889596Y-83610404D01*
X137005733Y-83697342D01*
X137141658Y-83748040D01*
X137201745Y-83754500D01*
X138798254Y-83754499D01*
X138858342Y-83748040D01*
X138994267Y-83697342D01*
X139110404Y-83610404D01*
X139110404Y-83610403D01*
X139117619Y-83605003D01*
X139119792Y-83607906D01*
X139166862Y-83582154D01*
X139234188Y-83586914D01*
X139234218Y-83586803D01*
X139234796Y-83586957D01*
X139237682Y-83587162D01*
X139241938Y-83588834D01*
X139242194Y-83588940D01*
X139400000Y-83609716D01*
X139557806Y-83588940D01*
X139661455Y-83546008D01*
X139732045Y-83538419D01*
X139795531Y-83570199D01*
X139831758Y-83631257D01*
X139829224Y-83702209D01*
X139798767Y-83751512D01*
X138341683Y-85208595D01*
X138279371Y-85242621D01*
X138252588Y-85245500D01*
X137201753Y-85245500D01*
X137201729Y-85245502D01*
X137141660Y-85251959D01*
X137141658Y-85251959D01*
X137005733Y-85302657D01*
X136889596Y-85389596D01*
X136802657Y-85505734D01*
X136751962Y-85641650D01*
X136751960Y-85641658D01*
X136745500Y-85701737D01*
X136745500Y-86298246D01*
X136745502Y-86298270D01*
X136751959Y-86358339D01*
X136751959Y-86358341D01*
X136802657Y-86494266D01*
X136802658Y-86494267D01*
X136889596Y-86610404D01*
X137005733Y-86697342D01*
X137141658Y-86748040D01*
X137201745Y-86754500D01*
X138798254Y-86754499D01*
X138858342Y-86748040D01*
X138994267Y-86697342D01*
X139110404Y-86610404D01*
X139197342Y-86494267D01*
X139248040Y-86358342D01*
X139254500Y-86298255D01*
X139254499Y-85701746D01*
X139248040Y-85641658D01*
X139197342Y-85505733D01*
X139154304Y-85448241D01*
X139129495Y-85381722D01*
X139144587Y-85312348D01*
X139166075Y-85283643D01*
X142254463Y-82195257D01*
X142296328Y-82122744D01*
X142296329Y-82122743D01*
X142318000Y-82041865D01*
X142318000Y-79759250D01*
X142872500Y-79759250D01*
X142872500Y-80240750D01*
X142908434Y-80697342D01*
X142910279Y-80720775D01*
X142985599Y-81196328D01*
X142985599Y-81196329D01*
X142985600Y-81196336D01*
X142985601Y-81196338D01*
X143009349Y-81295256D01*
X143098007Y-81664544D01*
X143246794Y-82122464D01*
X143366335Y-82411059D01*
X143431059Y-82567317D01*
X143499550Y-82701737D01*
X143571115Y-82842193D01*
X143649656Y-82996337D01*
X143901239Y-83406883D01*
X144033441Y-83588843D01*
X144153795Y-83754497D01*
X144184258Y-83796425D01*
X144496967Y-84162561D01*
X144496976Y-84162570D01*
X144496988Y-84162583D01*
X144837416Y-84503011D01*
X144837428Y-84503022D01*
X144837439Y-84503033D01*
X145203575Y-84815742D01*
X145593117Y-85098761D01*
X146003663Y-85350344D01*
X146432683Y-85568941D01*
X146724887Y-85689975D01*
X146877535Y-85753205D01*
X147335455Y-85901992D01*
X147335457Y-85901992D01*
X147335465Y-85901995D01*
X147803662Y-86014399D01*
X148279234Y-86089722D01*
X148759250Y-86127500D01*
X148759252Y-86127500D01*
X149240748Y-86127500D01*
X149240750Y-86127500D01*
X149720766Y-86089722D01*
X150196338Y-86014399D01*
X150664535Y-85901995D01*
X150741404Y-85877018D01*
X151122464Y-85753205D01*
X151122469Y-85753203D01*
X151567317Y-85568941D01*
X151996337Y-85350344D01*
X152406883Y-85098761D01*
X152796425Y-84815742D01*
X153162561Y-84503033D01*
X153503033Y-84162561D01*
X153815742Y-83796425D01*
X154098761Y-83406883D01*
X154350344Y-82996337D01*
X154568941Y-82567317D01*
X154753203Y-82122469D01*
X154901995Y-81664535D01*
X155014399Y-81196338D01*
X155089722Y-80720766D01*
X155127500Y-80240750D01*
X155127500Y-79759250D01*
X155089722Y-79279234D01*
X155014399Y-78803662D01*
X154901995Y-78335465D01*
X154901992Y-78335455D01*
X154753205Y-77877535D01*
X154634671Y-77591369D01*
X154568941Y-77432683D01*
X154350344Y-77003663D01*
X154098761Y-76593117D01*
X153815742Y-76203575D01*
X153503033Y-75837439D01*
X153503022Y-75837428D01*
X153503011Y-75837416D01*
X153162583Y-75496988D01*
X153162570Y-75496976D01*
X153162561Y-75496967D01*
X153117094Y-75458135D01*
X152796424Y-75184257D01*
X152600435Y-75041863D01*
X152406883Y-74901239D01*
X151996337Y-74649656D01*
X151996336Y-74649655D01*
X151996332Y-74649653D01*
X151691367Y-74494266D01*
X151567317Y-74431059D01*
X151535698Y-74417961D01*
X151122464Y-74246794D01*
X150664544Y-74098007D01*
X150256310Y-73999999D01*
X150196338Y-73985601D01*
X150196336Y-73985600D01*
X150196329Y-73985599D01*
X149720775Y-73910279D01*
X149720769Y-73910278D01*
X149720766Y-73910278D01*
X149240750Y-73872500D01*
X148759250Y-73872500D01*
X148279234Y-73910278D01*
X148279231Y-73910278D01*
X148279224Y-73910279D01*
X147803671Y-73985599D01*
X147803670Y-73985599D01*
X147335455Y-74098007D01*
X146877535Y-74246794D01*
X146432687Y-74431057D01*
X146003667Y-74649653D01*
X145593121Y-74901236D01*
X145203575Y-75184257D01*
X144837454Y-75496953D01*
X144837416Y-75496988D01*
X144496988Y-75837416D01*
X144496953Y-75837454D01*
X144184257Y-76203575D01*
X143901236Y-76593121D01*
X143649653Y-77003667D01*
X143431057Y-77432687D01*
X143246794Y-77877535D01*
X143098007Y-78335455D01*
X142985599Y-78803670D01*
X142985599Y-78803671D01*
X142910279Y-79279224D01*
X142910278Y-79279231D01*
X142910278Y-79279234D01*
X142872500Y-79759250D01*
X142318000Y-79759250D01*
X142318000Y-73483910D01*
X142338002Y-73415789D01*
X142354905Y-73394815D01*
X145754457Y-69995263D01*
X145754463Y-69995257D01*
X145796328Y-69922744D01*
X145796329Y-69922743D01*
X145818000Y-69841865D01*
X145818000Y-69375383D01*
X145838002Y-69307262D01*
X145891658Y-69260769D01*
X145961932Y-69250665D01*
X146026512Y-69280159D01*
X146043958Y-69298674D01*
X146068866Y-69331134D01*
X146068868Y-69331136D01*
X146195142Y-69428031D01*
X146287872Y-69466439D01*
X146342194Y-69488940D01*
X146500000Y-69509716D01*
X146657806Y-69488940D01*
X146750536Y-69450530D01*
X146804857Y-69428031D01*
X146931134Y-69331134D01*
X147028031Y-69204857D01*
X147050530Y-69150536D01*
X147088940Y-69057806D01*
X147109716Y-68900000D01*
X147088940Y-68742194D01*
X147040303Y-68624771D01*
X147028032Y-68595145D01*
X147028028Y-68595140D01*
X147019858Y-68584492D01*
X146994259Y-68518274D01*
X147008524Y-68448725D01*
X147044310Y-68406924D01*
X147078975Y-68380975D01*
X147166776Y-68263688D01*
X147217976Y-68126416D01*
X147224500Y-68065732D01*
X147224500Y-66698268D01*
X147224499Y-66698256D01*
X148235500Y-66698256D01*
X148235500Y-68065743D01*
X148242022Y-68126410D01*
X148242023Y-68126411D01*
X148242024Y-68126416D01*
X148293224Y-68263688D01*
X148381025Y-68380975D01*
X148498312Y-68468776D01*
X148600033Y-68506716D01*
X148656868Y-68549262D01*
X148681679Y-68615782D01*
X148682000Y-68624771D01*
X148682000Y-69758135D01*
X148682000Y-69841865D01*
X148703671Y-69922744D01*
X148703672Y-69922746D01*
X148703673Y-69922748D01*
X148745535Y-69995256D01*
X148745537Y-69995258D01*
X155445095Y-76694815D01*
X155479121Y-76757127D01*
X155482000Y-76783910D01*
X155482000Y-86758135D01*
X155482000Y-86841865D01*
X155503671Y-86922744D01*
X155503672Y-86922746D01*
X155503673Y-86922748D01*
X155545535Y-86995256D01*
X157804743Y-89254464D01*
X157869877Y-89292068D01*
X157877256Y-89296329D01*
X157958135Y-89318000D01*
X158649430Y-89318000D01*
X158717551Y-89338002D01*
X158764044Y-89391658D01*
X158767485Y-89399967D01*
X158779110Y-89431134D01*
X158802658Y-89494267D01*
X158889596Y-89610404D01*
X159005733Y-89697342D01*
X159141658Y-89748040D01*
X159201745Y-89754500D01*
X160798254Y-89754499D01*
X160858342Y-89748040D01*
X160994267Y-89697342D01*
X161110404Y-89610404D01*
X161197342Y-89494267D01*
X161248040Y-89358342D01*
X161254500Y-89298255D01*
X161254499Y-88701746D01*
X161248040Y-88641658D01*
X161197342Y-88505733D01*
X161110404Y-88389596D01*
X160994267Y-88302658D01*
X160994265Y-88302657D01*
X160994266Y-88302657D01*
X160858349Y-88251962D01*
X160858344Y-88251960D01*
X160858342Y-88251960D01*
X160828298Y-88248730D01*
X160798256Y-88245500D01*
X159201753Y-88245500D01*
X159201729Y-88245502D01*
X159141660Y-88251959D01*
X159141658Y-88251959D01*
X159005733Y-88302657D01*
X158889596Y-88389596D01*
X158802657Y-88505734D01*
X158767485Y-88600033D01*
X158724938Y-88656869D01*
X158658418Y-88681679D01*
X158649430Y-88682000D01*
X158183910Y-88682000D01*
X158115789Y-88661998D01*
X158094815Y-88645095D01*
X156154905Y-86705185D01*
X156120879Y-86642873D01*
X156118000Y-86616090D01*
X156118000Y-86000000D01*
X157990284Y-86000000D01*
X158011060Y-86157806D01*
X158071968Y-86304857D01*
X158168865Y-86431134D01*
X158295142Y-86528031D01*
X158387872Y-86566439D01*
X158442194Y-86588940D01*
X158600000Y-86609716D01*
X158757806Y-86588940D01*
X158758028Y-86588847D01*
X158758230Y-86588826D01*
X158765785Y-86586802D01*
X158766100Y-86587979D01*
X158828616Y-86581253D01*
X158880661Y-86607300D01*
X158882381Y-86605003D01*
X158889595Y-86610403D01*
X158889596Y-86610404D01*
X159005733Y-86697342D01*
X159141658Y-86748040D01*
X159201745Y-86754500D01*
X160798254Y-86754499D01*
X160858342Y-86748040D01*
X160994267Y-86697342D01*
X161110404Y-86610404D01*
X161197342Y-86494267D01*
X161248040Y-86358342D01*
X161254500Y-86298255D01*
X161254499Y-85701746D01*
X161248040Y-85641658D01*
X161197342Y-85505733D01*
X161110404Y-85389596D01*
X160994267Y-85302658D01*
X160994265Y-85302657D01*
X160994266Y-85302657D01*
X160858349Y-85251962D01*
X160858344Y-85251960D01*
X160858342Y-85251960D01*
X160828298Y-85248730D01*
X160798256Y-85245500D01*
X159201753Y-85245500D01*
X159201729Y-85245502D01*
X159141660Y-85251959D01*
X159141658Y-85251959D01*
X159005733Y-85302657D01*
X158882381Y-85394997D01*
X158880224Y-85392116D01*
X158832938Y-85417888D01*
X158765825Y-85413033D01*
X158765782Y-85413197D01*
X158764930Y-85412968D01*
X158762126Y-85412766D01*
X158758045Y-85411159D01*
X158757806Y-85411060D01*
X158600000Y-85390284D01*
X158442193Y-85411060D01*
X158295142Y-85471968D01*
X158168865Y-85568865D01*
X158071968Y-85695142D01*
X158011060Y-85842193D01*
X157990284Y-86000000D01*
X156118000Y-86000000D01*
X156118000Y-76558136D01*
X156097925Y-76483215D01*
X156096329Y-76477257D01*
X156068541Y-76429126D01*
X156054465Y-76404746D01*
X156054461Y-76404741D01*
X156039314Y-76389594D01*
X155995257Y-76345537D01*
X149354904Y-69705184D01*
X149320879Y-69642873D01*
X149318000Y-69616090D01*
X149318000Y-68624771D01*
X149338002Y-68556650D01*
X149391658Y-68510157D01*
X149399950Y-68506722D01*
X149501688Y-68468776D01*
X149618975Y-68380975D01*
X149706776Y-68263688D01*
X149757976Y-68126416D01*
X149764500Y-68065732D01*
X149764500Y-66698268D01*
X149764499Y-66698256D01*
X150775500Y-66698256D01*
X150775500Y-68065743D01*
X150782022Y-68126410D01*
X150782023Y-68126411D01*
X150782024Y-68126416D01*
X150833224Y-68263688D01*
X150921025Y-68380975D01*
X151038312Y-68468776D01*
X151140033Y-68506716D01*
X151196868Y-68549262D01*
X151221679Y-68615782D01*
X151222000Y-68624771D01*
X151222000Y-69998135D01*
X151222000Y-70081865D01*
X151243671Y-70162744D01*
X151243672Y-70162746D01*
X151243673Y-70162748D01*
X151285535Y-70235256D01*
X151285537Y-70235258D01*
X156645095Y-75594815D01*
X156679121Y-75657127D01*
X156682000Y-75683910D01*
X156682000Y-81058135D01*
X156682000Y-81141865D01*
X156703671Y-81222744D01*
X156703672Y-81222746D01*
X156703673Y-81222748D01*
X156745535Y-81295256D01*
X158710582Y-83260303D01*
X158708778Y-83262106D01*
X158743095Y-83309106D01*
X158749800Y-83338256D01*
X158751959Y-83358341D01*
X158802657Y-83494266D01*
X158802658Y-83494267D01*
X158889596Y-83610404D01*
X159005733Y-83697342D01*
X159141658Y-83748040D01*
X159201745Y-83754500D01*
X160798254Y-83754499D01*
X160858342Y-83748040D01*
X160994267Y-83697342D01*
X161110404Y-83610404D01*
X161197342Y-83494267D01*
X161248040Y-83358342D01*
X161254500Y-83298255D01*
X161254499Y-82701746D01*
X161248040Y-82641658D01*
X161197342Y-82505733D01*
X161110404Y-82389596D01*
X160994267Y-82302658D01*
X160994265Y-82302657D01*
X160994266Y-82302657D01*
X160858349Y-82251962D01*
X160858344Y-82251960D01*
X160858342Y-82251960D01*
X160828298Y-82248730D01*
X160798256Y-82245500D01*
X159201753Y-82245500D01*
X159201729Y-82245502D01*
X159141660Y-82251959D01*
X159141658Y-82251959D01*
X159005733Y-82302657D01*
X158891053Y-82388504D01*
X158824532Y-82413314D01*
X158755158Y-82398222D01*
X158726450Y-82376730D01*
X157354905Y-81005185D01*
X157320879Y-80942873D01*
X157318000Y-80916090D01*
X157318000Y-80000000D01*
X157890284Y-80000000D01*
X157911060Y-80157806D01*
X157971968Y-80304857D01*
X158068865Y-80431134D01*
X158195142Y-80528031D01*
X158267958Y-80558191D01*
X158342194Y-80588940D01*
X158500000Y-80609716D01*
X158657806Y-80588940D01*
X158732042Y-80558190D01*
X158802630Y-80550602D01*
X158866117Y-80582381D01*
X158881124Y-80599088D01*
X158889080Y-80609715D01*
X158889596Y-80610404D01*
X159005733Y-80697342D01*
X159141658Y-80748040D01*
X159201745Y-80754500D01*
X160798254Y-80754499D01*
X160858342Y-80748040D01*
X160994267Y-80697342D01*
X161110404Y-80610404D01*
X161197342Y-80494267D01*
X161248040Y-80358342D01*
X161254500Y-80298255D01*
X161254499Y-79701746D01*
X161248040Y-79641658D01*
X161197342Y-79505733D01*
X161110404Y-79389596D01*
X160994267Y-79302658D01*
X160994265Y-79302657D01*
X160994266Y-79302657D01*
X160858349Y-79251962D01*
X160858344Y-79251960D01*
X160858342Y-79251960D01*
X160828298Y-79248730D01*
X160798256Y-79245500D01*
X159201753Y-79245500D01*
X159201729Y-79245502D01*
X159141660Y-79251959D01*
X159141658Y-79251959D01*
X159005733Y-79302657D01*
X158889595Y-79389596D01*
X158881125Y-79400911D01*
X158824288Y-79443456D01*
X158753472Y-79448519D01*
X158732043Y-79441809D01*
X158657804Y-79411059D01*
X158500000Y-79390284D01*
X158342193Y-79411060D01*
X158195142Y-79471968D01*
X158068865Y-79568865D01*
X157971968Y-79695142D01*
X157911060Y-79842193D01*
X157890284Y-80000000D01*
X157318000Y-80000000D01*
X157318000Y-75458136D01*
X157318000Y-75458135D01*
X157296329Y-75377257D01*
X157296329Y-75377256D01*
X157296329Y-75377255D01*
X157254464Y-75304744D01*
X157254462Y-75304741D01*
X151894905Y-69945184D01*
X151860879Y-69882872D01*
X151858000Y-69856089D01*
X151858000Y-68624771D01*
X151878002Y-68556650D01*
X151931658Y-68510157D01*
X151939950Y-68506722D01*
X152041688Y-68468776D01*
X152158975Y-68380975D01*
X152246776Y-68263688D01*
X152297976Y-68126416D01*
X152304500Y-68065732D01*
X152304500Y-66698268D01*
X152304499Y-66698256D01*
X153315500Y-66698256D01*
X153315500Y-68065743D01*
X153322022Y-68126410D01*
X153322023Y-68126411D01*
X153322024Y-68126416D01*
X153373224Y-68263688D01*
X153461025Y-68380975D01*
X153578312Y-68468776D01*
X153680033Y-68506716D01*
X153736868Y-68549262D01*
X153761679Y-68615782D01*
X153762000Y-68624771D01*
X153762000Y-68838135D01*
X153762000Y-68921865D01*
X153783671Y-69002744D01*
X153783672Y-69002746D01*
X153783673Y-69002748D01*
X153825535Y-69075256D01*
X153825537Y-69075258D01*
X157645095Y-72894815D01*
X157679121Y-72957127D01*
X157682000Y-72983910D01*
X157682000Y-74958135D01*
X157682000Y-75041865D01*
X157703671Y-75122744D01*
X157703672Y-75122746D01*
X157703673Y-75122748D01*
X157745535Y-75195256D01*
X157745537Y-75195258D01*
X158833920Y-76283640D01*
X158867945Y-76345952D01*
X158862881Y-76416767D01*
X158845694Y-76448243D01*
X158802657Y-76505734D01*
X158751962Y-76641650D01*
X158751960Y-76641658D01*
X158745500Y-76701737D01*
X158745500Y-77298246D01*
X158745502Y-77298270D01*
X158751959Y-77358339D01*
X158751959Y-77358341D01*
X158802657Y-77494266D01*
X158802658Y-77494267D01*
X158889596Y-77610404D01*
X159005733Y-77697342D01*
X159141658Y-77748040D01*
X159201745Y-77754500D01*
X160798254Y-77754499D01*
X160858342Y-77748040D01*
X160994267Y-77697342D01*
X161110404Y-77610404D01*
X161197342Y-77494267D01*
X161248040Y-77358342D01*
X161254500Y-77298255D01*
X161254499Y-76701746D01*
X161248040Y-76641658D01*
X161197342Y-76505733D01*
X161110404Y-76389596D01*
X160994267Y-76302658D01*
X160994265Y-76302657D01*
X160994266Y-76302657D01*
X160858349Y-76251962D01*
X160858344Y-76251960D01*
X160858342Y-76251960D01*
X160850831Y-76251152D01*
X160798262Y-76245500D01*
X160798255Y-76245500D01*
X159747410Y-76245500D01*
X159679289Y-76225498D01*
X159658315Y-76208595D01*
X158354905Y-74905185D01*
X158320879Y-74842873D01*
X158318000Y-74816090D01*
X158318000Y-72758136D01*
X158318000Y-72758135D01*
X158296329Y-72677257D01*
X158296329Y-72677256D01*
X158296329Y-72677255D01*
X158254464Y-72604744D01*
X158254462Y-72604741D01*
X154434905Y-68785184D01*
X154400879Y-68722872D01*
X154398000Y-68696089D01*
X154398000Y-68624771D01*
X154418002Y-68556650D01*
X154471658Y-68510157D01*
X154479950Y-68506722D01*
X154581688Y-68468776D01*
X154698975Y-68380975D01*
X154786776Y-68263688D01*
X154837976Y-68126416D01*
X154844500Y-68065732D01*
X154844500Y-66698268D01*
X154837976Y-66637584D01*
X154786776Y-66500312D01*
X154698975Y-66383025D01*
X154607549Y-66314583D01*
X154565005Y-66257750D01*
X154559941Y-66186934D01*
X154578297Y-66143716D01*
X154644946Y-66043970D01*
X154693002Y-65927952D01*
X154717500Y-65804788D01*
X154717500Y-65679212D01*
X154717499Y-65679210D01*
X154717499Y-65679204D01*
X154693003Y-65556052D01*
X154693002Y-65556049D01*
X154693002Y-65556048D01*
X154644946Y-65440030D01*
X154575179Y-65335617D01*
X154575174Y-65335611D01*
X154486388Y-65246825D01*
X154486382Y-65246820D01*
X154397208Y-65187236D01*
X154381970Y-65177054D01*
X154265952Y-65128998D01*
X154265950Y-65128997D01*
X154265947Y-65128996D01*
X154142795Y-65104500D01*
X154142788Y-65104500D01*
X154017212Y-65104500D01*
X154017204Y-65104500D01*
X153894052Y-65128996D01*
X153894049Y-65128997D01*
X153778030Y-65177054D01*
X153673617Y-65246820D01*
X153673611Y-65246825D01*
X153584825Y-65335611D01*
X153584820Y-65335617D01*
X153515054Y-65440030D01*
X153466997Y-65556049D01*
X153466996Y-65556052D01*
X153442500Y-65679204D01*
X153442500Y-65804795D01*
X153466996Y-65927947D01*
X153466997Y-65927950D01*
X153466998Y-65927952D01*
X153515054Y-66043970D01*
X153515055Y-66043971D01*
X153581703Y-66143716D01*
X153602918Y-66211468D01*
X153584135Y-66279935D01*
X153552448Y-66314585D01*
X153461027Y-66383023D01*
X153461026Y-66383024D01*
X153461025Y-66383025D01*
X153373224Y-66500312D01*
X153322023Y-66637588D01*
X153322022Y-66637589D01*
X153315500Y-66698256D01*
X152304499Y-66698256D01*
X152297976Y-66637584D01*
X152246776Y-66500312D01*
X152158975Y-66383025D01*
X152067549Y-66314583D01*
X152025005Y-66257750D01*
X152019941Y-66186934D01*
X152038297Y-66143716D01*
X152104946Y-66043970D01*
X152153002Y-65927952D01*
X152177500Y-65804788D01*
X152177500Y-65679212D01*
X152177499Y-65679210D01*
X152177499Y-65679204D01*
X152153003Y-65556052D01*
X152153002Y-65556049D01*
X152153002Y-65556048D01*
X152104946Y-65440030D01*
X152035179Y-65335617D01*
X152035174Y-65335611D01*
X151946388Y-65246825D01*
X151946382Y-65246820D01*
X151857208Y-65187236D01*
X151841970Y-65177054D01*
X151725952Y-65128998D01*
X151725950Y-65128997D01*
X151725947Y-65128996D01*
X151602795Y-65104500D01*
X151602788Y-65104500D01*
X151477212Y-65104500D01*
X151477204Y-65104500D01*
X151354052Y-65128996D01*
X151354049Y-65128997D01*
X151238030Y-65177054D01*
X151133617Y-65246820D01*
X151133611Y-65246825D01*
X151044825Y-65335611D01*
X151044820Y-65335617D01*
X150975054Y-65440030D01*
X150926997Y-65556049D01*
X150926996Y-65556052D01*
X150902500Y-65679204D01*
X150902500Y-65804795D01*
X150926996Y-65927947D01*
X150926997Y-65927950D01*
X150926998Y-65927952D01*
X150975054Y-66043970D01*
X150975055Y-66043971D01*
X151041703Y-66143716D01*
X151062918Y-66211468D01*
X151044135Y-66279935D01*
X151012448Y-66314585D01*
X150921027Y-66383023D01*
X150921026Y-66383024D01*
X150921025Y-66383025D01*
X150833224Y-66500312D01*
X150782023Y-66637588D01*
X150782022Y-66637589D01*
X150775500Y-66698256D01*
X149764499Y-66698256D01*
X149757976Y-66637584D01*
X149706776Y-66500312D01*
X149618975Y-66383025D01*
X149527549Y-66314583D01*
X149485005Y-66257750D01*
X149479941Y-66186934D01*
X149498297Y-66143716D01*
X149564946Y-66043970D01*
X149613002Y-65927952D01*
X149637500Y-65804788D01*
X149637500Y-65679212D01*
X149637499Y-65679210D01*
X149637499Y-65679204D01*
X149613003Y-65556052D01*
X149613002Y-65556049D01*
X149613002Y-65556048D01*
X149564946Y-65440030D01*
X149495179Y-65335617D01*
X149495174Y-65335611D01*
X149406388Y-65246825D01*
X149406382Y-65246820D01*
X149317208Y-65187236D01*
X149301970Y-65177054D01*
X149185952Y-65128998D01*
X149185950Y-65128997D01*
X149185947Y-65128996D01*
X149062795Y-65104500D01*
X149062788Y-65104500D01*
X148937212Y-65104500D01*
X148937204Y-65104500D01*
X148814052Y-65128996D01*
X148814049Y-65128997D01*
X148698030Y-65177054D01*
X148593617Y-65246820D01*
X148593611Y-65246825D01*
X148504825Y-65335611D01*
X148504820Y-65335617D01*
X148435054Y-65440030D01*
X148386997Y-65556049D01*
X148386996Y-65556052D01*
X148362500Y-65679204D01*
X148362500Y-65804795D01*
X148386996Y-65927947D01*
X148386997Y-65927950D01*
X148386998Y-65927952D01*
X148435054Y-66043970D01*
X148435055Y-66043971D01*
X148501703Y-66143716D01*
X148522918Y-66211468D01*
X148504135Y-66279935D01*
X148472448Y-66314585D01*
X148381027Y-66383023D01*
X148381026Y-66383024D01*
X148381025Y-66383025D01*
X148293224Y-66500312D01*
X148242023Y-66637588D01*
X148242022Y-66637589D01*
X148235500Y-66698256D01*
X147224499Y-66698256D01*
X147217976Y-66637584D01*
X147166776Y-66500312D01*
X147078975Y-66383025D01*
X146987549Y-66314583D01*
X146945005Y-66257750D01*
X146939941Y-66186934D01*
X146958297Y-66143716D01*
X147024946Y-66043970D01*
X147073002Y-65927952D01*
X147097500Y-65804788D01*
X147097500Y-65679212D01*
X147097499Y-65679210D01*
X147097499Y-65679204D01*
X147073003Y-65556052D01*
X147073002Y-65556049D01*
X147073002Y-65556048D01*
X147024946Y-65440030D01*
X146955179Y-65335617D01*
X146955174Y-65335611D01*
X146866388Y-65246825D01*
X146866382Y-65246820D01*
X146777208Y-65187236D01*
X146761970Y-65177054D01*
X146645952Y-65128998D01*
X146645950Y-65128997D01*
X146645947Y-65128996D01*
X146522795Y-65104500D01*
X146522788Y-65104500D01*
X146397212Y-65104500D01*
X146397204Y-65104500D01*
X146274052Y-65128996D01*
X146274049Y-65128997D01*
X146158030Y-65177054D01*
X146053617Y-65246820D01*
X146053611Y-65246825D01*
X146033095Y-65267342D01*
X145970783Y-65301368D01*
X145899968Y-65296303D01*
X145843132Y-65253756D01*
X145818321Y-65187236D01*
X145818000Y-65178247D01*
X145818000Y-63765753D01*
X145838002Y-63697632D01*
X145891658Y-63651139D01*
X145961932Y-63641035D01*
X146026512Y-63670529D01*
X146033095Y-63676658D01*
X146053611Y-63697174D01*
X146053617Y-63697179D01*
X146158030Y-63766946D01*
X146274048Y-63815002D01*
X146274050Y-63815002D01*
X146274052Y-63815003D01*
X146397204Y-63839499D01*
X146397210Y-63839499D01*
X146397212Y-63839500D01*
X146397213Y-63839500D01*
X146522787Y-63839500D01*
X146522788Y-63839500D01*
X146522789Y-63839499D01*
X146522795Y-63839499D01*
X146645947Y-63815003D01*
X146645947Y-63815002D01*
X146645952Y-63815002D01*
X146761970Y-63766946D01*
X146866383Y-63697179D01*
X146955179Y-63608383D01*
X147024946Y-63503970D01*
X147073002Y-63387952D01*
X147079114Y-63357223D01*
X147097499Y-63264795D01*
X147097500Y-63264786D01*
X147097500Y-63139213D01*
X147097499Y-63139204D01*
X147073003Y-63016052D01*
X147073002Y-63016049D01*
X147073002Y-63016048D01*
X147024946Y-62900030D01*
X146958297Y-62800283D01*
X146937082Y-62732530D01*
X146955865Y-62664063D01*
X146987548Y-62629416D01*
X147078975Y-62560975D01*
X147166776Y-62443688D01*
X147217976Y-62306416D01*
X147224500Y-62245732D01*
X147224500Y-60878268D01*
X147224499Y-60878256D01*
X148235500Y-60878256D01*
X148235500Y-62245743D01*
X148242022Y-62306410D01*
X148242023Y-62306411D01*
X148242024Y-62306416D01*
X148293224Y-62443688D01*
X148381025Y-62560975D01*
X148472450Y-62629415D01*
X148514994Y-62686249D01*
X148520058Y-62757065D01*
X148501703Y-62800283D01*
X148435054Y-62900030D01*
X148386997Y-63016049D01*
X148386996Y-63016052D01*
X148362500Y-63139204D01*
X148362500Y-63264795D01*
X148386996Y-63387947D01*
X148386997Y-63387950D01*
X148386998Y-63387952D01*
X148435054Y-63503970D01*
X148473615Y-63561680D01*
X148504820Y-63608382D01*
X148504825Y-63608388D01*
X148593611Y-63697174D01*
X148593617Y-63697179D01*
X148698030Y-63766946D01*
X148814048Y-63815002D01*
X148814050Y-63815002D01*
X148814052Y-63815003D01*
X148937204Y-63839499D01*
X148937210Y-63839499D01*
X148937212Y-63839500D01*
X148937213Y-63839500D01*
X149062787Y-63839500D01*
X149062788Y-63839500D01*
X149062789Y-63839499D01*
X149062795Y-63839499D01*
X149185947Y-63815003D01*
X149185947Y-63815002D01*
X149185952Y-63815002D01*
X149301970Y-63766946D01*
X149406383Y-63697179D01*
X149495179Y-63608383D01*
X149564946Y-63503970D01*
X149607568Y-63401070D01*
X149652114Y-63345791D01*
X149719478Y-63323369D01*
X149788269Y-63340927D01*
X149823938Y-63372584D01*
X149868867Y-63431135D01*
X149995142Y-63528031D01*
X150079233Y-63562861D01*
X150142194Y-63588940D01*
X150300000Y-63609716D01*
X150457806Y-63588940D01*
X150550536Y-63550530D01*
X150604857Y-63528031D01*
X150662254Y-63483988D01*
X150731134Y-63431134D01*
X150737094Y-63423367D01*
X150794432Y-63381499D01*
X150865303Y-63377277D01*
X150927206Y-63412041D01*
X150953466Y-63451852D01*
X150975054Y-63503970D01*
X151013615Y-63561680D01*
X151044820Y-63608382D01*
X151044825Y-63608388D01*
X151133611Y-63697174D01*
X151133617Y-63697179D01*
X151238030Y-63766946D01*
X151354048Y-63815002D01*
X151354050Y-63815002D01*
X151354052Y-63815003D01*
X151477204Y-63839499D01*
X151477210Y-63839499D01*
X151477212Y-63839500D01*
X151477213Y-63839500D01*
X151602787Y-63839500D01*
X151602788Y-63839500D01*
X151602789Y-63839499D01*
X151602795Y-63839499D01*
X151725947Y-63815003D01*
X151725947Y-63815002D01*
X151725952Y-63815002D01*
X151841970Y-63766946D01*
X151946383Y-63697179D01*
X152035179Y-63608383D01*
X152104946Y-63503970D01*
X152133545Y-63434924D01*
X152178093Y-63379644D01*
X152245456Y-63357223D01*
X152314248Y-63374781D01*
X152349916Y-63406438D01*
X152368867Y-63431135D01*
X152495142Y-63528031D01*
X152579233Y-63562861D01*
X152642194Y-63588940D01*
X152800000Y-63609716D01*
X152957806Y-63588940D01*
X153050536Y-63550530D01*
X153104857Y-63528031D01*
X153218206Y-63441054D01*
X153231134Y-63431134D01*
X153263073Y-63389510D01*
X153320409Y-63347645D01*
X153391280Y-63343423D01*
X153453183Y-63378187D01*
X153479443Y-63417998D01*
X153484884Y-63431134D01*
X153515054Y-63503970D01*
X153553615Y-63561680D01*
X153584820Y-63608382D01*
X153584825Y-63608388D01*
X153673611Y-63697174D01*
X153673617Y-63697179D01*
X153778030Y-63766946D01*
X153894048Y-63815002D01*
X153894050Y-63815002D01*
X153894052Y-63815003D01*
X154017204Y-63839499D01*
X154017210Y-63839499D01*
X154017212Y-63839500D01*
X154017213Y-63839500D01*
X154142787Y-63839500D01*
X154142788Y-63839500D01*
X154142789Y-63839499D01*
X154142795Y-63839499D01*
X154265947Y-63815003D01*
X154265947Y-63815002D01*
X154265952Y-63815002D01*
X154381970Y-63766946D01*
X154486383Y-63697179D01*
X154575179Y-63608383D01*
X154644946Y-63503970D01*
X154693002Y-63387952D01*
X154699114Y-63357223D01*
X154717499Y-63264795D01*
X154717500Y-63264786D01*
X154717500Y-63139213D01*
X154717499Y-63139204D01*
X154693003Y-63016052D01*
X154693002Y-63016049D01*
X154693002Y-63016048D01*
X154644946Y-62900030D01*
X154578297Y-62800283D01*
X154557082Y-62732530D01*
X154575865Y-62664063D01*
X154607548Y-62629416D01*
X154698975Y-62560975D01*
X154786776Y-62443688D01*
X154837976Y-62306416D01*
X154844500Y-62245732D01*
X154844500Y-61969418D01*
X154864502Y-61901297D01*
X154918158Y-61854804D01*
X154988432Y-61844700D01*
X155053012Y-61874194D01*
X155063012Y-61884808D01*
X155063026Y-61884795D01*
X155068864Y-61890633D01*
X155195142Y-61987531D01*
X155287872Y-62025939D01*
X155342194Y-62048440D01*
X155500000Y-62069216D01*
X155657806Y-62048440D01*
X155681282Y-62038715D01*
X155751870Y-62031126D01*
X155815357Y-62062904D01*
X155851586Y-62123962D01*
X155855500Y-62155124D01*
X155855500Y-62245743D01*
X155862022Y-62306410D01*
X155862023Y-62306411D01*
X155862024Y-62306416D01*
X155913224Y-62443688D01*
X156001025Y-62560975D01*
X156092450Y-62629415D01*
X156134994Y-62686249D01*
X156140058Y-62757065D01*
X156121703Y-62800283D01*
X156055054Y-62900030D01*
X156006997Y-63016049D01*
X156006996Y-63016052D01*
X155982500Y-63139204D01*
X155982500Y-63264795D01*
X156006996Y-63387947D01*
X156006997Y-63387950D01*
X156006998Y-63387952D01*
X156055054Y-63503970D01*
X156093615Y-63561680D01*
X156124820Y-63608382D01*
X156124825Y-63608388D01*
X156213611Y-63697174D01*
X156213617Y-63697179D01*
X156318030Y-63766946D01*
X156434048Y-63815002D01*
X156434050Y-63815002D01*
X156434052Y-63815003D01*
X156557204Y-63839499D01*
X156557210Y-63839499D01*
X156557212Y-63839500D01*
X156557213Y-63839500D01*
X156682787Y-63839500D01*
X156682788Y-63839500D01*
X156682789Y-63839499D01*
X156682795Y-63839499D01*
X156805947Y-63815003D01*
X156805947Y-63815002D01*
X156805952Y-63815002D01*
X156820339Y-63809042D01*
X156890925Y-63801451D01*
X156954414Y-63833228D01*
X156990644Y-63894284D01*
X156988113Y-63965236D01*
X156979684Y-63984840D01*
X156979443Y-63985289D01*
X156901988Y-64172283D01*
X156901986Y-64172288D01*
X156862500Y-64370797D01*
X156862500Y-64573202D01*
X156901986Y-64771711D01*
X156901988Y-64771716D01*
X156979441Y-64958704D01*
X156979680Y-64959151D01*
X156979734Y-64959411D01*
X156981810Y-64964423D01*
X156980859Y-64964816D01*
X156994153Y-65028657D01*
X156968750Y-65094954D01*
X156911538Y-65136992D01*
X156840680Y-65141426D01*
X156820341Y-65134958D01*
X156805950Y-65128997D01*
X156805947Y-65128996D01*
X156682795Y-65104500D01*
X156682788Y-65104500D01*
X156557212Y-65104500D01*
X156557204Y-65104500D01*
X156434052Y-65128996D01*
X156434049Y-65128997D01*
X156318030Y-65177054D01*
X156213617Y-65246820D01*
X156213611Y-65246825D01*
X156124825Y-65335611D01*
X156124820Y-65335617D01*
X156055054Y-65440030D01*
X156006997Y-65556049D01*
X156006996Y-65556052D01*
X155982500Y-65679204D01*
X155982500Y-65804795D01*
X156006996Y-65927947D01*
X156006997Y-65927950D01*
X156006998Y-65927952D01*
X156055054Y-66043970D01*
X156055055Y-66043971D01*
X156121703Y-66143716D01*
X156142918Y-66211468D01*
X156124135Y-66279935D01*
X156092448Y-66314585D01*
X156001027Y-66383023D01*
X156001026Y-66383024D01*
X156001025Y-66383025D01*
X155913224Y-66500312D01*
X155862023Y-66637588D01*
X155862022Y-66637589D01*
X155855500Y-66698256D01*
X155855500Y-68065743D01*
X155862022Y-68126410D01*
X155862023Y-68126411D01*
X155862024Y-68126416D01*
X155913224Y-68263688D01*
X156001025Y-68380975D01*
X156048390Y-68416432D01*
X156090936Y-68473267D01*
X156096000Y-68544083D01*
X156075731Y-68587782D01*
X156076097Y-68587993D01*
X156073743Y-68592069D01*
X156072852Y-68593991D01*
X156071969Y-68595140D01*
X156071969Y-68595142D01*
X156011060Y-68742193D01*
X155990284Y-68900000D01*
X156011060Y-69057806D01*
X156071968Y-69204857D01*
X156168865Y-69331134D01*
X156295142Y-69428031D01*
X156387872Y-69466439D01*
X156442194Y-69488940D01*
X156600000Y-69509716D01*
X156757806Y-69488940D01*
X156850536Y-69450530D01*
X156904857Y-69428031D01*
X157031134Y-69331134D01*
X157128031Y-69204857D01*
X157150530Y-69150536D01*
X157188940Y-69057806D01*
X157209716Y-68900000D01*
X157188940Y-68742194D01*
X157140303Y-68624771D01*
X157124870Y-68587511D01*
X157127679Y-68586347D01*
X157114351Y-68531495D01*
X157137547Y-68464394D01*
X157164695Y-68436580D01*
X157238975Y-68380975D01*
X157326776Y-68263688D01*
X157377976Y-68126416D01*
X157384500Y-68065732D01*
X157384500Y-66698268D01*
X157377976Y-66637584D01*
X157326776Y-66500312D01*
X157238975Y-66383025D01*
X157147549Y-66314583D01*
X157105005Y-66257750D01*
X157099941Y-66186934D01*
X157118297Y-66143716D01*
X157184946Y-66043970D01*
X157233002Y-65927952D01*
X157257500Y-65804788D01*
X157257500Y-65679212D01*
X157257499Y-65679210D01*
X157257499Y-65679204D01*
X157233003Y-65556052D01*
X157233002Y-65556049D01*
X157233002Y-65556048D01*
X157227041Y-65541656D01*
X157219451Y-65471071D01*
X157251229Y-65407584D01*
X157312286Y-65371355D01*
X157383238Y-65373887D01*
X157402854Y-65382322D01*
X157403287Y-65382553D01*
X157403296Y-65382559D01*
X157590289Y-65460014D01*
X157788800Y-65499500D01*
X157788801Y-65499500D01*
X157991199Y-65499500D01*
X157991200Y-65499500D01*
X158189711Y-65460014D01*
X158376704Y-65382559D01*
X158376712Y-65382553D01*
X158377137Y-65382327D01*
X158377392Y-65382273D01*
X158382423Y-65380190D01*
X158382817Y-65381143D01*
X158446641Y-65367845D01*
X158512941Y-65393239D01*
X158554987Y-65450446D01*
X158559430Y-65521303D01*
X158552959Y-65541656D01*
X158546997Y-65556049D01*
X158546996Y-65556052D01*
X158522500Y-65679204D01*
X158522500Y-65804795D01*
X158546996Y-65927947D01*
X158546997Y-65927950D01*
X158546998Y-65927952D01*
X158595054Y-66043970D01*
X158595055Y-66043971D01*
X158661703Y-66143716D01*
X158682918Y-66211468D01*
X158664135Y-66279935D01*
X158632448Y-66314585D01*
X158541027Y-66383023D01*
X158541026Y-66383024D01*
X158541025Y-66383025D01*
X158453224Y-66500312D01*
X158402023Y-66637588D01*
X158402022Y-66637589D01*
X158395500Y-66698256D01*
X158395500Y-68065743D01*
X158402022Y-68126410D01*
X158402023Y-68126411D01*
X158402024Y-68126416D01*
X158453224Y-68263688D01*
X158541025Y-68380975D01*
X158658312Y-68468776D01*
X158760033Y-68506716D01*
X158816868Y-68549262D01*
X158841679Y-68615782D01*
X158842000Y-68624771D01*
X158842000Y-69418135D01*
X158842000Y-69501865D01*
X158863671Y-69582744D01*
X158863672Y-69582746D01*
X158863673Y-69582748D01*
X158905535Y-69655255D01*
X158905536Y-69655256D01*
X158905537Y-69655257D01*
X159645096Y-70394816D01*
X159679120Y-70457127D01*
X159682000Y-70483910D01*
X159682000Y-73119500D01*
X159661998Y-73187621D01*
X159608342Y-73234114D01*
X159556000Y-73245500D01*
X159201753Y-73245500D01*
X159201729Y-73245502D01*
X159141660Y-73251959D01*
X159141658Y-73251959D01*
X159005733Y-73302657D01*
X158889596Y-73389596D01*
X158802657Y-73505734D01*
X158751962Y-73641650D01*
X158751960Y-73641658D01*
X158745500Y-73701737D01*
X158745500Y-74298246D01*
X158745502Y-74298270D01*
X158751959Y-74358339D01*
X158751959Y-74358341D01*
X158802657Y-74494266D01*
X158802658Y-74494267D01*
X158889596Y-74610404D01*
X159005733Y-74697342D01*
X159141658Y-74748040D01*
X159201745Y-74754500D01*
X160798254Y-74754499D01*
X160858342Y-74748040D01*
X160994267Y-74697342D01*
X161110404Y-74610404D01*
X161197342Y-74494267D01*
X161248040Y-74358342D01*
X161254500Y-74298255D01*
X161254499Y-73701746D01*
X161248040Y-73641658D01*
X161197342Y-73505733D01*
X161110404Y-73389596D01*
X160994267Y-73302658D01*
X160994265Y-73302657D01*
X160994266Y-73302657D01*
X160858349Y-73251962D01*
X160858344Y-73251960D01*
X160858342Y-73251960D01*
X160850831Y-73251152D01*
X160798262Y-73245500D01*
X160798255Y-73245500D01*
X160444000Y-73245500D01*
X160375879Y-73225498D01*
X160329386Y-73171842D01*
X160318000Y-73119500D01*
X160318000Y-70258136D01*
X160311870Y-70235257D01*
X160296329Y-70177257D01*
X160254463Y-70104743D01*
X160195257Y-70045537D01*
X159514905Y-69365185D01*
X159480879Y-69302873D01*
X159478000Y-69276090D01*
X159478000Y-68624771D01*
X159498002Y-68556650D01*
X159551658Y-68510157D01*
X159559950Y-68506722D01*
X159661688Y-68468776D01*
X159778975Y-68380975D01*
X159866776Y-68263688D01*
X159917976Y-68126416D01*
X159924500Y-68065732D01*
X159924500Y-66698268D01*
X159917976Y-66637584D01*
X159866776Y-66500312D01*
X159778975Y-66383025D01*
X159687549Y-66314583D01*
X159645005Y-66257750D01*
X159639941Y-66186934D01*
X159658297Y-66143716D01*
X159724946Y-66043970D01*
X159773002Y-65927952D01*
X159797500Y-65804788D01*
X159797500Y-65679212D01*
X159797499Y-65679210D01*
X159797499Y-65679204D01*
X159773003Y-65556052D01*
X159773002Y-65556049D01*
X159773002Y-65556048D01*
X159724946Y-65440030D01*
X159655179Y-65335617D01*
X159655174Y-65335611D01*
X159566388Y-65246825D01*
X159566382Y-65246820D01*
X159477208Y-65187236D01*
X159461970Y-65177054D01*
X159345952Y-65128998D01*
X159345950Y-65128997D01*
X159345947Y-65128996D01*
X159222795Y-65104500D01*
X159222788Y-65104500D01*
X159097212Y-65104500D01*
X159097204Y-65104500D01*
X158974052Y-65128996D01*
X158974049Y-65128997D01*
X158959656Y-65134959D01*
X158889066Y-65142547D01*
X158825580Y-65110766D01*
X158789353Y-65049707D01*
X158791889Y-64978756D01*
X158800327Y-64959137D01*
X158800553Y-64958712D01*
X158800559Y-64958704D01*
X158878014Y-64771711D01*
X158917500Y-64573200D01*
X158917500Y-64370800D01*
X158878014Y-64172289D01*
X158800559Y-63985296D01*
X158800553Y-63985287D01*
X158800322Y-63984854D01*
X158800267Y-63984592D01*
X158798190Y-63979577D01*
X158799140Y-63979183D01*
X158785845Y-63915349D01*
X158811244Y-63849051D01*
X158868454Y-63807009D01*
X158939312Y-63802571D01*
X158959653Y-63809039D01*
X158974048Y-63815002D01*
X158974051Y-63815002D01*
X158974052Y-63815003D01*
X159097204Y-63839499D01*
X159097210Y-63839499D01*
X159097212Y-63839500D01*
X159097213Y-63839500D01*
X159222787Y-63839500D01*
X159222788Y-63839500D01*
X159222789Y-63839499D01*
X159222795Y-63839499D01*
X159345947Y-63815003D01*
X159345947Y-63815002D01*
X159345952Y-63815002D01*
X159461970Y-63766946D01*
X159566383Y-63697179D01*
X159655179Y-63608383D01*
X159724946Y-63503970D01*
X159773002Y-63387952D01*
X159779114Y-63357223D01*
X159797499Y-63264795D01*
X159797500Y-63264786D01*
X159797500Y-63139213D01*
X159797499Y-63139204D01*
X159773003Y-63016052D01*
X159773002Y-63016049D01*
X159773002Y-63016048D01*
X159724946Y-62900030D01*
X159658019Y-62799867D01*
X159636804Y-62732114D01*
X159655587Y-62663647D01*
X159687275Y-62628997D01*
X159778618Y-62560618D01*
X159864408Y-62446014D01*
X159864408Y-62446012D01*
X159160001Y-61741605D01*
X159160000Y-61741605D01*
X158455590Y-62446013D01*
X158455590Y-62446014D01*
X158541380Y-62560616D01*
X158632725Y-62628997D01*
X158675271Y-62685833D01*
X158680335Y-62756649D01*
X158661981Y-62799866D01*
X158595053Y-62900031D01*
X158546997Y-63016049D01*
X158546996Y-63016052D01*
X158522500Y-63139204D01*
X158522500Y-63264795D01*
X158546996Y-63387947D01*
X158546997Y-63387950D01*
X158552958Y-63402341D01*
X158560547Y-63472931D01*
X158528768Y-63536418D01*
X158467710Y-63572645D01*
X158396758Y-63570111D01*
X158377151Y-63561680D01*
X158376704Y-63561441D01*
X158189716Y-63483988D01*
X158189711Y-63483986D01*
X157991202Y-63444500D01*
X157991200Y-63444500D01*
X157788800Y-63444500D01*
X157788797Y-63444500D01*
X157590288Y-63483986D01*
X157590283Y-63483988D01*
X157403289Y-63561443D01*
X157402840Y-63561684D01*
X157402577Y-63561738D01*
X157397577Y-63563810D01*
X157397184Y-63562861D01*
X157333333Y-63576152D01*
X157267038Y-63550745D01*
X157225004Y-63493529D01*
X157220575Y-63422671D01*
X157227039Y-63402346D01*
X157233002Y-63387952D01*
X157239114Y-63357223D01*
X157257499Y-63264795D01*
X157257500Y-63264786D01*
X157257500Y-63139213D01*
X157257499Y-63139204D01*
X157233003Y-63016052D01*
X157233002Y-63016049D01*
X157233002Y-63016048D01*
X157184946Y-62900030D01*
X157118297Y-62800283D01*
X157097082Y-62732530D01*
X157115865Y-62664063D01*
X157147548Y-62629416D01*
X157238975Y-62560975D01*
X157326776Y-62443688D01*
X157377976Y-62306416D01*
X157384500Y-62245732D01*
X157384500Y-62146393D01*
X158396000Y-62146393D01*
X158980395Y-61561999D01*
X159339605Y-61561999D01*
X159339605Y-61562001D01*
X159923998Y-62146394D01*
X159923999Y-62146394D01*
X159923999Y-60977605D01*
X159339605Y-61561999D01*
X158980395Y-61561999D01*
X158396000Y-60977604D01*
X158396000Y-62146393D01*
X157384500Y-62146393D01*
X157384500Y-60878268D01*
X157384499Y-60878256D01*
X157377977Y-60817589D01*
X157377976Y-60817588D01*
X157377976Y-60817584D01*
X157326776Y-60680312D01*
X157325035Y-60677986D01*
X158455590Y-60677986D01*
X159159999Y-61382395D01*
X159160000Y-61382395D01*
X159864408Y-60677984D01*
X159778618Y-60563381D01*
X159661450Y-60475670D01*
X159524307Y-60424518D01*
X159463684Y-60418000D01*
X158856325Y-60418000D01*
X158856304Y-60418002D01*
X158795696Y-60424517D01*
X158658549Y-60475670D01*
X158541383Y-60563380D01*
X158455590Y-60677986D01*
X157325035Y-60677986D01*
X157238975Y-60563025D01*
X157121688Y-60475224D01*
X156984416Y-60424024D01*
X156984412Y-60424023D01*
X156984411Y-60424023D01*
X156984410Y-60424022D01*
X156923743Y-60417500D01*
X156923732Y-60417500D01*
X156316268Y-60417500D01*
X156316256Y-60417500D01*
X156255589Y-60424022D01*
X156255588Y-60424023D01*
X156255585Y-60424023D01*
X156255584Y-60424024D01*
X156118312Y-60475224D01*
X156001025Y-60563025D01*
X155913222Y-60680315D01*
X155863213Y-60814394D01*
X155820666Y-60871230D01*
X155754146Y-60896040D01*
X155696941Y-60886770D01*
X155657806Y-60870560D01*
X155500000Y-60849784D01*
X155342193Y-60870560D01*
X155195142Y-60931468D01*
X155068864Y-61028366D01*
X155063026Y-61034205D01*
X155061587Y-61032766D01*
X155013120Y-61068154D01*
X154942249Y-61072373D01*
X154880347Y-61037606D01*
X154847068Y-60974892D01*
X154844500Y-60949581D01*
X154844500Y-60878273D01*
X154844499Y-60878256D01*
X154837977Y-60817589D01*
X154837976Y-60817588D01*
X154837976Y-60817584D01*
X154786776Y-60680312D01*
X154698975Y-60563025D01*
X154581688Y-60475224D01*
X154444416Y-60424024D01*
X154444412Y-60424023D01*
X154444411Y-60424023D01*
X154444410Y-60424022D01*
X154383743Y-60417500D01*
X154383732Y-60417500D01*
X153776268Y-60417500D01*
X153776256Y-60417500D01*
X153715589Y-60424022D01*
X153715588Y-60424023D01*
X153715585Y-60424023D01*
X153715584Y-60424024D01*
X153578312Y-60475224D01*
X153461025Y-60563025D01*
X153373224Y-60680312D01*
X153322023Y-60817588D01*
X153322022Y-60817589D01*
X153315500Y-60878256D01*
X153315500Y-62245743D01*
X153322022Y-62306410D01*
X153322023Y-62306411D01*
X153322024Y-62306416D01*
X153342274Y-62360708D01*
X153347339Y-62431522D01*
X153313314Y-62493834D01*
X153251001Y-62527859D01*
X153180186Y-62522795D01*
X153147514Y-62504701D01*
X153104856Y-62471968D01*
X152957807Y-62411060D01*
X152957805Y-62411059D01*
X152863135Y-62398595D01*
X152798208Y-62369871D01*
X152790488Y-62362768D01*
X152341405Y-61913685D01*
X152307379Y-61851373D01*
X152304500Y-61824590D01*
X152304500Y-60878273D01*
X152304499Y-60878256D01*
X152297977Y-60817589D01*
X152297976Y-60817588D01*
X152297976Y-60817584D01*
X152246776Y-60680312D01*
X152158975Y-60563025D01*
X152041688Y-60475224D01*
X151904416Y-60424024D01*
X151904412Y-60424023D01*
X151904411Y-60424023D01*
X151904410Y-60424022D01*
X151843743Y-60417500D01*
X151843732Y-60417500D01*
X151236268Y-60417500D01*
X151236256Y-60417500D01*
X151175589Y-60424022D01*
X151175588Y-60424023D01*
X151175585Y-60424023D01*
X151175584Y-60424024D01*
X151038312Y-60475224D01*
X150921025Y-60563025D01*
X150833224Y-60680312D01*
X150782023Y-60817588D01*
X150782022Y-60817589D01*
X150775500Y-60878256D01*
X150775500Y-62245743D01*
X150782022Y-62306410D01*
X150782024Y-62306417D01*
X150786852Y-62319361D01*
X150791916Y-62390177D01*
X150757890Y-62452489D01*
X150695577Y-62486513D01*
X150624762Y-62481447D01*
X150605794Y-62472510D01*
X150604855Y-62471968D01*
X150457806Y-62411060D01*
X150317072Y-62392531D01*
X150252145Y-62363808D01*
X150244424Y-62356704D01*
X149801405Y-61913685D01*
X149767379Y-61851373D01*
X149764500Y-61824590D01*
X149764500Y-60878273D01*
X149764499Y-60878256D01*
X149757977Y-60817589D01*
X149757976Y-60817588D01*
X149757976Y-60817584D01*
X149706776Y-60680312D01*
X149618975Y-60563025D01*
X149501688Y-60475224D01*
X149364416Y-60424024D01*
X149364412Y-60424023D01*
X149364411Y-60424023D01*
X149364410Y-60424022D01*
X149303743Y-60417500D01*
X149303732Y-60417500D01*
X148696268Y-60417500D01*
X148696256Y-60417500D01*
X148635589Y-60424022D01*
X148635588Y-60424023D01*
X148635585Y-60424023D01*
X148635584Y-60424024D01*
X148498312Y-60475224D01*
X148381025Y-60563025D01*
X148293224Y-60680312D01*
X148242023Y-60817588D01*
X148242022Y-60817589D01*
X148235500Y-60878256D01*
X147224499Y-60878256D01*
X147217977Y-60817589D01*
X147217976Y-60817588D01*
X147217976Y-60817584D01*
X147166776Y-60680312D01*
X147078975Y-60563025D01*
X146961688Y-60475224D01*
X146824416Y-60424024D01*
X146824412Y-60424023D01*
X146824411Y-60424023D01*
X146824410Y-60424022D01*
X146763743Y-60417500D01*
X146763732Y-60417500D01*
X146156268Y-60417500D01*
X146156256Y-60417500D01*
X146095589Y-60424022D01*
X146095588Y-60424023D01*
X146095585Y-60424023D01*
X146095584Y-60424024D01*
X145958312Y-60475224D01*
X145841025Y-60563025D01*
X145753224Y-60680312D01*
X145702023Y-60817588D01*
X145702022Y-60817589D01*
X145695500Y-60878256D01*
X145695500Y-61824589D01*
X145675498Y-61892710D01*
X145658595Y-61913684D01*
X145245537Y-62326741D01*
X145245535Y-62326744D01*
X145203670Y-62399255D01*
X145203671Y-62399256D01*
X145182000Y-62480134D01*
X145182000Y-69616089D01*
X145161998Y-69684210D01*
X145145095Y-69705184D01*
X141745537Y-73104741D01*
X141745535Y-73104743D01*
X141703673Y-73177251D01*
X141703670Y-73177258D01*
X141692077Y-73220523D01*
X141685385Y-73245501D01*
X141684538Y-73248659D01*
X141682000Y-73258132D01*
X141682000Y-81816089D01*
X141661998Y-81884210D01*
X141645095Y-81905184D01*
X140151512Y-83398767D01*
X140089200Y-83432793D01*
X140018385Y-83427728D01*
X139961549Y-83385181D01*
X139936738Y-83318661D01*
X139946008Y-83261455D01*
X139952058Y-83246846D01*
X139988940Y-83157806D01*
X140009716Y-83000000D01*
X139988940Y-82842194D01*
X139966439Y-82787872D01*
X139928031Y-82695142D01*
X139831134Y-82568865D01*
X139704857Y-82471968D01*
X139557806Y-82411060D01*
X139400000Y-82390284D01*
X139242196Y-82411059D01*
X139242193Y-82411060D01*
X139242075Y-82411109D01*
X139241954Y-82411159D01*
X139241739Y-82411182D01*
X139234221Y-82413197D01*
X139233906Y-82412023D01*
X139171366Y-82418744D01*
X139119340Y-82392697D01*
X139117619Y-82394997D01*
X139093217Y-82376730D01*
X138994267Y-82302658D01*
X138994265Y-82302657D01*
X138994266Y-82302657D01*
X138858349Y-82251962D01*
X138858344Y-82251960D01*
X138858342Y-82251960D01*
X138828298Y-82248730D01*
X138798256Y-82245500D01*
X137201753Y-82245500D01*
X137201729Y-82245502D01*
X137141660Y-82251959D01*
X137141658Y-82251959D01*
X137005733Y-82302657D01*
X136889596Y-82389596D01*
X136802657Y-82505734D01*
X136751962Y-82641650D01*
X136751960Y-82641658D01*
X136745500Y-82701737D01*
X135400500Y-82701737D01*
X135400500Y-76701737D01*
X136745500Y-76701737D01*
X136745500Y-77298246D01*
X136745502Y-77298270D01*
X136751959Y-77358339D01*
X136751959Y-77358341D01*
X136802657Y-77494266D01*
X136802658Y-77494267D01*
X136889596Y-77610404D01*
X137005733Y-77697342D01*
X137141658Y-77748040D01*
X137201745Y-77754500D01*
X138798254Y-77754499D01*
X138858342Y-77748040D01*
X138994267Y-77697342D01*
X139110404Y-77610404D01*
X139118870Y-77599093D01*
X139175703Y-77556546D01*
X139246518Y-77551478D01*
X139267957Y-77558191D01*
X139302191Y-77572370D01*
X139342194Y-77588940D01*
X139500000Y-77609716D01*
X139639353Y-77591369D01*
X139709500Y-77602308D01*
X139762599Y-77649436D01*
X139781789Y-77717789D01*
X139760978Y-77785667D01*
X139744893Y-77805386D01*
X138341683Y-79208595D01*
X138279371Y-79242621D01*
X138252588Y-79245500D01*
X137201753Y-79245500D01*
X137201729Y-79245502D01*
X137141660Y-79251959D01*
X137141658Y-79251959D01*
X137005733Y-79302657D01*
X136889596Y-79389596D01*
X136802657Y-79505734D01*
X136751962Y-79641650D01*
X136751960Y-79641658D01*
X136745500Y-79701737D01*
X136745500Y-80298246D01*
X136745502Y-80298270D01*
X136751959Y-80358339D01*
X136751959Y-80358341D01*
X136802657Y-80494266D01*
X136802658Y-80494267D01*
X136889596Y-80610404D01*
X137005733Y-80697342D01*
X137141658Y-80748040D01*
X137201745Y-80754500D01*
X138798254Y-80754499D01*
X138858342Y-80748040D01*
X138994267Y-80697342D01*
X139110404Y-80610404D01*
X139197342Y-80494267D01*
X139248040Y-80358342D01*
X139254500Y-80298255D01*
X139254499Y-79701746D01*
X139248040Y-79641658D01*
X139197342Y-79505733D01*
X139154304Y-79448241D01*
X139129495Y-79381722D01*
X139144587Y-79312348D01*
X139166072Y-79283646D01*
X140654463Y-77795257D01*
X140696329Y-77722744D01*
X140718000Y-77641865D01*
X140718000Y-77558135D01*
X140718000Y-72658135D01*
X140718000Y-71358135D01*
X140718000Y-71085909D01*
X140738002Y-71017788D01*
X140754900Y-70996819D01*
X143264059Y-68487659D01*
X143326369Y-68453636D01*
X143397184Y-68458700D01*
X143413537Y-68466168D01*
X143418307Y-68468772D01*
X143418312Y-68468776D01*
X143555584Y-68519976D01*
X143555588Y-68519976D01*
X143555589Y-68519977D01*
X143616256Y-68526499D01*
X143616261Y-68526499D01*
X143616268Y-68526500D01*
X143616274Y-68526500D01*
X144223726Y-68526500D01*
X144223732Y-68526500D01*
X144223739Y-68526499D01*
X144223743Y-68526499D01*
X144284410Y-68519977D01*
X144284410Y-68519976D01*
X144284416Y-68519976D01*
X144421688Y-68468776D01*
X144538975Y-68380975D01*
X144626776Y-68263688D01*
X144677976Y-68126416D01*
X144684500Y-68065732D01*
X144684500Y-66698268D01*
X144677976Y-66637584D01*
X144626776Y-66500312D01*
X144538975Y-66383025D01*
X144447549Y-66314583D01*
X144405005Y-66257750D01*
X144399941Y-66186934D01*
X144418297Y-66143716D01*
X144484946Y-66043970D01*
X144533002Y-65927952D01*
X144557500Y-65804788D01*
X144557500Y-65679212D01*
X144557499Y-65679210D01*
X144557499Y-65679204D01*
X144533003Y-65556052D01*
X144533002Y-65556049D01*
X144533002Y-65556048D01*
X144484946Y-65440030D01*
X144415179Y-65335617D01*
X144415174Y-65335611D01*
X144326388Y-65246825D01*
X144326382Y-65246820D01*
X144237208Y-65187236D01*
X144221970Y-65177054D01*
X144105952Y-65128998D01*
X144105950Y-65128997D01*
X144105947Y-65128996D01*
X143982795Y-65104500D01*
X143982788Y-65104500D01*
X143857212Y-65104500D01*
X143857204Y-65104500D01*
X143734052Y-65128996D01*
X143734049Y-65128997D01*
X143618030Y-65177054D01*
X143513617Y-65246820D01*
X143513611Y-65246825D01*
X143424825Y-65335611D01*
X143424820Y-65335617D01*
X143355054Y-65440030D01*
X143306997Y-65556049D01*
X143306996Y-65556052D01*
X143282500Y-65679204D01*
X143282500Y-65804795D01*
X143306996Y-65927947D01*
X143306997Y-65927950D01*
X143306998Y-65927952D01*
X143355054Y-66043970D01*
X143355055Y-66043971D01*
X143421703Y-66143716D01*
X143442918Y-66211468D01*
X143424135Y-66279935D01*
X143392448Y-66314585D01*
X143301027Y-66383023D01*
X143301026Y-66383024D01*
X143301025Y-66383025D01*
X143213224Y-66500312D01*
X143162023Y-66637588D01*
X143162022Y-66637589D01*
X143155500Y-66698256D01*
X143155500Y-67644589D01*
X143135498Y-67712710D01*
X143118595Y-67733684D01*
X140145537Y-70706741D01*
X140145535Y-70706744D01*
X140103670Y-70779255D01*
X140103671Y-70779256D01*
X140082000Y-70860134D01*
X140082000Y-76429126D01*
X140061998Y-76497247D01*
X140008342Y-76543740D01*
X139938068Y-76553844D01*
X139879296Y-76529088D01*
X139804857Y-76471968D01*
X139657806Y-76411060D01*
X139500000Y-76390284D01*
X139342193Y-76411060D01*
X139267958Y-76441809D01*
X139197369Y-76449398D01*
X139133882Y-76417618D01*
X139118876Y-76400914D01*
X139110404Y-76389596D01*
X139110402Y-76389595D01*
X139110402Y-76389594D01*
X139051547Y-76345537D01*
X138994267Y-76302658D01*
X138994265Y-76302657D01*
X138994266Y-76302657D01*
X138858349Y-76251962D01*
X138858344Y-76251960D01*
X138858342Y-76251960D01*
X138828298Y-76248730D01*
X138798256Y-76245500D01*
X137201753Y-76245500D01*
X137201729Y-76245502D01*
X137141660Y-76251959D01*
X137141658Y-76251959D01*
X137005733Y-76302657D01*
X136889596Y-76389596D01*
X136802657Y-76505734D01*
X136751962Y-76641650D01*
X136751960Y-76641658D01*
X136745500Y-76701737D01*
X135400500Y-76701737D01*
X135400500Y-74753999D01*
X137425605Y-74753999D01*
X138574394Y-74753999D01*
X138574394Y-74753998D01*
X138000001Y-74179605D01*
X138000000Y-74179605D01*
X137425605Y-74753999D01*
X135400500Y-74753999D01*
X135400500Y-73701777D01*
X136746000Y-73701777D01*
X136746000Y-74298202D01*
X136746002Y-74298226D01*
X136752452Y-74358232D01*
X136752452Y-74358234D01*
X136803100Y-74494023D01*
X136889952Y-74610047D01*
X137005976Y-74696900D01*
X137091569Y-74728823D01*
X137820394Y-73999999D01*
X138179605Y-73999999D01*
X138179605Y-74000001D01*
X138908428Y-74728824D01*
X138994024Y-74696899D01*
X139110047Y-74610047D01*
X139196899Y-74494023D01*
X139247546Y-74358238D01*
X139247548Y-74358230D01*
X139253999Y-74298222D01*
X139253999Y-73701797D01*
X139253997Y-73701773D01*
X139247547Y-73641767D01*
X139247547Y-73641765D01*
X139196899Y-73505976D01*
X139110047Y-73389952D01*
X138994024Y-73303101D01*
X138908429Y-73271174D01*
X138179605Y-73999999D01*
X137820394Y-73999999D01*
X137091569Y-73271175D01*
X137005975Y-73303101D01*
X136889952Y-73389952D01*
X136803100Y-73505976D01*
X136752453Y-73641761D01*
X136752451Y-73641769D01*
X136746000Y-73701777D01*
X135400500Y-73701777D01*
X135400500Y-73246000D01*
X137425604Y-73246000D01*
X137999999Y-73820395D01*
X138000000Y-73820395D01*
X138574394Y-73246000D01*
X137425604Y-73246000D01*
X135400500Y-73246000D01*
X135400500Y-66698256D01*
X138075500Y-66698256D01*
X138075500Y-68065743D01*
X138082022Y-68126410D01*
X138082023Y-68126411D01*
X138082024Y-68126416D01*
X138133224Y-68263688D01*
X138221025Y-68380975D01*
X138325601Y-68459260D01*
X138368147Y-68516095D01*
X138373211Y-68586911D01*
X138366501Y-68608343D01*
X138311059Y-68742195D01*
X138290284Y-68900000D01*
X138311060Y-69057806D01*
X138371968Y-69204857D01*
X138468865Y-69331134D01*
X138595142Y-69428031D01*
X138687872Y-69466439D01*
X138742194Y-69488940D01*
X138900000Y-69509716D01*
X139057806Y-69488940D01*
X139150536Y-69450530D01*
X139204857Y-69428031D01*
X139331134Y-69331134D01*
X139428031Y-69204857D01*
X139450530Y-69150536D01*
X139488940Y-69057806D01*
X139509716Y-68900000D01*
X139488940Y-68742194D01*
X139440303Y-68624771D01*
X139428031Y-68595143D01*
X139412562Y-68574983D01*
X139386962Y-68508763D01*
X139401227Y-68439214D01*
X139437012Y-68397415D01*
X139458975Y-68380975D01*
X139546776Y-68263688D01*
X139597976Y-68126416D01*
X139604500Y-68065732D01*
X139604500Y-66698268D01*
X139597976Y-66637584D01*
X139546776Y-66500312D01*
X139458975Y-66383025D01*
X139367549Y-66314583D01*
X139325005Y-66257750D01*
X139319941Y-66186934D01*
X139338297Y-66143716D01*
X139404946Y-66043970D01*
X139453002Y-65927952D01*
X139477500Y-65804788D01*
X139477500Y-65679212D01*
X139477499Y-65679210D01*
X139477499Y-65679204D01*
X139453003Y-65556052D01*
X139453002Y-65556049D01*
X139453002Y-65556048D01*
X139447041Y-65541656D01*
X139439451Y-65471071D01*
X139471229Y-65407584D01*
X139532286Y-65371355D01*
X139603238Y-65373887D01*
X139622854Y-65382322D01*
X139623287Y-65382553D01*
X139623296Y-65382559D01*
X139810289Y-65460014D01*
X140008800Y-65499500D01*
X140008801Y-65499500D01*
X140211199Y-65499500D01*
X140211200Y-65499500D01*
X140409711Y-65460014D01*
X140596704Y-65382559D01*
X140596712Y-65382553D01*
X140597137Y-65382327D01*
X140597392Y-65382273D01*
X140602423Y-65380190D01*
X140602817Y-65381143D01*
X140666641Y-65367845D01*
X140732941Y-65393239D01*
X140774987Y-65450446D01*
X140779430Y-65521303D01*
X140772959Y-65541656D01*
X140766997Y-65556049D01*
X140766996Y-65556052D01*
X140742500Y-65679204D01*
X140742500Y-65804795D01*
X140766996Y-65927947D01*
X140766997Y-65927950D01*
X140766998Y-65927952D01*
X140815054Y-66043970D01*
X140815055Y-66043971D01*
X140881703Y-66143716D01*
X140902918Y-66211468D01*
X140884135Y-66279935D01*
X140852448Y-66314585D01*
X140761027Y-66383023D01*
X140761026Y-66383024D01*
X140761025Y-66383025D01*
X140673224Y-66500312D01*
X140622023Y-66637588D01*
X140622022Y-66637589D01*
X140615500Y-66698256D01*
X140615500Y-68065743D01*
X140622022Y-68126410D01*
X140622023Y-68126411D01*
X140622024Y-68126416D01*
X140673224Y-68263688D01*
X140761025Y-68380975D01*
X140878312Y-68468776D01*
X141015584Y-68519976D01*
X141015588Y-68519976D01*
X141015589Y-68519977D01*
X141076256Y-68526499D01*
X141076261Y-68526499D01*
X141076268Y-68526500D01*
X141076274Y-68526500D01*
X141683726Y-68526500D01*
X141683732Y-68526500D01*
X141683739Y-68526499D01*
X141683743Y-68526499D01*
X141744410Y-68519977D01*
X141744410Y-68519976D01*
X141744416Y-68519976D01*
X141881688Y-68468776D01*
X141998975Y-68380975D01*
X142086776Y-68263688D01*
X142137976Y-68126416D01*
X142144500Y-68065732D01*
X142144500Y-66698268D01*
X142137976Y-66637584D01*
X142086776Y-66500312D01*
X141998975Y-66383025D01*
X141907549Y-66314583D01*
X141865005Y-66257750D01*
X141859941Y-66186934D01*
X141878297Y-66143716D01*
X141944946Y-66043970D01*
X141993002Y-65927952D01*
X142017500Y-65804788D01*
X142017500Y-65679212D01*
X142017499Y-65679210D01*
X142017499Y-65679204D01*
X141993003Y-65556052D01*
X141993002Y-65556049D01*
X141993002Y-65556048D01*
X141944946Y-65440030D01*
X141875179Y-65335617D01*
X141875174Y-65335611D01*
X141786388Y-65246825D01*
X141786382Y-65246820D01*
X141697208Y-65187236D01*
X141681970Y-65177054D01*
X141565952Y-65128998D01*
X141565950Y-65128997D01*
X141565947Y-65128996D01*
X141442795Y-65104500D01*
X141442788Y-65104500D01*
X141317212Y-65104500D01*
X141317204Y-65104500D01*
X141194052Y-65128996D01*
X141194049Y-65128997D01*
X141179656Y-65134959D01*
X141109066Y-65142547D01*
X141045580Y-65110766D01*
X141009353Y-65049707D01*
X141011889Y-64978756D01*
X141020327Y-64959137D01*
X141020553Y-64958712D01*
X141020559Y-64958704D01*
X141098014Y-64771711D01*
X141137500Y-64573200D01*
X141137500Y-64370800D01*
X141098014Y-64172289D01*
X141020559Y-63985296D01*
X141020553Y-63985287D01*
X141020322Y-63984854D01*
X141020267Y-63984592D01*
X141018190Y-63979577D01*
X141019140Y-63979183D01*
X141005845Y-63915349D01*
X141031244Y-63849051D01*
X141088454Y-63807009D01*
X141159312Y-63802571D01*
X141179653Y-63809039D01*
X141194048Y-63815002D01*
X141194051Y-63815002D01*
X141194052Y-63815003D01*
X141317204Y-63839499D01*
X141317210Y-63839499D01*
X141317212Y-63839500D01*
X141317213Y-63839500D01*
X141442787Y-63839500D01*
X141442788Y-63839500D01*
X141442789Y-63839499D01*
X141442795Y-63839499D01*
X141565947Y-63815003D01*
X141565947Y-63815002D01*
X141565952Y-63815002D01*
X141681970Y-63766946D01*
X141786383Y-63697179D01*
X141875179Y-63608383D01*
X141944946Y-63503970D01*
X141993002Y-63387952D01*
X141993002Y-63387950D01*
X141994579Y-63384144D01*
X142039127Y-63328863D01*
X142106490Y-63306442D01*
X142175282Y-63324000D01*
X142210950Y-63355658D01*
X142268865Y-63431134D01*
X142395142Y-63528031D01*
X142479233Y-63562861D01*
X142542194Y-63588940D01*
X142700000Y-63609716D01*
X142857806Y-63588940D01*
X142950536Y-63550530D01*
X143004857Y-63528031D01*
X143062254Y-63483988D01*
X143131134Y-63431134D01*
X143131140Y-63431125D01*
X143134790Y-63427477D01*
X143197100Y-63393449D01*
X143267916Y-63398510D01*
X143324754Y-63441054D01*
X143340298Y-63468348D01*
X143355052Y-63503967D01*
X143355053Y-63503969D01*
X143424820Y-63608382D01*
X143424825Y-63608388D01*
X143513611Y-63697174D01*
X143513617Y-63697179D01*
X143618030Y-63766946D01*
X143734048Y-63815002D01*
X143734050Y-63815002D01*
X143734052Y-63815003D01*
X143857204Y-63839499D01*
X143857210Y-63839499D01*
X143857212Y-63839500D01*
X143857213Y-63839500D01*
X143982787Y-63839500D01*
X143982788Y-63839500D01*
X143982789Y-63839499D01*
X143982795Y-63839499D01*
X144105947Y-63815003D01*
X144105947Y-63815002D01*
X144105952Y-63815002D01*
X144221970Y-63766946D01*
X144326383Y-63697179D01*
X144415179Y-63608383D01*
X144484946Y-63503970D01*
X144533002Y-63387952D01*
X144539114Y-63357223D01*
X144557499Y-63264795D01*
X144557500Y-63264786D01*
X144557500Y-63139213D01*
X144557499Y-63139204D01*
X144533003Y-63016052D01*
X144533002Y-63016049D01*
X144533002Y-63016048D01*
X144484946Y-62900030D01*
X144418297Y-62800283D01*
X144397082Y-62732530D01*
X144415865Y-62664063D01*
X144447548Y-62629416D01*
X144538975Y-62560975D01*
X144626776Y-62443688D01*
X144677976Y-62306416D01*
X144684500Y-62245732D01*
X144684500Y-60878268D01*
X144684499Y-60878256D01*
X144677977Y-60817589D01*
X144677976Y-60817588D01*
X144677976Y-60817584D01*
X144626776Y-60680312D01*
X144538975Y-60563025D01*
X144421688Y-60475224D01*
X144284416Y-60424024D01*
X144284412Y-60424023D01*
X144284411Y-60424023D01*
X144284410Y-60424022D01*
X144223743Y-60417500D01*
X144223732Y-60417500D01*
X143616268Y-60417500D01*
X143616256Y-60417500D01*
X143555589Y-60424022D01*
X143555588Y-60424023D01*
X143555585Y-60424023D01*
X143555584Y-60424024D01*
X143418312Y-60475224D01*
X143301025Y-60563025D01*
X143213224Y-60680312D01*
X143162023Y-60817588D01*
X143162022Y-60817589D01*
X143155500Y-60878256D01*
X143155500Y-61824588D01*
X143135498Y-61892709D01*
X143118595Y-61913683D01*
X142663444Y-62368834D01*
X142601132Y-62402860D01*
X142590796Y-62404661D01*
X142542195Y-62411059D01*
X142542192Y-62411060D01*
X142395142Y-62471968D01*
X142296447Y-62547701D01*
X142230227Y-62573302D01*
X142160678Y-62559037D01*
X142109882Y-62509436D01*
X142093966Y-62440247D01*
X142101687Y-62403709D01*
X142137976Y-62306416D01*
X142144500Y-62245732D01*
X142144500Y-60878268D01*
X142144499Y-60878256D01*
X142137977Y-60817589D01*
X142137976Y-60817588D01*
X142137976Y-60817584D01*
X142086776Y-60680312D01*
X141998975Y-60563025D01*
X141881688Y-60475224D01*
X141744416Y-60424024D01*
X141744412Y-60424023D01*
X141744411Y-60424023D01*
X141744410Y-60424022D01*
X141683743Y-60417500D01*
X141683732Y-60417500D01*
X141076268Y-60417500D01*
X141076256Y-60417500D01*
X141015589Y-60424022D01*
X141015588Y-60424023D01*
X141015585Y-60424023D01*
X141015584Y-60424024D01*
X140878312Y-60475224D01*
X140761025Y-60563025D01*
X140673224Y-60680312D01*
X140622023Y-60817588D01*
X140622022Y-60817589D01*
X140615500Y-60878256D01*
X140615500Y-62245743D01*
X140622022Y-62306410D01*
X140622023Y-62306411D01*
X140622024Y-62306416D01*
X140673224Y-62443688D01*
X140761025Y-62560975D01*
X140852450Y-62629415D01*
X140894994Y-62686249D01*
X140900058Y-62757065D01*
X140881703Y-62800283D01*
X140815054Y-62900030D01*
X140766997Y-63016049D01*
X140766996Y-63016052D01*
X140742500Y-63139204D01*
X140742500Y-63264795D01*
X140766996Y-63387947D01*
X140766997Y-63387950D01*
X140772958Y-63402341D01*
X140780547Y-63472931D01*
X140748768Y-63536418D01*
X140687710Y-63572645D01*
X140616758Y-63570111D01*
X140597151Y-63561680D01*
X140596704Y-63561441D01*
X140409716Y-63483988D01*
X140409711Y-63483986D01*
X140211202Y-63444500D01*
X140211200Y-63444500D01*
X140008800Y-63444500D01*
X140008797Y-63444500D01*
X139810288Y-63483986D01*
X139810283Y-63483988D01*
X139623289Y-63561443D01*
X139622840Y-63561684D01*
X139622577Y-63561738D01*
X139617577Y-63563810D01*
X139617184Y-63562861D01*
X139553333Y-63576152D01*
X139487038Y-63550745D01*
X139445004Y-63493529D01*
X139440575Y-63422671D01*
X139447039Y-63402346D01*
X139453002Y-63387952D01*
X139459114Y-63357223D01*
X139477499Y-63264795D01*
X139477500Y-63264786D01*
X139477500Y-63139213D01*
X139477499Y-63139204D01*
X139453003Y-63016052D01*
X139453002Y-63016049D01*
X139453002Y-63016048D01*
X139404946Y-62900030D01*
X139338019Y-62799867D01*
X139316804Y-62732114D01*
X139335587Y-62663647D01*
X139367275Y-62628997D01*
X139458618Y-62560618D01*
X139544408Y-62446014D01*
X139544408Y-62446012D01*
X138840001Y-61741605D01*
X138840000Y-61741605D01*
X138135590Y-62446013D01*
X138135590Y-62446014D01*
X138221380Y-62560616D01*
X138312725Y-62628997D01*
X138355271Y-62685833D01*
X138360335Y-62756649D01*
X138341981Y-62799866D01*
X138275053Y-62900031D01*
X138226997Y-63016049D01*
X138226996Y-63016052D01*
X138202500Y-63139204D01*
X138202500Y-63264795D01*
X138226996Y-63387947D01*
X138226997Y-63387950D01*
X138226998Y-63387952D01*
X138275054Y-63503970D01*
X138313615Y-63561680D01*
X138344820Y-63608382D01*
X138344825Y-63608388D01*
X138433611Y-63697174D01*
X138433617Y-63697179D01*
X138538030Y-63766946D01*
X138654048Y-63815002D01*
X138654050Y-63815002D01*
X138654052Y-63815003D01*
X138777204Y-63839499D01*
X138777210Y-63839499D01*
X138777212Y-63839500D01*
X138777213Y-63839500D01*
X138902787Y-63839500D01*
X138902788Y-63839500D01*
X138902789Y-63839499D01*
X138902795Y-63839499D01*
X139025947Y-63815003D01*
X139025947Y-63815002D01*
X139025952Y-63815002D01*
X139040339Y-63809042D01*
X139110925Y-63801451D01*
X139174414Y-63833228D01*
X139210644Y-63894284D01*
X139208113Y-63965236D01*
X139199684Y-63984840D01*
X139199443Y-63985289D01*
X139121988Y-64172283D01*
X139121986Y-64172288D01*
X139082500Y-64370797D01*
X139082500Y-64573202D01*
X139121986Y-64771711D01*
X139121988Y-64771716D01*
X139199441Y-64958704D01*
X139199680Y-64959151D01*
X139199734Y-64959411D01*
X139201810Y-64964423D01*
X139200859Y-64964816D01*
X139214153Y-65028657D01*
X139188750Y-65094954D01*
X139131538Y-65136992D01*
X139060680Y-65141426D01*
X139040341Y-65134958D01*
X139025950Y-65128997D01*
X139025947Y-65128996D01*
X138902795Y-65104500D01*
X138902788Y-65104500D01*
X138777212Y-65104500D01*
X138777204Y-65104500D01*
X138654052Y-65128996D01*
X138654049Y-65128997D01*
X138538030Y-65177054D01*
X138433617Y-65246820D01*
X138433611Y-65246825D01*
X138344825Y-65335611D01*
X138344820Y-65335617D01*
X138275054Y-65440030D01*
X138226997Y-65556049D01*
X138226996Y-65556052D01*
X138202500Y-65679204D01*
X138202500Y-65804795D01*
X138226996Y-65927947D01*
X138226997Y-65927950D01*
X138226998Y-65927952D01*
X138275054Y-66043970D01*
X138275055Y-66043971D01*
X138341703Y-66143716D01*
X138362918Y-66211468D01*
X138344135Y-66279935D01*
X138312448Y-66314585D01*
X138221027Y-66383023D01*
X138221026Y-66383024D01*
X138221025Y-66383025D01*
X138133224Y-66500312D01*
X138082023Y-66637588D01*
X138082022Y-66637589D01*
X138075500Y-66698256D01*
X135400500Y-66698256D01*
X135400500Y-62146393D01*
X138076000Y-62146393D01*
X138660395Y-61561999D01*
X139019605Y-61561999D01*
X139019605Y-61562001D01*
X139603998Y-62146394D01*
X139603999Y-62146394D01*
X139603999Y-60977605D01*
X139019605Y-61561999D01*
X138660395Y-61561999D01*
X138076000Y-60977604D01*
X138076000Y-62146393D01*
X135400500Y-62146393D01*
X135400500Y-60677986D01*
X138135590Y-60677986D01*
X138839999Y-61382395D01*
X138840000Y-61382395D01*
X139544408Y-60677984D01*
X139458618Y-60563381D01*
X139341450Y-60475670D01*
X139204307Y-60424518D01*
X139143684Y-60418000D01*
X138536325Y-60418000D01*
X138536304Y-60418002D01*
X138475696Y-60424517D01*
X138338549Y-60475670D01*
X138221383Y-60563380D01*
X138135590Y-60677986D01*
X135400500Y-60677986D01*
X135400500Y-59526500D01*
X135420502Y-59458379D01*
X135474158Y-59411886D01*
X135526500Y-59400500D01*
X162473500Y-59400500D01*
X162541621Y-59420502D01*
G37*
%TD.AperFunction*%
%TD*%
M02*
