M48
; DRILL file {KiCad 8.0.3} date 2024-07-14T16:13:24+0300
; FORMAT={-:-/ absolute / inch / decimal}
; #@! TF.CreationDate,2024-07-14T16:13:24+03:00
; #@! TF.GenerationSoftware,Kicad,Pcbnew,8.0.3
; #@! TF.FileFunction,NonPlated,1,4,NPTH
FMAT,2
INCH
; #@! TA.AperFunction,NonPlated,NPTH,ComponentDrill
T1C0.0402
; #@! TA.AperFunction,NonPlated,NPTH,ComponentDrill
T2C0.0709
; #@! TA.AperFunction,NonPlated,NPTH,ComponentDrill
T3C0.0866
; #@! TA.AperFunction,NonPlated,NPTH,ComponentDrill
T4C0.4724
%
G90
G05
T1
X5.4661Y-2.4883
X5.4661Y-2.5883
X5.5661Y-2.4883
X5.5661Y-2.5883
X5.6661Y-2.4883
X5.6661Y-2.5883
X5.7661Y-2.4883
X5.7661Y-2.5883
X5.8661Y-2.4883
X5.8661Y-2.5883
X5.9661Y-2.4883
X5.9661Y-2.5883
X6.0661Y-2.4883
X6.0661Y-2.5883
X6.1661Y-2.4883
X6.1661Y-2.5883
X6.2661Y-2.4883
X6.2661Y-2.5883
T2
X5.5161Y-2.5383
X6.2161Y-2.5383
T3
X5.4177Y-3.8854
X6.3146Y-3.8854
T4
X5.8661Y-3.1496
M30
